SplineFontDB: 3.0
FontName: Miama
FullName: Miama
FamilyName: Miama
Weight: Book
Copyright: Copyright (c) 2008-2010, Linus Romer, with Reserved Font Name Miama.\n\nThis Font Software is licensed under the SIL Open Font License, Version 1.1.
Version: 0.32
ItalicAngle: -28
UnderlinePosition: -80
UnderlineWidth: 48
Ascent: 800
Descent: 200
sfntRevision: 0x00010000
LayerCount: 2
Layer: 0 1 "Back"  1
Layer: 1 1 "Fore"  0
XUID: [1021 496 529952750 3572006]
FSType: 4
OS2Version: 3
OS2_WeightWidthSlopeOnly: 0
OS2_UseTypoMetrics: 1
CreationTime: 1252426677
ModificationTime: 1299630100
PfmFamily: 65
TTFWeight: 400
TTFWidth: 5
LineGap: 0
VLineGap: 0
Panose: 3 3 5 2 4 7 0 0 0 3
OS2TypoAscent: 1034
OS2TypoAOffset: 0
OS2TypoDescent: -1066
OS2TypoDOffset: 0
OS2TypoLinegap: 0
OS2WinAscent: 1034
OS2WinAOffset: 0
OS2WinDescent: 1066
OS2WinDOffset: 0
HheadAscent: 1034
HheadAOffset: 0
HheadDescent: -1066
HheadDOffset: 0
OS2SubXSize: 700
OS2SubYSize: 650
OS2SubXOff: 0
OS2SubYOff: 140
OS2SupXSize: 700
OS2SupYSize: 650
OS2SupXOff: 0
OS2SupYOff: 477
OS2StrikeYSize: 50
OS2StrikeYPos: 250
OS2FamilyClass: 2565
OS2Vendor: 'free'
OS2CodePages: 20000193.4d000000
OS2UnicodeRanges: a00000af.5000205b.00000000.00000000
Lookup: 1 0 0 "'subs' Subscript lookup 0"  {"'subs' Subscript lookup 0 subtable" ("inferior" ) } ['subs' ('DFLT' <'dflt' > 'cyrl' <'dflt' > 'grek' <'dflt' > 'latn' <'dflt' > ) ]
Lookup: 6 0 0 "'ss02' Style Set 2 lookup 1"  {"'ss02' Style Set 2 lookup 1 subtable"  } ['ss02' ('DFLT' <'dflt' > 'cyrl' <'dflt' > 'grek' <'dflt' > 'latn' <'dflt' > ) ]
Lookup: 4 0 1 "'liga' Standard Ligatures lookup 2"  {"'liga' Standard Ligatures lookup 2 subtable"  } ['liga' ('DFLT' <'dflt' > 'cyrl' <'dflt' > 'grek' <'dflt' > 'latn' <'dflt' > ) ]
Lookup: 1 0 0 "'onum' Oldstyle Figures lookup 3"  {"'onum' Oldstyle Figures lookup 3 subtable" ("oldstyle" ) } ['onum' ('DFLT' <'dflt' > 'cyrl' <'dflt' > 'grek' <'dflt' > 'latn' <'dflt' > ) ]

StartChar: .notdef
Encoding: 65536 -1 0
Width: 1000
VWidth: 2000
Flags: W
LayerCount: 2
Fore
SplineSet
100 0 m 1,0,-1
 100 1066 l 1,1,-1
 900 1066 l 1,2,-1
 900 0 l 1,3,-1
 100 0 l 1,0,-1
200 100 m 1,4,-1
 800 100 l 1,5,-1
 800 966 l 1,6,-1
 200 966 l 1,7,-1
 200 100 l 1,4,-1
EndSplineSet
EndChar

StartChar: exclam
Encoding: 33 33 4
Width: 434
VWidth: 2000
GlyphClass: 2
Flags: W
LayerCount: 2
Fore
SplineSet
688 782 m 0,0,1
 680 784 680 784 676 784 c 0,2,3
 586 784 586 784 384 446 c 0,4,5
 308 316 308 316 282 212 c 0,6,7
 278 198 278 198 261 198 c 128,-1,8
 244 198 244 198 244 210 c 128,-1,9
 244 222 244 222 284 316 c 0,10,11
 412 626 412 626 568 796 c 0,12,13
 586 814 586 814 639 814 c 128,-1,14
 692 814 692 814 692 790 c 0,15,16
 692 782 692 782 688 782 c 0,0,1
194 -8 m 0,17,18
 154 -8 154 -8 154 26 c 128,-1,19
 154 60 154 60 181 90 c 128,-1,20
 208 120 208 120 242 120 c 128,-1,21
 276 120 276 120 276 84 c 0,22,23
 276 54 276 54 246 23 c 128,-1,24
 216 -8 216 -8 194 -8 c 0,17,18
EndSplineSet
EndChar

StartChar: quotedbl
Encoding: 34 34 5
Width: 480
VWidth: 2000
GlyphClass: 2
Flags: W
LayerCount: 2
Fore
SplineSet
424 544 m 0,0,1
 412 544 412 544 412 551 c 128,-1,2
 412 558 412 558 436 604 c 2,3,-1
 582 880 l 2,4,5
 586 888 586 888 619 901 c 128,-1,6
 652 914 652 914 656 916 c 128,-1,7
 660 918 660 918 664 918 c 128,-1,8
 668 918 668 918 668 914 c 128,-1,9
 668 910 668 910 652 888 c 0,10,11
 588 806 588 806 509 675 c 128,-1,12
 430 544 430 544 424 544 c 0,0,1
304 544 m 0,13,14
 292 544 292 544 292 551 c 128,-1,15
 292 558 292 558 316 604 c 2,16,-1
 462 880 l 2,17,18
 466 888 466 888 499 901 c 128,-1,19
 532 914 532 914 536 916 c 128,-1,20
 540 918 540 918 544 918 c 128,-1,21
 548 918 548 918 548 914 c 128,-1,22
 548 910 548 910 532 888 c 0,23,24
 468 806 468 806 389 675 c 128,-1,25
 310 544 310 544 304 544 c 0,13,14
EndSplineSet
EndChar

StartChar: numbersign
Encoding: 35 35 6
Width: 582
VWidth: 2000
GlyphClass: 2
Flags: W
LayerCount: 2
Fore
SplineSet
304 324 m 1,0,1
 340 324 340 324 450 334 c 1,2,-1
 564 548 l 1,3,4
 520 548 520 548 416 544 c 1,5,-1
 304 324 l 1,0,1
478 336 m 1,6,7
 558 340 558 340 579 340 c 128,-1,8
 600 340 600 340 600 334 c 128,-1,9
 600 328 600 328 595 320 c 128,-1,10
 590 312 590 312 588 308 c 0,11,12
 572 262 572 262 516 262 c 1,13,-1
 490 260 l 2,14,15
 464 260 464 260 444 260 c 1,16,17
 412 200 412 200 384 144 c 2,18,-1
 320 10 l 2,19,20
 302 -28 302 -28 292 -28 c 0,21,22
 268 -28 268 -28 268 -12 c 0,23,24
 268 14 268 14 408 260 c 1,25,26
 352 260 352 260 266 250 c 1,27,28
 158 42 158 42 132 -20 c 0,29,30
 130 -22 130 -22 117 -27 c 128,-1,31
 104 -32 104 -32 98 -32 c 128,-1,32
 92 -32 92 -32 92 -18 c 0,33,34
 92 -16 92 -16 232 246 c 1,35,36
 164 238 164 238 142 238 c 128,-1,37
 120 238 120 238 120 243 c 128,-1,38
 120 248 120 248 128 264 c 0,39,40
 148 306 148 306 185 314 c 128,-1,41
 222 322 222 322 274 322 c 1,42,-1
 386 542 l 1,43,44
 312 536 312 536 297 534 c 128,-1,45
 282 532 282 532 282 538 c 0,46,47
 282 590 282 590 418 604 c 1,48,49
 570 896 570 896 586 898 c 1,50,51
 614 898 614 898 614 884 c 0,52,53
 614 880 614 880 604 869 c 128,-1,54
 594 858 594 858 551 790 c 128,-1,55
 508 722 508 722 448 606 c 1,56,-1
 530 612 l 2,57,58
 584 616 584 616 600 618 c 1,59,60
 748 912 748 912 766 912 c 0,61,62
 794 912 794 912 794 906 c 128,-1,63
 794 900 794 900 790 892 c 0,64,65
 708 776 708 776 628 620 c 1,66,67
 700 626 700 626 731 626 c 128,-1,68
 762 626 762 626 762 621 c 128,-1,69
 762 616 762 616 758 612 c 128,-1,70
 754 608 754 608 749 602 c 128,-1,71
 744 596 744 596 727 572 c 128,-1,72
 710 548 710 548 702 548 c 2,73,-1
 590 548 l 1,74,-1
 478 336 l 1,6,7
EndSplineSet
EndChar

StartChar: dollar
Encoding: 36 36 7
Width: 760
VWidth: 2000
GlyphClass: 2
Flags: W
LayerCount: 2
Fore
SplineSet
534 424 m 1,0,-1
 322 12 l 1,1,2
 354 8 354 8 364 8 c 0,3,4
 480 8 480 8 552 81 c 128,-1,5
 624 154 624 154 624 230 c 128,-1,6
 624 306 624 306 534 424 c 1,0,-1
558 536 m 1,7,-1
 716 840 l 1,8,9
 706 842 706 842 682 842 c 0,10,11
 592 842 592 842 540 792 c 128,-1,12
 488 742 488 742 488 683 c 128,-1,13
 488 624 488 624 558 536 c 1,7,-1
822 1034 m 4,14,15
 838 1032 838 1032 842 1032 c 128,-1,16
 846 1032 846 1032 846 1028 c 128,-1,17
 846 1024 846 1024 772 884 c 1,18,19
 814 878 814 878 846 856 c 0,20,21
 900 818 900 818 900 790 c 0,22,23
 900 784 900 784 880 770 c 2,24,-1
 854 752 l 2,25,26
 838 740 838 740 834 740 c 128,-1,27
 830 740 830 740 830 756 c 128,-1,28
 830 772 830 772 806 796 c 128,-1,29
 782 820 782 820 744 832 c 1,30,-1
 578 512 l 1,31,32
 674 400 674 400 690 357 c 128,-1,33
 706 314 706 314 706 286 c 0,34,35
 706 166 706 166 572 67 c 128,-1,36
 438 -32 438 -32 300 -34 c 1,37,-1
 196 -226 l 2,38,39
 190 -238 190 -238 166 -254 c 128,-1,40
 142 -270 142 -270 135 -270 c 128,-1,41
 128 -270 128 -270 128 -266 c 2,42,-1
 262 -32 l 1,43,44
 168 -22 168 -22 122 29 c 128,-1,45
 76 80 76 80 76 136 c 0,46,47
 76 142 76 142 95 161 c 128,-1,48
 114 180 114 180 128 196 c 2,49,-1
 150 224 l 2,50,51
 158 234 158 234 162 234 c 128,-1,52
 166 234 166 234 166 230 c 1,53,54
 148 200 148 200 148 190 c 0,55,56
 148 60 148 60 288 18 c 1,57,-1
 512 450 l 1,58,59
 418 572 418 572 418 638 c 0,60,61
 418 736 418 736 524 810 c 128,-1,62
 630 884 630 884 740 886 c 1,63,64
 818 1034 818 1034 822 1034 c 4,14,15
EndSplineSet
EndChar

StartChar: percent
Encoding: 37 37 8
Width: 886
VWidth: 2000
GlyphClass: 2
Flags: W
LayerCount: 2
Fore
SplineSet
403 793 m 128,-1,1
 360 736 360 736 360 681 c 128,-1,2
 360 626 360 626 397 592 c 128,-1,3
 434 558 434 558 497 558 c 128,-1,4
 560 558 560 558 602 615 c 128,-1,5
 644 672 644 672 644 727 c 128,-1,6
 644 782 644 782 608 816 c 128,-1,7
 572 850 572 850 509 850 c 128,-1,0
 446 850 446 850 403 793 c 128,-1,1
304 650 m 0,8,9
 304 740 304 740 391 813 c 128,-1,10
 478 886 478 886 551 886 c 128,-1,11
 624 886 624 886 662 850 c 128,-1,12
 700 814 700 814 700 758 c 0,13,14
 700 668 700 668 613 595 c 128,-1,15
 526 522 526 522 453 522 c 128,-1,16
 380 522 380 522 342 558 c 128,-1,17
 304 594 304 594 304 650 c 0,8,9
924 654 m 2,18,19
 956 674 956 674 965 665 c 128,-1,20
 974 656 974 656 940 638 c 1,21,-1
 270 226 l 2,22,23
 236 206 236 206 228 214 c 128,-1,24
 220 222 220 222 254 242 c 2,25,-1
 924 654 l 2,18,19
567 247 m 128,-1,27
 524 190 524 190 524 135 c 128,-1,28
 524 80 524 80 561 46 c 128,-1,29
 598 12 598 12 661 12 c 128,-1,30
 724 12 724 12 766 69 c 128,-1,31
 808 126 808 126 808 181 c 128,-1,32
 808 236 808 236 772 270 c 128,-1,33
 736 304 736 304 673 304 c 128,-1,26
 610 304 610 304 567 247 c 128,-1,27
468 104 m 0,34,35
 468 194 468 194 555 267 c 128,-1,36
 642 340 642 340 715 340 c 128,-1,37
 788 340 788 340 826 304 c 128,-1,38
 864 268 864 268 864 212 c 0,39,40
 864 122 864 122 777 49 c 128,-1,41
 690 -24 690 -24 617 -24 c 128,-1,42
 544 -24 544 -24 506 12 c 128,-1,43
 468 48 468 48 468 104 c 0,34,35
EndSplineSet
EndChar

StartChar: ampersand
Encoding: 38 38 9
Width: 1016
VWidth: 2000
GlyphClass: 2
Flags: W
LayerCount: 2
Fore
SplineSet
502 566 m 1,0,1
 548 506 548 506 582 506 c 128,-1,2
 616 506 616 506 616 532 c 0,3,4
 616 566 616 566 502 566 c 1,0,1
848 315 m 128,-1,6
 980 236 980 236 1026 236 c 128,-1,7
 1072 236 1072 236 1112 290 c 1,8,9
 1116 290 1116 290 1116 285 c 128,-1,10
 1116 280 1116 280 1096 260 c 0,11,12
 1050 208 1050 208 1014 208 c 0,13,14
 946 208 946 208 856 256 c 1,15,16
 824 162 824 162 704 66 c 128,-1,17
 584 -30 584 -30 456 -30 c 128,-1,18
 328 -30 328 -30 240 45 c 128,-1,19
 152 120 152 120 152 242 c 128,-1,20
 152 364 152 364 239 455 c 128,-1,21
 326 546 326 546 448 586 c 1,22,23
 440 608 440 608 440 644 c 0,24,25
 440 752 440 752 522 818 c 128,-1,26
 604 884 604 884 680 884 c 128,-1,27
 756 884 756 884 811 857 c 128,-1,28
 866 830 866 830 866 790 c 1,29,-1
 846 754 l 2,30,31
 828 722 828 722 825 722 c 128,-1,32
 822 722 822 722 822 726 c 0,33,34
 822 774 822 774 768 809 c 128,-1,35
 714 844 714 844 643 844 c 128,-1,36
 572 844 572 844 519 794 c 128,-1,37
 466 744 466 744 466 666 c 0,38,39
 466 632 466 632 482 596 c 1,40,41
 538 606 538 606 574 606 c 128,-1,42
 610 606 610 606 638 591 c 128,-1,43
 666 576 666 576 666 548 c 128,-1,44
 666 520 666 520 639 503 c 128,-1,45
 612 486 612 486 576 486 c 128,-1,46
 540 486 540 486 507 508 c 128,-1,47
 474 530 474 530 458 562 c 1,48,49
 338 542 338 542 281 458 c 128,-1,50
 224 374 224 374 224 269 c 128,-1,51
 224 164 224 164 311 89 c 128,-1,52
 398 14 398 14 515 14 c 128,-1,53
 632 14 632 14 708 95 c 128,-1,54
 784 176 784 176 802 286 c 1,55,56
 782 298 782 298 742 328 c 0,57,58
 668 384 668 384 622 384 c 0,59,60
 602 384 602 384 588 368 c 128,-1,61
 574 352 574 352 574 330 c 128,-1,62
 574 308 574 308 597 288 c 128,-1,63
 620 268 620 268 620 264 c 128,-1,64
 620 260 620 260 592 260 c 2,65,-1
 584 260 l 2,66,67
 518 260 518 260 518 322 c 0,68,69
 518 352 518 352 553 373 c 128,-1,70
 588 394 588 394 634 394 c 0,71,5
 716 394 716 394 848 315 c 128,-1,6
EndSplineSet
EndChar

StartChar: quotesingle
Encoding: 39 39 10
Width: 360
VWidth: 2000
GlyphClass: 2
Flags: W
LayerCount: 2
Fore
SplineSet
304 544 m 0,0,1
 292 544 292 544 292 551 c 128,-1,2
 292 558 292 558 316 604 c 2,3,-1
 462 880 l 2,4,5
 466 888 466 888 499 901 c 128,-1,6
 532 914 532 914 536 916 c 128,-1,7
 540 918 540 918 544 918 c 128,-1,8
 548 918 548 918 548 914 c 128,-1,9
 548 910 548 910 532 888 c 0,10,11
 468 806 468 806 389 675 c 128,-1,12
 310 544 310 544 304 544 c 0,0,1
EndSplineSet
EndChar

StartChar: parenleft
Encoding: 40 40 11
Width: 482
VWidth: 2000
GlyphClass: 2
Flags: W
LayerCount: 2
Fore
SplineSet
326 -138 m 0,0,1
 182 -80 182 -80 182 100 c 0,2,3
 182 270 182 270 324 512 c 0,4,5
 398 636 398 636 535 766 c 128,-1,6
 672 896 672 896 850 996 c 0,7,8
 886 1014 886 1014 892 1014 c 128,-1,9
 898 1014 898 1014 898 1009 c 128,-1,10
 898 1004 898 1004 884 996 c 0,11,12
 712 896 712 896 582 760 c 128,-1,13
 452 624 452 624 384 492 c 0,14,15
 252 238 252 238 252 64 c 0,16,17
 252 -2 252 -2 272 -48 c 128,-1,18
 292 -94 292 -94 304 -100 c 2,19,20
 336 -122 l 0,21,22
 348 -130 348 -130 348 -136 c 128,-1,23
 348 -142 348 -142 341 -142 c 128,-1,24
 334 -142 334 -142 326 -138 c 0,0,1
EndSplineSet
Substitution2: "'subs' Subscript lookup 0 subtable" uni208D
EndChar

StartChar: parenright
Encoding: 41 41 12
Width: 484
VWidth: 2000
GlyphClass: 2
Flags: W
LayerCount: 2
Fore
SplineSet
500 1010 m 0,0,1
 644 952 644 952 644 772 c 0,2,3
 644 602 644 602 500 360 c 0,4,5
 428 236 428 236 291 106 c 128,-1,6
 154 -24 154 -24 -24 -124 c 0,7,8
 -60 -142 -60 -142 -66 -142 c 128,-1,9
 -72 -142 -72 -142 -72 -137 c 128,-1,10
 -72 -132 -72 -132 -58 -124 c 0,11,12
 114 -24 114 -24 244 112 c 128,-1,13
 374 248 374 248 442 380 c 0,14,15
 574 634 574 634 574 808 c 0,16,17
 574 874 574 874 554 920 c 128,-1,18
 534 966 534 966 524 972 c 2,19,20
 490 994 l 0,21,22
 478 1002 478 1002 478 1008 c 128,-1,23
 478 1014 478 1014 485 1014 c 128,-1,24
 492 1014 492 1014 500 1010 c 0,0,1
EndSplineSet
Substitution2: "'subs' Subscript lookup 0 subtable" uni208E
EndChar

StartChar: asterisk
Encoding: 42 42 13
Width: 430
VWidth: 2000
GlyphClass: 2
Flags: W
LayerCount: 2
Fore
SplineSet
318 586 m 1,0,-1
 320 646 l 1,1,2
 284 648 284 648 275 648 c 128,-1,3
 266 648 266 648 266 642 c 0,4,5
 266 624 266 624 318 586 c 1,0,-1
436 644 m 1,6,-1
 330 646 l 1,7,-1
 330 580 l 1,8,9
 340 568 340 568 354 561 c 128,-1,10
 368 554 368 554 372 550 c 1,11,12
 408 598 408 598 436 644 c 1,6,-1
450 624 m 1,13,14
 420 576 420 576 398 532 c 1,15,16
 486 470 486 470 518 470 c 0,17,18
 524 470 524 470 524 482 c 128,-1,19
 524 494 524 494 512 518 c 128,-1,20
 500 542 500 542 479 576 c 128,-1,21
 458 610 458 610 450 624 c 1,13,14
426 680 m 1,22,23
 352 804 352 804 346 804 c 128,-1,24
 340 804 340 804 334 686 c 1,25,-1
 426 680 l 1,22,23
270 694 m 1,26,-1
 322 688 l 1,27,28
 322 792 322 792 329 818 c 128,-1,29
 336 844 336 844 340 856 c 0,30,31
 348 876 348 876 362 876 c 128,-1,32
 376 876 376 876 386 862 c 128,-1,33
 396 848 396 848 422 797 c 128,-1,34
 448 746 448 746 472 706 c 1,35,36
 494 742 494 742 516 788 c 0,37,38
 554 866 554 866 568 866 c 0,39,40
 574 866 574 866 582 851 c 128,-1,41
 590 836 590 836 590 828 c 1,42,-1
 492 680 l 1,43,-1
 678 680 l 2,44,45
 690 680 690 680 690 672 c 128,-1,46
 690 664 690 664 680 653 c 128,-1,47
 670 642 670 642 662 642 c 2,48,-1
 622 644 l 1,49,-1
 504 644 l 1,50,51
 572 528 572 528 586 507 c 128,-1,52
 600 486 600 486 600 482 c 0,53,54
 600 462 600 462 560 446 c 1,55,56
 516 446 516 446 392 520 c 1,57,-1
 364 468 l 2,58,59
 358 456 358 456 352 456 c 0,60,61
 314 456 314 456 314 528 c 1,62,-1
 316 570 l 1,63,64
 216 636 216 636 216 660 c 0,65,66
 216 672 216 672 231 683 c 128,-1,67
 246 694 246 694 270 694 c 1,26,-1
364 540 m 1,68,69
 354 550 354 550 330 562 c 1,70,71
 330 514 330 514 339 514 c 128,-1,72
 348 514 348 514 364 540 c 1,68,69
EndSplineSet
EndChar

StartChar: plus
Encoding: 43 43 14
Width: 672
VWidth: 2000
GlyphClass: 2
Flags: W
LayerCount: 2
Fore
SplineSet
402 298 m 1,0,1
 294 290 294 290 210 247 c 128,-1,2
 126 204 126 204 126 142 c 0,3,4
 126 120 126 120 142 104 c 128,-1,5
 158 88 158 88 182 88 c 0,6,7
 240 88 240 88 301 155 c 128,-1,8
 362 222 362 222 402 298 c 1,0,1
544 522 m 0,9,10
 544 452 544 452 490 344 c 1,11,12
 722 358 722 358 722 354 c 0,13,14
 722 342 722 342 700 330 c 2,15,-1
 656 306 l 1,16,17
 552 306 552 306 468 302 c 1,18,19
 422 212 422 212 362 158 c 128,-1,20
 302 104 302 104 261 90 c 128,-1,21
 220 76 220 76 185 76 c 128,-1,22
 150 76 150 76 131 94 c 128,-1,23
 112 112 112 112 112 136 c 0,24,25
 112 204 112 204 189 264 c 128,-1,26
 266 324 266 324 422 340 c 1,27,28
 474 452 474 452 474 484 c 0,29,30
 474 546 474 546 418 546 c 0,31,32
 344 546 344 546 288 506 c 0,33,34
 270 492 270 492 267 492 c 128,-1,35
 264 492 264 492 264 497 c 128,-1,36
 264 502 264 502 291 522 c 128,-1,37
 318 542 318 542 371 561 c 128,-1,38
 424 580 424 580 462 580 c 0,39,40
 544 580 544 580 544 522 c 0,9,10
EndSplineSet
EndChar

StartChar: comma
Encoding: 44 44 15
Width: 320
VWidth: 2000
GlyphClass: 2
Flags: W
LayerCount: 2
Fore
SplineSet
160 84 m 0,0,1
 200 84 200 84 200 11 c 128,-1,2
 200 -62 200 -62 146 -127 c 128,-1,3
 92 -192 92 -192 40 -230 c 128,-1,4
 -12 -268 -12 -268 -20 -268 c 128,-1,5
 -28 -268 -28 -268 -28 -265 c 128,-1,6
 -28 -262 -28 -262 10 -232 c 0,7,8
 126 -144 126 -144 126 -56 c 0,9,10
 126 -24 126 -24 115 11 c 128,-1,11
 104 46 104 46 104 53 c 128,-1,12
 104 60 104 60 128 72 c 128,-1,13
 152 84 152 84 160 84 c 0,0,1
EndSplineSet
EndChar

StartChar: hyphen
Encoding: 45 45 16
Width: 536
VWidth: 2000
GlyphClass: 2
Flags: W
LayerCount: 2
Fore
SplineSet
200 354 m 2,0,-1
 480 350 l 1,1,-1
 572 352 l 2,2,3
 576 352 576 352 576 350 c 2,4,-1
 566 326 l 2,5,6
 564 320 564 320 561 309 c 128,-1,7
 558 298 558 298 554 298 c 2,8,-1
 318 306 l 1,9,-1
 172 302 l 2,10,11
 168 302 168 302 168 304 c 128,-1,12
 168 306 168 306 172 310 c 0,13,14
 182 324 182 324 190 339 c 128,-1,15
 198 354 198 354 200 354 c 2,0,-1
EndSplineSet
EndChar

StartChar: period
Encoding: 46 46 17
Width: 320
VWidth: 2000
GlyphClass: 2
Flags: W
LayerCount: 2
Fore
SplineSet
152 -8 m 0,0,1
 112 -8 112 -8 112 26 c 128,-1,2
 112 60 112 60 139 90 c 128,-1,3
 166 120 166 120 200 120 c 128,-1,4
 234 120 234 120 234 84 c 0,5,6
 234 54 234 54 204 23 c 128,-1,7
 174 -8 174 -8 152 -8 c 0,0,1
EndSplineSet
EndChar

StartChar: slash
Encoding: 47 47 18
Width: 522
VWidth: 2000
GlyphClass: 2
Flags: W
LayerCount: 2
Fore
SplineSet
692 1056 m 2,0,1
 696 1064 696 1064 717 1075 c 128,-1,2
 738 1086 738 1086 746 1086 c 1,3,-1
 748 1084 l 2,4,5
 748 1082 748 1082 746 1080 c 2,6,-1
 146 -40 l 2,7,8
 144 -46 144 -46 122 -58 c 128,-1,9
 100 -70 100 -70 94 -70 c 1,10,-1
 92 -68 l 1,11,12
 92 -64 92 -64 98 -56 c 2,13,-1
 692 1056 l 2,0,1
EndSplineSet
EndChar

StartChar: zero
Encoding: 48 48 19
Width: 726
VWidth: 2000
GlyphClass: 2
Flags: W
LayerCount: 2
Fore
SplineSet
310 459 m 128,-1,1
 236 304 236 304 236 210 c 128,-1,2
 236 116 236 116 265 69 c 128,-1,3
 294 22 294 22 344 22 c 0,4,5
 436 22 436 22 547 130 c 128,-1,6
 658 238 658 238 734 391 c 128,-1,7
 810 544 810 544 810 666 c 0,8,9
 810 736 810 736 782 788 c 128,-1,10
 754 840 754 840 690 840 c 0,11,12
 602 840 602 840 493 727 c 128,-1,0
 384 614 384 614 310 459 c 128,-1,1
758 886 m 0,13,14
 828 886 828 886 857 833 c 128,-1,15
 886 780 886 780 886 706 c 0,16,17
 886 574 886 574 796 403 c 128,-1,18
 706 232 706 232 560 104 c 128,-1,19
 414 -24 414 -24 274 -24 c 0,20,21
 148 -24 148 -24 148 146 c 128,-1,22
 148 316 148 316 255 492 c 128,-1,23
 362 668 362 668 505 777 c 128,-1,24
 648 886 648 886 758 886 c 0,13,14
EndSplineSet
Substitution2: "'onum' Oldstyle Figures lookup 3 subtable" uniE000
Substitution2: "'subs' Subscript lookup 0 subtable" uni2080
EndChar

StartChar: one
Encoding: 49 49 20
Width: 540
VWidth: 2000
GlyphClass: 2
Flags: W
LayerCount: 2
Fore
SplineSet
616 674 m 1,0,-1
 522 594 l 1,1,2
 322 428 322 428 148 326 c 0,3,4
 120 308 120 308 104 312 c 0,5,6
 100 314 100 314 108 319 c 128,-1,7
 116 324 116 324 120 326 c 0,8,9
 290 428 290 428 516 614 c 1,10,-1
 592 680 l 2,11,12
 626 710 626 710 638 722 c 128,-1,13
 650 734 650 734 675 786 c 128,-1,14
 700 838 700 838 724 852 c 0,15,16
 788 886 788 886 802 886 c 128,-1,17
 816 886 816 886 816 868 c 0,18,19
 816 826 816 826 728 750 c 1,20,21
 494 334 494 334 366 52 c 0,22,23
 362 44 362 44 358 32 c 128,-1,24
 354 20 354 20 351 13 c 128,-1,25
 348 6 348 6 344 0 c 0,26,27
 338 -14 338 -14 315 -16 c 128,-1,28
 292 -18 292 -18 268 -26 c 128,-1,29
 244 -34 244 -34 235 -40 c 128,-1,30
 226 -46 226 -46 219 -46 c 128,-1,31
 212 -46 212 -46 212 -41 c 128,-1,32
 212 -36 212 -36 225 -13 c 128,-1,33
 238 10 238 10 264 52 c 2,34,-1
 308 126 l 1,35,-1
 616 674 l 1,0,-1
EndSplineSet
Substitution2: "'onum' Oldstyle Figures lookup 3 subtable" uniE001
Substitution2: "'subs' Subscript lookup 0 subtable" uni2081
EndChar

StartChar: two
Encoding: 50 50 21
Width: 650
VWidth: 2000
GlyphClass: 2
Flags: W
LayerCount: 2
Fore
SplineSet
624 886 m 0,0,1
 700 886 700 886 745 846 c 128,-1,2
 790 806 790 806 790 748 c 128,-1,3
 790 690 790 690 756 633 c 128,-1,4
 722 576 722 576 636 499 c 128,-1,5
 550 422 550 422 472 360 c 1,6,7
 128 102 l 1,8,9
 142 106 142 106 154 106 c 0,10,11
 234 106 234 106 358 33 c 128,-1,12
 482 -40 482 -40 532 -54 c 128,-1,13
 582 -68 582 -68 650 -68 c 128,-1,14
 718 -68 718 -68 756 -50 c 0,15,16
 810 -24 810 -24 794 -37 c 128,-1,17
 778 -50 778 -50 742 -68 c 0,18,19
 636 -116 636 -116 566 -116 c 128,-1,20
 496 -116 496 -116 452 -103 c 128,-1,21
 408 -90 408 -90 284 -16 c 128,-1,22
 160 58 160 58 84 58 c 0,23,24
 80 58 80 58 64 54 c 1,25,26
 -14 -8 -14 -8 -29 -19 c 128,-1,27
 -44 -30 -44 -30 -55 -30 c 128,-1,28
 -66 -30 -66 -30 -66 -24 c 128,-1,29
 -66 -18 -66 -18 -32 12 c 0,30,31
 388 360 388 360 443 408 c 128,-1,32
 498 456 498 456 564 520 c 0,33,34
 694 646 694 646 694 732 c 0,35,36
 694 780 694 780 661 816 c 128,-1,37
 628 852 628 852 580 852 c 0,38,39
 482 852 482 852 412 782 c 0,40,41
 392 762 392 762 388 762 c 128,-1,42
 384 762 384 762 384 768 c 128,-1,43
 384 774 384 774 406 796 c 0,44,45
 494 886 494 886 624 886 c 0,0,1
EndSplineSet
Substitution2: "'onum' Oldstyle Figures lookup 3 subtable" uniE002
Substitution2: "'subs' Subscript lookup 0 subtable" uni2082
EndChar

StartChar: three
Encoding: 51 51 22
Width: 620
VWidth: 2000
GlyphClass: 2
Flags: W
LayerCount: 2
Fore
SplineSet
100 156 m 1,0,1
 80 132 80 132 80 120 c 128,-1,2
 80 108 80 108 102 86 c 128,-1,3
 124 64 124 64 175 43 c 128,-1,4
 226 22 226 22 290 22 c 0,5,6
 410 22 410 22 502 113 c 128,-1,7
 594 204 594 204 594 312 c 0,8,9
 594 384 594 384 545 428 c 128,-1,10
 496 472 496 472 420 472 c 0,11,12
 400 472 400 472 383 466 c 128,-1,13
 366 460 366 460 359 460 c 128,-1,14
 352 460 352 460 352 467 c 128,-1,15
 352 474 352 474 379 489 c 128,-1,16
 406 504 406 504 427 509 c 128,-1,17
 448 514 448 514 512 541 c 128,-1,18
 576 568 576 568 610 588 c 0,19,20
 710 646 710 646 710 738 c 0,21,22
 710 848 710 848 582 848 c 0,23,24
 524 848 524 848 488 811 c 128,-1,25
 452 774 452 774 418 774 c 0,26,27
 414 774 414 774 414 779 c 128,-1,28
 414 784 414 784 446 812 c 128,-1,29
 478 840 478 840 537 868 c 128,-1,30
 596 896 596 896 650 896 c 0,31,32
 790 896 790 896 790 782 c 128,-1,33
 790 668 790 668 620 570 c 0,34,35
 568 542 568 542 516 518 c 1,36,37
 586 512 586 512 629 463 c 128,-1,38
 672 414 672 414 672 356 c 0,39,40
 672 212 672 212 516 93 c 128,-1,41
 360 -26 360 -26 222 -26 c 0,42,43
 136 -26 136 -26 73 7 c 128,-1,44
 10 40 10 40 10 78 c 0,45,46
 10 90 10 90 22 100 c 0,47,48
 72 142 72 142 94 162 c 1,49,50
 100 162 100 162 100 156 c 1,0,1
EndSplineSet
Substitution2: "'onum' Oldstyle Figures lookup 3 subtable" uniE003
Substitution2: "'subs' Subscript lookup 0 subtable" uni2083
EndChar

StartChar: four
Encoding: 52 52 23
Width: 676
VWidth: 2000
GlyphClass: 2
Flags: W
LayerCount: 2
Fore
SplineSet
850 516 m 2,0,-1
 854 514 l 1,1,2
 854 510 854 510 832 496 c 0,3,4
 776 458 776 458 652 434 c 1,5,6
 470 94 470 94 450 32 c 0,7,8
 434 -14 434 -14 420 -14 c 1,9,10
 354 -24 354 -24 340 -35 c 128,-1,11
 326 -46 326 -46 319 -46 c 128,-1,12
 312 -46 312 -46 312 -41 c 128,-1,13
 312 -36 312 -36 326 -12 c 2,14,-1
 410 126 l 1,15,-1
 576 420 l 1,16,17
 452 400 452 400 314 400 c 128,-1,18
 176 400 176 400 176 462 c 0,19,20
 176 512 176 512 248 576 c 0,21,22
 284 608 284 608 318 636 c 2,23,-1
 406 702 l 2,24,25
 528 792 528 792 576 854 c 0,26,27
 580 860 580 860 614 876 c 128,-1,28
 648 892 648 892 656 892 c 1,29,-1
 658 890 l 1,30,31
 658 876 658 876 572 804 c 1,32,-1
 348 624 l 2,33,34
 316 598 316 598 288 564 c 128,-1,35
 260 530 260 530 260 506 c 0,36,37
 260 442 260 442 432 442 c 0,38,39
 504 442 504 442 596 456 c 1,40,-1
 776 772 l 2,41,42
 806 824 806 824 823 835 c 128,-1,43
 840 846 840 846 858 860 c 0,44,45
 896 886 896 886 905 886 c 128,-1,46
 914 886 914 886 914 881 c 128,-1,47
 914 876 914 876 908 868 c 1,48,-1
 888 852 l 1,49,50
 878 840 878 840 852 799 c 128,-1,51
 826 758 826 758 670 470 c 1,52,-1
 758 492 l 2,53,54
 802 502 802 502 825 509 c 128,-1,55
 848 516 848 516 850 516 c 2,0,-1
EndSplineSet
Substitution2: "'onum' Oldstyle Figures lookup 3 subtable" uniE004
Substitution2: "'subs' Subscript lookup 0 subtable" uni2084
EndChar

StartChar: five
Encoding: 53 53 24
Width: 620
VWidth: 2000
GlyphClass: 2
Flags: W
LayerCount: 2
Fore
SplineSet
154 -42 m 0,0,1
 96 -42 96 -42 47 -21 c 128,-1,2
 -2 0 -2 0 -2 40 c 128,-1,3
 -2 80 -2 80 18 104 c 128,-1,4
 38 128 38 128 77 158 c 128,-1,5
 116 188 116 188 125 197 c 128,-1,6
 134 206 134 206 138 206 c 2,7,-1
 142 204 l 1,8,9
 142 198 142 198 125 186 c 128,-1,10
 108 174 108 174 92 151 c 128,-1,11
 76 128 76 128 76 94 c 128,-1,12
 76 60 76 60 112 31 c 128,-1,13
 148 2 148 2 224 2 c 0,14,15
 374 2 374 2 487 91 c 128,-1,16
 600 180 600 180 600 310 c 0,17,18
 600 388 600 388 551 435 c 128,-1,19
 502 482 502 482 431 482 c 128,-1,20
 360 482 360 482 304 454 c 2,21,-1
 284 444 l 2,22,23
 270 436 270 436 262 436 c 128,-1,24
 254 436 254 436 254 441 c 128,-1,25
 254 446 254 446 286 491 c 128,-1,26
 318 536 318 536 372 632 c 128,-1,27
 426 728 426 728 466 836 c 0,28,29
 474 858 474 858 490 858 c 128,-1,30
 506 858 506 858 516 854 c 2,31,-1
 536 844 l 1,32,33
 568 832 568 832 694 832 c 128,-1,34
 820 832 820 832 904 866 c 0,35,36
 910 868 910 868 913 874 c 128,-1,37
 916 880 916 880 920 880 c 128,-1,38
 924 880 924 880 924 875 c 128,-1,39
 924 870 924 870 915 858 c 128,-1,40
 906 846 906 846 882 828 c 128,-1,41
 858 810 858 810 830 802 c 0,42,43
 722 768 722 768 596 768 c 0,44,45
 574 768 574 768 484 778 c 1,46,47
 426 632 426 632 332 490 c 1,48,49
 426 530 426 530 510 530 c 128,-1,50
 594 530 594 530 636 473 c 128,-1,51
 678 416 678 416 678 348 c 0,52,53
 678 194 678 194 506 76 c 128,-1,54
 334 -42 334 -42 154 -42 c 0,0,1
EndSplineSet
Substitution2: "'onum' Oldstyle Figures lookup 3 subtable" uniE005
Substitution2: "'subs' Subscript lookup 0 subtable" uni2085
EndChar

StartChar: six
Encoding: 54 54 25
Width: 628
VWidth: 2000
GlyphClass: 2
Flags: W
LayerCount: 2
Fore
SplineSet
602 288 m 0,0,1
 602 398 602 398 464 398 c 128,-1,2
 326 398 326 398 158 200 c 1,3,4
 148 164 148 164 148 117 c 128,-1,5
 148 70 148 70 181 38 c 128,-1,6
 214 6 214 6 262 6 c 0,7,8
 388 6 388 6 495 99 c 128,-1,9
 602 192 602 192 602 288 c 0,0,1
532 446 m 0,10,11
 682 446 682 446 682 332 c 0,12,13
 682 214 682 214 524 86 c 128,-1,14
 366 -42 366 -42 188 -42 c 0,15,16
 142 -42 142 -42 105 -8 c 128,-1,17
 68 26 68 26 68 76 c 0,18,19
 68 216 68 216 208 388 c 128,-1,20
 348 560 348 560 556 699 c 128,-1,21
 764 838 764 838 966 900 c 0,22,23
 970 902 970 902 975 902 c 128,-1,24
 980 902 980 902 980 900 c 0,25,26
 980 894 980 894 953 869 c 128,-1,27
 926 844 926 844 910 838 c 0,28,29
 690 766 690 766 480 606 c 128,-1,30
 270 446 270 446 188 276 c 1,31,32
 252 334 252 334 347 390 c 128,-1,33
 442 446 442 446 532 446 c 0,10,11
EndSplineSet
Substitution2: "'onum' Oldstyle Figures lookup 3 subtable" uniE006
Substitution2: "'subs' Subscript lookup 0 subtable" uni2086
EndChar

StartChar: seven
Encoding: 55 55 26
Width: 620
VWidth: 2000
GlyphClass: 2
Flags: W
LayerCount: 2
Fore
SplineSet
590 762 m 0,0,1
 338 762 338 762 338 804 c 0,2,3
 338 810 338 810 349 826 c 128,-1,4
 360 842 360 842 373 867 c 128,-1,5
 386 892 386 892 390 892 c 128,-1,6
 394 892 394 892 394 888 c 0,7,8
 394 856 394 856 478 842 c 128,-1,9
 562 828 562 828 627 828 c 128,-1,10
 692 828 692 828 800 839 c 128,-1,11
 908 850 908 850 934 869 c 128,-1,12
 960 888 960 888 965 888 c 128,-1,13
 970 888 970 888 970 877 c 128,-1,14
 970 866 970 866 811 713 c 128,-1,15
 652 560 652 560 516 404 c 1,16,-1
 694 404 l 2,17,18
 702 404 702 404 702 398 c 0,19,20
 702 380 702 380 494 380 c 1,21,22
 354 216 354 216 208 -4 c 0,23,24
 202 -14 202 -14 185 -17 c 128,-1,25
 168 -20 168 -20 159 -24 c 128,-1,26
 150 -28 150 -28 131 -43 c 128,-1,27
 112 -58 112 -58 104 -58 c 128,-1,28
 96 -58 96 -58 96 -50 c 128,-1,29
 96 -42 96 -42 108 -26 c 0,30,31
 304 226 304 226 446 376 c 1,32,33
 400 374 400 374 360 370 c 2,34,-1
 304 364 l 2,35,36
 284 362 284 362 275 362 c 128,-1,37
 266 362 266 362 266 366 c 128,-1,38
 266 370 266 370 276 384 c 0,39,40
 292 404 292 404 302 404 c 2,41,-1
 472 404 l 1,42,-1
 856 792 l 1,43,44
 736 762 736 762 590 762 c 0,0,1
EndSplineSet
Substitution2: "'onum' Oldstyle Figures lookup 3 subtable" uniE007
Substitution2: "'subs' Subscript lookup 0 subtable" uni2087
EndChar

StartChar: eight
Encoding: 56 56 27
Width: 660
VWidth: 2000
GlyphClass: 2
Flags: W
LayerCount: 2
Fore
SplineSet
484 482 m 1,0,1
 144 314 144 314 144 152 c 0,2,3
 144 104 144 104 184 66 c 128,-1,4
 224 28 224 28 340 28 c 128,-1,5
 456 28 456 28 545 102 c 128,-1,6
 634 176 634 176 634 256 c 0,7,8
 634 304 634 304 615 338 c 128,-1,9
 596 372 596 372 544 424 c 2,10,11
 484 482 l 1,0,1
678 644 m 1,12,-1
 698 640 l 1,13,14
 724 640 724 640 756 686 c 128,-1,15
 788 732 788 732 788 769 c 128,-1,16
 788 806 788 806 767 830 c 128,-1,17
 746 854 746 854 684 854 c 128,-1,18
 622 854 622 854 552 792 c 128,-1,19
 482 730 482 730 482 666 c 128,-1,20
 482 602 482 602 546 542 c 1,21,22
 578 552 578 552 624 572 c 2,23,-1
 700 604 l 2,24,25
 732 618 732 618 737 618 c 128,-1,26
 742 618 742 618 742 616 c 0,27,28
 742 608 742 608 560 528 c 1,29,-1
 592 496 l 2,30,31
 672 416 672 416 685 379 c 128,-1,32
 698 342 698 342 698 316 c 0,33,34
 698 204 698 204 565 90 c 128,-1,35
 432 -24 432 -24 272 -24 c 0,36,37
 176 -24 176 -24 116 20 c 128,-1,38
 56 64 56 64 56 132 c 0,39,40
 56 218 56 218 114 276 c 2,41,-1
 170 332 l 2,42,43
 194 356 194 356 246 384 c 2,44,-1
 320 426 l 2,45,46
 342 438 342 438 402 468 c 2,47,-1
 470 500 l 1,48,49
 464 512 464 512 452 524 c 128,-1,50
 440 536 440 536 433 549 c 128,-1,51
 426 562 426 562 422 572 c 0,52,53
 412 594 412 594 412 624 c 0,54,55
 412 720 412 720 536 803 c 128,-1,56
 660 886 660 886 754 886 c 0,57,58
 810 886 810 886 843 863 c 128,-1,59
 876 840 876 840 876 802 c 0,60,61
 876 738 876 738 808 682 c 128,-1,62
 740 626 740 626 680 626 c 0,63,64
 666 626 666 626 666 635 c 128,-1,65
 666 644 666 644 678 644 c 1,12,-1
EndSplineSet
Substitution2: "'onum' Oldstyle Figures lookup 3 subtable" uniE008
Substitution2: "'subs' Subscript lookup 0 subtable" uni2088
EndChar

StartChar: nine
Encoding: 57 57 28
Width: 634
VWidth: 2000
GlyphClass: 2
Flags: W
LayerCount: 2
Fore
SplineSet
254 266 m 2,0,-1
 236 268 l 1,1,2
 204 268 204 268 179 225 c 128,-1,3
 154 182 154 182 154 129 c 128,-1,4
 154 76 154 76 192 42 c 128,-1,5
 230 8 230 8 290 8 c 128,-1,6
 350 8 350 8 397 39 c 128,-1,7
 444 70 444 70 488 134 c 0,8,9
 558 240 558 240 668 478 c 0,10,11
 678 502 678 502 684 514 c 1,12,13
 596 470 596 470 516 470 c 0,14,15
 340 470 340 470 340 596 c 0,16,17
 340 696 340 696 453 791 c 128,-1,18
 566 886 566 886 718 886 c 0,19,20
 768 886 768 886 810 855 c 128,-1,21
 852 824 852 824 852 764 c 0,22,23
 852 692 852 692 776 556 c 0,24,25
 754 518 754 518 716 443 c 128,-1,26
 678 368 678 368 613 265 c 128,-1,27
 548 162 548 162 501 106 c 128,-1,28
 454 50 454 50 405 20 c 128,-1,29
 356 -10 356 -10 324 -17 c 128,-1,30
 292 -24 292 -24 232 -24 c 128,-1,31
 172 -24 172 -24 123 17 c 128,-1,32
 74 58 74 58 74 120 c 0,33,34
 74 242 74 242 170 258 c 0,35,36
 188 262 188 262 213 271 c 128,-1,37
 238 280 238 280 249 280 c 128,-1,38
 260 280 260 280 260 273 c 128,-1,39
 260 266 260 266 254 266 c 2,0,-1
644 852 m 0,40,41
 556 852 556 852 485 782 c 128,-1,42
 414 712 414 712 414 620 c 0,43,44
 414 562 414 562 454 532 c 128,-1,45
 494 502 494 502 567 502 c 128,-1,46
 640 502 640 502 698 550 c 1,47,48
 760 694 760 694 760 738 c 128,-1,49
 760 782 760 782 729 817 c 128,-1,50
 698 852 698 852 644 852 c 0,40,41
EndSplineSet
Substitution2: "'onum' Oldstyle Figures lookup 3 subtable" uniE009
Substitution2: "'subs' Subscript lookup 0 subtable" uni2089
EndChar

StartChar: colon
Encoding: 58 58 29
Width: 404
VWidth: 2000
GlyphClass: 2
Flags: W
LayerCount: 2
Fore
SplineSet
326 324 m 0,0,1
 286 324 286 324 286 358 c 128,-1,2
 286 392 286 392 313 422 c 128,-1,3
 340 452 340 452 374 452 c 128,-1,4
 408 452 408 452 408 416 c 0,5,6
 408 386 408 386 378 355 c 128,-1,7
 348 324 348 324 326 324 c 0,0,1
152 -8 m 0,8,9
 112 -8 112 -8 112 26 c 128,-1,10
 112 60 112 60 139 90 c 128,-1,11
 166 120 166 120 200 120 c 128,-1,12
 234 120 234 120 234 84 c 0,13,14
 234 54 234 54 204 23 c 128,-1,15
 174 -8 174 -8 152 -8 c 0,8,9
EndSplineSet
EndChar

StartChar: semicolon
Encoding: 59 59 30
Width: 454
VWidth: 2000
GlyphClass: 2
Flags: W
LayerCount: 2
Fore
SplineSet
248 276 m 0,0,1
 208 276 208 276 208 310 c 128,-1,2
 208 344 208 344 235 374 c 128,-1,3
 262 404 262 404 296 404 c 128,-1,4
 330 404 330 404 330 368 c 0,5,6
 330 338 330 338 300 307 c 128,-1,7
 270 276 270 276 248 276 c 0,0,1
160 84 m 0,8,9
 200 84 200 84 200 11 c 128,-1,10
 200 -62 200 -62 146 -127 c 128,-1,11
 92 -192 92 -192 40 -230 c 128,-1,12
 -12 -268 -12 -268 -20 -268 c 128,-1,13
 -28 -268 -28 -268 -28 -265 c 128,-1,14
 -28 -262 -28 -262 10 -232 c 0,15,16
 126 -144 126 -144 126 -56 c 0,17,18
 126 -24 126 -24 115 11 c 128,-1,19
 104 46 104 46 104 53 c 128,-1,20
 104 60 104 60 128 72 c 128,-1,21
 152 84 152 84 160 84 c 0,8,9
EndSplineSet
EndChar

StartChar: less
Encoding: 60 60 31
Width: 490
VWidth: 2000
GlyphClass: 2
Flags: W
LayerCount: 2
Fore
SplineSet
544 594 m 1,0,1
 254 366 254 366 245 353 c 128,-1,2
 236 340 236 340 236 328 c 128,-1,3
 236 316 236 316 303 209 c 128,-1,4
 370 102 370 102 370 96 c 128,-1,5
 370 90 370 90 364 88 c 0,6,7
 344 80 344 80 330 73 c 128,-1,8
 316 66 316 66 309 66 c 128,-1,9
 302 66 302 66 239 174 c 128,-1,10
 176 282 176 282 176 305 c 128,-1,11
 176 328 176 328 206 352 c 1,12,13
 250 382 250 382 336 450 c 2,14,-1
 484 568 l 2,15,16
 548 618 548 618 553 618 c 128,-1,17
 558 618 558 618 558 609 c 128,-1,18
 558 600 558 600 544 594 c 1,0,1
EndSplineSet
EndChar

StartChar: equal
Encoding: 61 61 32
Width: 806
VWidth: 2000
GlyphClass: 2
Flags: W
LayerCount: 2
Fore
SplineSet
216 334 m 2,0,-1
 578 326 l 1,1,-1
 758 330 l 2,2,3
 762 330 762 330 762 328 c 128,-1,4
 762 326 762 326 761 324 c 128,-1,5
 760 322 760 322 757 317 c 128,-1,6
 754 312 754 312 752 306 c 2,7,-1
 740 280 l 1,8,-1
 364 288 l 1,9,-1
 188 284 l 2,10,11
 184 284 184 284 184 286 c 128,-1,12
 184 288 184 288 188 292 c 0,13,14
 196 300 196 300 205 317 c 128,-1,15
 214 334 214 334 216 334 c 2,0,-1
270 452 m 2,16,-1
 632 444 l 1,17,-1
 812 448 l 2,18,19
 816 448 816 448 816 446 c 128,-1,20
 816 444 816 444 815 442 c 128,-1,21
 814 440 814 440 811 435 c 128,-1,22
 808 430 808 430 806 424 c 2,23,-1
 794 398 l 1,24,-1
 418 406 l 1,25,-1
 242 402 l 2,26,27
 238 402 238 402 238 404 c 128,-1,28
 238 406 238 406 240 408 c 0,29,30
 250 418 250 418 259 435 c 128,-1,31
 268 452 268 452 270 452 c 2,16,-1
EndSplineSet
EndChar

StartChar: greater
Encoding: 62 62 33
Width: 490
VWidth: 2000
GlyphClass: 2
Flags: W
LayerCount: 2
Fore
SplineSet
118 90 m 1,0,1
 408 318 408 318 417 331 c 128,-1,2
 426 344 426 344 426 356 c 128,-1,3
 426 368 426 368 359 475 c 128,-1,4
 292 582 292 582 292 588 c 128,-1,5
 292 594 292 594 296 596 c 0,6,7
 318 604 318 604 332 611 c 128,-1,8
 346 618 346 618 353 618 c 128,-1,9
 360 618 360 618 423 510 c 128,-1,10
 486 402 486 402 486 379 c 128,-1,11
 486 356 486 356 456 332 c 1,12,13
 412 302 412 302 326 234 c 2,14,-1
 176 116 l 2,15,16
 114 66 114 66 109 66 c 128,-1,17
 104 66 104 66 104 75 c 128,-1,18
 104 84 104 84 118 90 c 1,0,1
EndSplineSet
EndChar

StartChar: question
Encoding: 63 63 34
Width: 518
VWidth: 2000
GlyphClass: 2
Flags: W
LayerCount: 2
Fore
SplineSet
622 808 m 128,-1,1
 588 838 588 838 544 838 c 128,-1,2
 500 838 500 838 458 817 c 128,-1,3
 416 796 416 796 388 775 c 128,-1,4
 360 754 360 754 354 754 c 128,-1,5
 348 754 348 754 348 758 c 128,-1,6
 348 762 348 762 354 768 c 0,7,8
 492 886 492 886 610 886 c 0,9,10
 666 886 666 886 700 855 c 128,-1,11
 734 824 734 824 734 779 c 128,-1,12
 734 734 734 734 720 707 c 128,-1,13
 706 680 706 680 674 655 c 128,-1,14
 642 630 642 630 622 617 c 128,-1,15
 602 604 602 604 554 580 c 2,16,17
 498 552 l 1,18,19
 464 532 464 532 454 527 c 128,-1,20
 444 522 444 522 410 500 c 128,-1,21
 376 478 376 478 362 464 c 0,22,23
 318 416 318 416 318 386 c 0,24,25
 318 344 318 344 374 272 c 1,26,-1
 392 250 l 1,27,28
 392 240 392 240 371 235 c 128,-1,29
 350 230 350 230 336 225 c 128,-1,30
 322 220 322 220 312 220 c 128,-1,31
 302 220 302 220 275 267 c 128,-1,32
 248 314 248 314 248 351 c 128,-1,33
 248 388 248 388 291 433 c 128,-1,34
 334 478 334 478 373 503 c 128,-1,35
 412 528 412 528 452 550 c 2,36,-1
 572 614 l 2,37,38
 626 644 626 644 641 675 c 128,-1,39
 656 706 656 706 656 742 c 128,-1,0
 656 778 656 778 622 808 c 128,-1,1
164 -8 m 0,40,41
 124 -8 124 -8 124 26 c 128,-1,42
 124 60 124 60 151 90 c 128,-1,43
 178 120 178 120 212 120 c 128,-1,44
 246 120 246 120 246 84 c 0,45,46
 246 54 246 54 216 23 c 128,-1,47
 186 -8 186 -8 164 -8 c 0,40,41
EndSplineSet
EndChar

StartChar: at
Encoding: 64 64 35
Width: 926
VWidth: 2000
GlyphClass: 2
Flags: W
LayerCount: 2
Fore
SplineSet
600 288 m 1,0,1
 634 404 634 404 726 510 c 1,2,3
 710 558 710 558 647 558 c 128,-1,4
 584 558 584 558 514 468 c 128,-1,5
 444 378 444 378 444 308 c 128,-1,6
 444 238 444 238 486 238 c 0,7,8
 522 238 522 238 600 288 c 1,0,1
712 230 m 0,9,10
 822 230 822 230 889 335 c 128,-1,11
 956 440 956 440 956 536 c 128,-1,12
 956 632 956 632 875 693 c 128,-1,13
 794 754 794 754 694 754 c 0,14,15
 472 754 472 754 343 608 c 128,-1,16
 214 462 214 462 214 272 c 0,17,18
 214 158 214 158 289 84 c 128,-1,19
 364 10 364 10 464 10 c 0,20,21
 712 10 712 10 852 140 c 0,22,23
 884 168 884 168 898 168 c 128,-1,24
 912 168 912 168 912 166 c 2,25,-1
 892 144 l 1,26,27
 878 132 878 132 832 98 c 128,-1,28
 786 64 786 64 734 38 c 128,-1,29
 682 12 682 12 599 -9 c 128,-1,30
 516 -30 516 -30 415 -30 c 128,-1,31
 314 -30 314 -30 231 49 c 128,-1,32
 148 128 148 128 148 236 c 0,33,34
 148 396 148 396 241 527 c 128,-1,35
 334 658 334 658 471 726 c 128,-1,36
 608 794 608 794 731 794 c 128,-1,37
 854 794 854 794 938 732 c 128,-1,38
 1022 670 1022 670 1022 566 c 0,39,40
 1022 430 1022 430 911 310 c 128,-1,41
 800 190 800 190 664 190 c 0,42,43
 632 190 632 190 612 207 c 128,-1,44
 592 224 592 224 592 238 c 128,-1,45
 592 252 592 252 593 257 c 128,-1,46
 594 262 594 262 594 264 c 1,47,48
 512 208 512 208 464 208 c 128,-1,49
 416 208 416 208 393 232 c 128,-1,50
 370 256 370 256 370 292 c 0,51,52
 370 390 370 390 460 478 c 128,-1,53
 550 566 550 566 638 566 c 128,-1,54
 726 566 726 566 742 524 c 1,55,56
 756 538 756 538 775 546 c 128,-1,57
 794 554 794 554 807 554 c 128,-1,58
 820 554 820 554 820 550 c 128,-1,59
 820 546 820 546 790 516 c 128,-1,60
 760 486 760 486 713 407 c 128,-1,61
 666 328 666 328 666 270 c 0,62,63
 666 254 666 254 679 242 c 128,-1,64
 692 230 692 230 712 230 c 0,9,10
EndSplineSet
EndChar

StartChar: A
Encoding: 65 65 36
Width: 980
VWidth: 2000
GlyphClass: 2
Flags: W
AnchorPoint: "Anchor-5" 940 1000 basechar 0
AnchorPoint: "Anchor-4" 790 0 basechar 0
AnchorPoint: "Anchor-3" 356 -100 basechar 0
LayerCount: 2
Fore
SplineSet
404 342 m 1,0,-1
 438 342 l 2,1,2
 478 342 478 342 555 330 c 128,-1,3
 632 318 632 318 661 318 c 128,-1,4
 690 318 690 318 706 320 c 1,5,6
 734 524 734 524 798 772 c 1,7,-1
 806 802 l 2,8,9
 806 808 806 808 804 808 c 0,10,11
 796 808 796 808 776 780 c 1,12,-1
 404 342 l 1,0,-1
16 -6 m 1,13,-1
 -38 -14 l 2,14,15
 -50 -14 -50 -14 -50 -5 c 128,-1,16
 -50 4 -50 4 -23 12 c 128,-1,17
 4 20 4 20 30 44 c 0,18,19
 350 322 350 322 746 784 c 1,20,-1
 772 816 l 2,21,22
 784 828 784 828 795 837 c 128,-1,23
 806 846 806 846 810 851 c 128,-1,24
 814 856 814 856 825 862 c 128,-1,25
 836 868 836 868 839 869 c 128,-1,26
 842 870 842 870 856 876 c 128,-1,27
 870 882 870 882 875 884 c 128,-1,28
 880 886 880 886 897 894 c 128,-1,29
 914 902 914 902 921 902 c 128,-1,30
 928 902 928 902 928 894 c 2,31,-1
 928 892 l 2,32,33
 928 882 928 882 917 857 c 128,-1,34
 906 832 906 832 906 830 c 0,35,36
 832 634 832 634 792 332 c 1,37,38
 858 350 858 350 896 379 c 128,-1,39
 934 408 934 408 938 408 c 128,-1,40
 942 408 942 408 942 402 c 128,-1,41
 942 396 942 396 920 380 c 0,42,43
 858 330 858 330 790 314 c 1,44,45
 780 228 780 228 780 178 c 0,46,47
 780 26 780 26 844 26 c 0,48,49
 916 26 916 26 1050 142 c 0,50,51
 1116 200 1116 200 1134 227 c 128,-1,52
 1152 254 1152 254 1156 254 c 128,-1,53
 1160 254 1160 254 1160 251 c 128,-1,54
 1160 248 1160 248 1158 244 c 0,55,56
 1060 114 1060 114 926 36 c 0,57,58
 850 -8 850 -8 789 -8 c 128,-1,59
 728 -8 728 -8 710 29 c 128,-1,60
 692 66 692 66 692 146 c 128,-1,61
 692 226 692 226 702 296 c 1,62,63
 612 286 612 286 576 286 c 128,-1,64
 540 286 540 286 474 297 c 128,-1,65
 408 308 408 308 393 308 c 128,-1,66
 378 308 378 308 372 306 c 1,67,68
 180 86 180 86 102 22 c 1,69,70
 72 0 72 0 16 -6 c 1,13,-1
EndSplineSet
EndChar

StartChar: B
Encoding: 66 66 37
Width: 900
VWidth: 2000
GlyphClass: 2
Flags: W
AnchorPoint: "Anchor-5" 868 1000 basechar 0
AnchorPoint: "Anchor-3" 396 -100 basechar 0
LayerCount: 2
Fore
SplineSet
342 158 m 2,0,-1
 336 146 l 1,1,2
 336 90 336 90 385 45 c 128,-1,3
 434 0 434 0 502 0 c 0,4,5
 600 0 600 0 705 107 c 128,-1,6
 810 214 810 214 810 370 c 1,7,8
 808 416 808 416 782 446 c 128,-1,9
 756 476 756 476 710 476 c 128,-1,10
 664 476 664 476 624 459 c 128,-1,11
 584 442 584 442 576 442 c 0,12,13
 574 442 574 442 563 453 c 128,-1,14
 552 464 552 464 552 469 c 128,-1,15
 552 474 552 474 564 477 c 128,-1,16
 576 480 576 480 592 482 c 0,17,18
 674 492 674 492 754 586 c 128,-1,19
 834 680 834 680 834 762 c 0,20,21
 834 798 834 798 807 820 c 128,-1,22
 780 842 780 842 738 842 c 0,23,24
 574 842 574 842 284 258 c 0,25,26
 182 50 182 50 126 -110 c 0,27,28
 120 -122 120 -122 113 -123 c 128,-1,29
 106 -124 106 -124 82 -132 c 2,30,-1
 44 -146 l 1,31,32
 36 -146 36 -146 36 -138 c 128,-1,33
 36 -130 36 -130 238 260 c 0,34,35
 560 886 560 886 812 886 c 0,36,37
 858 886 858 886 892 864 c 128,-1,38
 926 842 926 842 926 796 c 0,39,40
 926 698 926 698 839 606 c 128,-1,41
 752 514 752 514 660 486 c 1,42,43
 720 492 720 492 736 492 c 0,44,45
 900 492 900 492 900 340 c 0,46,47
 900 220 900 220 742 86 c 0,48,49
 612 -24 612 -24 448 -24 c 0,50,51
 372 -24 372 -24 319 22 c 128,-1,52
 266 68 266 68 266 124 c 0,53,54
 266 128 266 128 272 130 c 128,-1,55
 278 132 278 132 289 136 c 128,-1,56
 300 140 300 140 308 144 c 128,-1,57
 316 148 316 148 322 152 c 128,-1,58
 328 156 328 156 330 158 c 0,59,60
 334 162 334 162 338 162 c 128,-1,61
 342 162 342 162 342 158 c 2,0,-1
EndSplineSet
EndChar

StartChar: C
Encoding: 67 67 38
Width: 860
VWidth: 2000
GlyphClass: 2
Flags: W
AnchorPoint: "Anchor-5" 850 1000 basechar 0
AnchorPoint: "Anchor-4" 414 0 basechar 0
LayerCount: 2
Fore
SplineSet
971 777 m 128,-1,1
 950 756 950 756 944 746 c 128,-1,2
 938 736 938 736 933 736 c 128,-1,3
 928 736 928 736 928 744 c 0,4,5
 928 778 928 778 882 810 c 128,-1,6
 836 842 836 842 784 842 c 0,7,8
 684 842 684 842 592 788 c 1,9,10
 452 696 452 696 354 545 c 128,-1,11
 256 394 256 394 256 228 c 0,12,13
 256 136 256 136 313 72 c 128,-1,14
 370 8 370 8 456 8 c 0,15,16
 724 8 724 8 790 216 c 0,17,18
 796 240 796 240 802 240 c 0,19,20
 812 240 812 240 823 223 c 128,-1,21
 834 206 834 206 834 187 c 128,-1,22
 834 168 834 168 791 120 c 128,-1,23
 748 72 748 72 647 24 c 128,-1,24
 546 -24 546 -24 428 -24 c 128,-1,25
 310 -24 310 -24 235 50 c 128,-1,26
 160 124 160 124 160 234 c 0,27,28
 160 390 160 390 281 551 c 128,-1,29
 402 712 402 712 578 810 c 1,30,31
 710 886 710 886 848 886 c 0,32,33
 894 886 894 886 930 868 c 128,-1,34
 966 850 966 850 979 833 c 128,-1,35
 992 816 992 816 992 807 c 128,-1,0
 992 798 992 798 971 777 c 128,-1,1
EndSplineSet
EndChar

StartChar: D
Encoding: 68 68 39
Width: 1194
VWidth: 2000
GlyphClass: 2
Flags: W
AnchorPoint: "Anchor-5" 916 1060 basechar 0
AnchorPoint: "Anchor-4" 716 0 basechar 0
AnchorPoint: "Anchor-3" 456 -100 basechar 0
LayerCount: 2
Fore
SplineSet
480 186 m 1,0,1
 450 226 450 226 439 242 c 128,-1,2
 428 258 428 258 404 277 c 128,-1,3
 380 296 380 296 360 296 c 0,4,5
 300 296 300 296 243 222 c 128,-1,6
 186 148 186 148 186 90 c 0,7,8
 186 26 186 26 266 26 c 0,9,10
 308 26 308 26 366 65 c 128,-1,11
 424 104 424 104 480 186 c 1,0,1
558 240 m 1,12,13
 568 222 568 222 586 183 c 128,-1,14
 604 144 604 144 618 118 c 128,-1,15
 632 92 632 92 654 64 c 0,16,17
 700 6 700 6 778 6 c 0,18,19
 946 6 946 6 1058 168 c 128,-1,20
 1170 330 1170 330 1170 516 c 0,21,22
 1170 800 1170 800 904 854 c 1,23,24
 692 428 692 428 558 240 c 1,12,13
498 162 m 1,25,26
 344 -16 344 -16 226 -16 c 0,27,28
 130 -16 130 -16 130 56 c 0,29,30
 130 140 130 140 237 246 c 128,-1,31
 344 352 344 352 428 352 c 0,32,33
 480 352 480 352 534 276 c 1,34,35
 720 608 720 608 822 866 c 1,36,37
 802 868 802 868 760 868 c 0,38,39
 632 868 632 868 512 787 c 128,-1,40
 392 706 392 706 392 614 c 0,41,42
 392 602 392 602 398 586 c 0,43,44
 398 582 398 582 391 582 c 128,-1,45
 384 582 384 582 372 594 c 2,46,-1
 356 610 l 2,47,48
 352 614 352 614 348 616 c 128,-1,49
 344 618 344 618 340 620 c 1,50,51
 336 626 336 626 336 636 c 0,52,53
 336 738 336 738 475 812 c 128,-1,54
 614 886 614 886 766 886 c 0,55,56
 810 886 810 886 830 884 c 1,57,58
 840 908 840 908 840 928 c 0,59,60
 840 1006 840 1006 740 1006 c 0,61,62
 688 1006 688 1006 648 980 c 128,-1,63
 608 954 608 954 604 954 c 128,-1,64
 600 954 600 954 600 959 c 128,-1,65
 600 964 600 964 622 980 c 128,-1,66
 644 996 644 996 687 1013 c 128,-1,67
 730 1030 730 1030 779 1030 c 128,-1,68
 828 1030 828 1030 874 1007 c 128,-1,69
 920 984 920 984 920 926 c 0,70,71
 920 904 920 904 910 874 c 1,72,73
 1256 818 1256 818 1256 468 c 0,74,75
 1256 274 1256 274 1115 127 c 128,-1,76
 974 -20 974 -20 780 -20 c 0,77,78
 726 -20 726 -20 688 -10 c 128,-1,79
 650 0 650 0 612 34 c 128,-1,80
 574 68 574 68 560 84 c 128,-1,81
 546 100 546 100 498 162 c 1,25,26
EndSplineSet
EndChar

StartChar: E
Encoding: 69 69 40
Width: 834
VWidth: 2000
GlyphClass: 2
Flags: W
AnchorPoint: "Anchor-5" 844 1000 basechar 0
AnchorPoint: "Anchor-4" 432 0 basechar 0
AnchorPoint: "Anchor-3" 356 -100 basechar 0
LayerCount: 2
Fore
SplineSet
778 250 m 1,0,-1
 774 276 l 2,1,2
 774 282 774 282 778 282 c 1,3,-1
 802 266 l 2,4,5
 818 254 818 254 818 244 c 0,6,7
 818 170 818 170 707 73 c 128,-1,8
 596 -24 596 -24 430 -24 c 0,9,10
 330 -24 330 -24 244 36 c 128,-1,11
 158 96 158 96 158 184 c 128,-1,12
 158 272 158 272 199 337 c 128,-1,13
 240 402 240 402 299 439 c 128,-1,14
 358 476 358 476 416 501 c 128,-1,15
 474 526 474 526 515 538 c 128,-1,16
 556 550 556 550 556 554 c 0,17,18
 556 562 556 562 544 570 c 0,19,20
 484 610 484 610 484 682 c 128,-1,21
 484 754 484 754 564 820 c 128,-1,22
 644 886 644 886 782 886 c 0,23,24
 840 886 840 886 917 866 c 128,-1,25
 994 846 994 846 994 806 c 0,26,27
 994 796 994 796 983 778 c 128,-1,28
 972 760 972 760 965 745 c 128,-1,29
 958 730 958 730 954 730 c 128,-1,30
 950 730 950 730 946 742 c 0,31,32
 934 782 934 782 885 822 c 128,-1,33
 836 862 836 862 766 862 c 128,-1,34
 696 862 696 862 651 849 c 128,-1,35
 606 836 606 836 588 814 c 0,36,37
 552 774 552 774 552 736 c 128,-1,38
 552 698 552 698 573 658 c 128,-1,39
 594 618 594 618 628 600 c 1,40,41
 668 582 668 582 668 576 c 0,42,43
 668 540 668 540 626 536 c 0,44,45
 408 512 408 512 328 404 c 1,46,47
 258 314 258 314 258 212 c 128,-1,48
 258 110 258 110 326 64 c 128,-1,49
 394 18 394 18 474 18 c 0,50,51
 612 18 612 18 695 89 c 128,-1,52
 778 160 778 160 778 250 c 1,0,-1
EndSplineSet
EndChar

StartChar: F
Encoding: 70 70 41
Width: 768
VWidth: 2000
GlyphClass: 2
Flags: W
AnchorPoint: "Anchor-5" 748 1060 basechar 0
LayerCount: 2
Fore
SplineSet
726 830 m 1,0,1
 678 698 678 698 542 444 c 1,2,-1
 732 452 l 2,3,4
 736 452 736 452 736 448 c 128,-1,5
 736 444 736 444 720 432 c 128,-1,6
 704 420 704 420 696 416 c 0,7,8
 672 404 672 404 520 404 c 1,9,10
 348 86 348 86 286 -2 c 0,11,12
 270 -22 270 -22 238 -25 c 128,-1,13
 206 -28 206 -28 156 -28 c 2,14,-1
 148 -28 l 2,15,16
 142 -28 142 -28 142 -22 c 0,17,18
 142 -20 142 -20 148 -18 c 0,19,20
 172 -12 172 -12 192 16 c 0,21,22
 304 172 304 172 434 402 c 1,23,24
 304 402 304 402 260 382 c 0,25,26
 250 378 250 378 247 378 c 128,-1,27
 244 378 244 378 244 380 c 0,28,29
 244 392 244 392 282 410 c 0,30,31
 342 442 342 442 456 442 c 1,32,33
 594 696 594 696 640 828 c 1,34,35
 538 828 538 828 458 817 c 128,-1,36
 378 806 378 806 354 797 c 128,-1,37
 330 788 330 788 317 780 c 128,-1,38
 304 772 304 772 299 767 c 128,-1,39
 294 762 294 762 290 762 c 128,-1,40
 286 762 286 762 286 768 c 128,-1,41
 286 774 286 774 318 806 c 128,-1,42
 350 838 350 838 426 852 c 128,-1,43
 502 866 502 866 654 870 c 1,44,45
 668 914 668 914 668 948 c 0,46,47
 668 1066 668 1066 570 1066 c 0,48,49
 512 1066 512 1066 454 1016 c 0,50,51
 440 1002 440 1002 436 1002 c 128,-1,52
 432 1002 432 1002 432 1006 c 128,-1,53
 432 1010 432 1010 448 1026 c 0,54,55
 512 1086 512 1086 586 1086 c 0,56,57
 752 1086 752 1086 752 938 c 0,58,59
 752 904 752 904 742 872 c 1,60,61
 916 876 916 876 1010 887 c 128,-1,62
 1104 898 1104 898 1122 898 c 2,63,-1
 1130 898 l 2,64,65
 1142 898 1142 898 1142 895 c 128,-1,66
 1142 892 1142 892 1136 888 c 0,67,68
 1088 856 1088 856 992 845 c 128,-1,69
 896 834 896 834 726 830 c 1,0,1
EndSplineSet
EndChar

StartChar: G
Encoding: 71 71 42
Width: 1110
VWidth: 2000
GlyphClass: 2
Flags: W
AnchorPoint: "Anchor-5" 1030 1000 basechar 0
AnchorPoint: "Anchor-3" 120 -940 basechar 0
LayerCount: 2
Fore
SplineSet
734 -88 m 1,0,1
 486 -130 486 -130 392 -168 c 0,2,3
 236 -232 236 -232 163 -347 c 128,-1,4
 90 -462 90 -462 90 -596 c 0,5,6
 90 -790 90 -790 224 -790 c 0,7,8
 372 -790 372 -790 470 -620 c 0,9,10
 580 -428 580 -428 734 -88 c 1,0,1
1044 724 m 2,11,-1
 1046 758 l 1,12,13
 1046 798 1046 798 1017 832 c 128,-1,14
 988 866 988 866 936 866 c 0,15,16
 850 866 850 866 713 788 c 128,-1,17
 576 710 576 710 479 613 c 128,-1,18
 382 516 382 516 317 393 c 128,-1,19
 252 270 252 270 251 182 c 128,-1,20
 250 94 250 94 288 48 c 128,-1,21
 326 2 326 2 388 2 c 0,22,23
 490 2 490 2 640 98 c 128,-1,24
 790 194 790 194 904 300 c 0,25,26
 940 336 940 336 1019 473 c 128,-1,27
 1098 610 1098 610 1133 690 c 128,-1,28
 1168 770 1168 770 1179 770 c 128,-1,29
 1190 770 1190 770 1221 752 c 128,-1,30
 1252 734 1252 734 1252 710 c 128,-1,31
 1252 686 1252 686 1215 619 c 128,-1,32
 1178 552 1178 552 1142 511 c 128,-1,33
 1106 470 1106 470 1084 435 c 128,-1,34
 1062 400 1062 400 1050 379 c 128,-1,35
 1038 358 1038 358 1015 311 c 128,-1,36
 992 264 992 264 986 254 c 2,37,-1
 828 -50 l 1,38,39
 1020 4 1020 4 1180 142 c 0,40,41
 1246 200 1246 200 1264 227 c 128,-1,42
 1282 254 1282 254 1286 254 c 128,-1,43
 1290 254 1290 254 1290 251 c 128,-1,44
 1290 248 1290 248 1288 244 c 0,45,46
 1190 114 1190 114 1059 38 c 128,-1,47
 928 -38 928 -38 816 -70 c 1,48,49
 802 -96 802 -96 735 -241 c 128,-1,50
 668 -386 668 -386 620 -465 c 128,-1,51
 572 -544 572 -544 542 -586 c 128,-1,52
 512 -628 512 -628 460 -688 c 0,53,54
 354 -808 354 -808 222 -808 c 0,55,56
 128 -808 128 -808 71 -740 c 128,-1,57
 14 -672 14 -672 14 -568 c 0,58,59
 16 -420 16 -420 136 -307 c 128,-1,60
 256 -194 256 -194 414 -140 c 0,61,62
 504 -110 504 -110 742 -68 c 1,63,64
 810 74 810 74 912 262 c 1,65,66
 790 162 790 162 639 70 c 128,-1,67
 488 -22 488 -22 391 -22 c 128,-1,68
 294 -22 294 -22 229 31 c 128,-1,69
 164 84 164 84 164 180 c 0,70,71
 164 340 164 340 284 497 c 128,-1,72
 404 654 404 654 595 769 c 128,-1,73
 786 884 786 884 960 884 c 0,74,75
 998 884 998 884 1050 865 c 128,-1,76
 1102 846 1102 846 1102 814 c 0,77,78
 1102 810 1102 810 1098 804 c 2,79,-1
 1088 784 l 2,80,81
 1082 774 1082 774 1078 766 c 2,82,-1
 1056 718 l 1,83,84
 1044 718 1044 718 1044 724 c 2,11,-1
EndSplineSet
EndChar

StartChar: H
Encoding: 72 72 43
Width: 1044
VWidth: 2000
GlyphClass: 2
Flags: W
AnchorPoint: "Anchor-5" 838 1000 basechar 0
AnchorPoint: "Anchor-4" 138 0 basechar 0
AnchorPoint: "Anchor-3" 396 -100 basechar 0
LayerCount: 2
Fore
SplineSet
922 454 m 1,0,-1
 1006 478 l 2,1,2
 1012 478 1012 478 1012 472 c 128,-1,3
 1012 466 1012 466 1007 460 c 128,-1,4
 1002 454 1002 454 989 449 c 128,-1,5
 976 444 976 444 967 442 c 128,-1,6
 958 440 958 440 938 436 c 2,7,-1
 910 428 l 1,8,9
 778 168 778 168 778 102 c 0,10,11
 778 24 778 24 856 24 c 0,12,13
 926 24 926 24 990 58 c 1,14,15
 1092 126 1092 126 1122 151 c 128,-1,16
 1152 176 1152 176 1184 215 c 128,-1,17
 1216 254 1216 254 1220 254 c 128,-1,18
 1224 254 1224 254 1224 251 c 128,-1,19
 1224 248 1224 248 1196 212 c 0,20,21
 1128 122 1128 122 984 36 c 0,22,23
 880 -24 880 -24 779 -24 c 128,-1,24
 678 -24 678 -24 678 72 c 0,25,26
 678 146 678 146 814 406 c 1,27,28
 618 368 618 368 456 368 c 0,29,30
 412 368 412 368 380 374 c 1,31,32
 234 100 234 100 192 10 c 0,33,34
 186 -2 186 -2 157 -5 c 128,-1,35
 128 -8 128 -8 116 -11 c 128,-1,36
 104 -14 104 -14 98 -17 c 128,-1,37
 92 -20 92 -20 87 -20 c 128,-1,38
 82 -20 82 -20 82 -15 c 128,-1,39
 82 -10 82 -10 148 106 c 2,40,-1
 322 410 l 1,41,42
 314 426 314 426 314 440 c 128,-1,43
 314 454 314 454 329 463 c 128,-1,44
 344 472 344 472 356 472 c 1,45,46
 496 720 496 720 496 782 c 0,47,48
 496 812 496 812 477 835 c 128,-1,49
 458 858 458 858 418 858 c 0,50,51
 330 858 330 858 254 782 c 2,52,-1
 232 760 l 1,53,54
 226 760 226 760 226 767 c 128,-1,55
 226 774 226 774 248 796 c 0,56,57
 336 886 336 886 454 886 c 0,58,59
 514 886 514 886 544 858 c 128,-1,60
 574 830 574 830 574 786 c 0,61,62
 574 748 574 748 552 700 c 2,63,-1
 498 592 l 1,64,-1
 446 496 l 2,65,66
 428 462 428 462 416 442 c 1,67,68
 492 404 492 404 595 404 c 128,-1,69
 698 404 698 404 828 432 c 1,70,-1
 1054 842 l 2,71,72
 1060 854 1060 854 1093 862 c 128,-1,73
 1126 870 1126 870 1145 878 c 128,-1,74
 1164 886 1164 886 1173 886 c 128,-1,75
 1182 886 1182 886 1182 880 c 128,-1,76
 1182 874 1182 874 1130 804 c 1,77,78
 1052 688 1052 688 922 454 c 1,0,-1
EndSplineSet
EndChar

StartChar: I
Encoding: 73 73 44
Width: 690
VWidth: 2000
GlyphClass: 2
Flags: W
AnchorPoint: "Anchor-5" 806 1000 basechar 0
AnchorPoint: "Anchor-4" 202 0 basechar 0
LayerCount: 2
Fore
SplineSet
564 796 m 1,0,1
 602 850 602 850 602 882 c 128,-1,2
 602 914 602 914 580 932 c 128,-1,3
 558 950 558 950 517 950 c 128,-1,4
 476 950 476 950 436 926 c 128,-1,5
 396 902 396 902 396 859 c 128,-1,6
 396 816 396 816 439 806 c 128,-1,7
 482 796 482 796 564 796 c 1,0,1
166 230 m 1,8,9
 146 206 146 206 146 156 c 128,-1,10
 146 106 146 106 188 56 c 128,-1,11
 230 6 230 6 283 6 c 128,-1,12
 336 6 336 6 379 56 c 128,-1,13
 422 106 422 106 470 208 c 0,14,15
 630 546 630 546 820 810 c 1,16,17
 726 782 726 782 576 776 c 1,18,19
 512 696 512 696 370 574 c 0,20,21
 354 558 354 558 348 558 c 128,-1,22
 342 558 342 558 342 564 c 128,-1,23
 342 570 342 570 365 588 c 128,-1,24
 388 606 388 606 453 672 c 128,-1,25
 518 738 518 738 548 776 c 1,26,27
 340 776 340 776 340 844 c 0,28,29
 340 898 340 898 421 936 c 128,-1,30
 502 974 502 974 575 974 c 128,-1,31
 648 974 648 974 648 918 c 0,32,33
 648 884 648 884 592 798 c 1,34,35
 728 806 728 806 796 831 c 128,-1,36
 864 856 864 856 938 856 c 0,37,38
 946 856 946 856 946 852 c 128,-1,39
 946 848 946 848 941 844 c 128,-1,40
 936 840 936 840 929 836 c 128,-1,41
 922 832 922 832 918 826 c 0,42,43
 734 562 734 562 568 224 c 0,44,45
 452 -12 452 -12 242 -12 c 0,46,47
 178 -12 178 -12 127 29 c 128,-1,48
 76 70 76 70 76 136 c 0,49,50
 76 142 76 142 95 161 c 128,-1,51
 114 180 114 180 128 196 c 2,52,-1
 150 224 l 2,53,54
 158 234 158 234 162 234 c 128,-1,55
 166 234 166 234 166 230 c 1,8,9
EndSplineSet
EndChar

StartChar: J
Encoding: 74 74 45
Width: 704
VWidth: 2000
GlyphClass: 2
Flags: W
AnchorPoint: "Anchor-5" 780 1000 basechar 0
LayerCount: 2
Fore
SplineSet
352 -58 m 1,0,1
 200 -96 200 -96 122 -134 c 1,2,3
 -78 -238 -78 -238 -166 -352 c 128,-1,4
 -254 -466 -254 -466 -256 -642 c 0,5,6
 -256 -726 -256 -726 -228 -773 c 128,-1,7
 -200 -820 -200 -820 -150 -820 c 0,8,9
 -52 -820 -52 -820 46 -676 c 0,10,11
 184 -470 184 -470 336 -96 c 0,12,13
 346 -70 346 -70 352 -58 c 1,0,1
586 798 m 1,14,15
 722 806 722 806 790 831 c 128,-1,16
 858 856 858 856 932 856 c 0,17,18
 940 856 940 856 940 852 c 128,-1,19
 940 848 940 848 935 844 c 128,-1,20
 930 840 930 840 923 835 c 128,-1,21
 916 830 916 830 900 811 c 128,-1,22
 884 792 884 792 856 756 c 1,23,24
 812 692 l 0,25,26
 792 664 792 664 766 618 c 2,27,-1
 728 552 l 2,28,29
 716 532 716 532 688 474 c 2,30,-1
 458 -10 l 1,31,32
 582 20 582 20 642 51 c 128,-1,33
 702 82 702 82 771 141 c 128,-1,34
 840 200 840 200 872 248 c 0,35,36
 876 254 876 254 880 254 c 128,-1,37
 884 254 884 254 884 251 c 128,-1,38
 884 248 884 248 882 244 c 0,39,40
 778 106 778 106 650 38 c 0,41,42
 574 -4 574 -4 444 -36 c 1,43,44
 238 -464 238 -464 92 -668 c 0,45,46
 -38 -848 -38 -848 -182 -848 c 0,47,48
 -334 -848 -334 -848 -334 -636 c 0,49,50
 -334 -492 -334 -492 -221 -348 c 128,-1,51
 -108 -204 -108 -204 118 -104 c 0,52,53
 218 -60 218 -60 364 -30 c 1,54,55
 416 100 416 100 470 208 c 1,56,57
 606 494 606 494 722 670 c 2,58,-1
 814 810 l 1,59,60
 720 782 720 782 570 776 c 1,61,62
 506 696 506 696 364 574 c 0,63,64
 348 558 348 558 342 558 c 128,-1,65
 336 558 336 558 336 564 c 128,-1,66
 336 570 336 570 359 588 c 128,-1,67
 382 606 382 606 447 672 c 128,-1,68
 512 738 512 738 542 776 c 1,69,70
 334 776 334 776 334 844 c 0,71,72
 334 898 334 898 415 936 c 128,-1,73
 496 974 496 974 569 974 c 128,-1,74
 642 974 642 974 642 918 c 0,75,76
 642 884 642 884 586 798 c 1,14,15
558 796 m 1,77,78
 596 850 596 850 596 882 c 128,-1,79
 596 914 596 914 574 932 c 128,-1,80
 552 950 552 950 511 950 c 128,-1,81
 470 950 470 950 430 926 c 128,-1,82
 390 902 390 902 390 859 c 128,-1,83
 390 816 390 816 433 806 c 128,-1,84
 476 796 476 796 558 796 c 1,77,78
EndSplineSet
EndChar

StartChar: K
Encoding: 75 75 46
Width: 814
VWidth: 2000
GlyphClass: 2
Flags: W
AnchorPoint: "Anchor-5" 756 1000 basechar 0
AnchorPoint: "Anchor-3" 312 -100 basechar 0
LayerCount: 2
Fore
SplineSet
370 448 m 1,0,-1
 396 494 l 1,1,-1
 350 478 l 1,2,3
 356 464 356 464 370 448 c 1,0,-1
248 450 m 1,4,-1
 228 446 l 2,5,6
 220 446 220 446 220 455 c 128,-1,7
 220 464 220 464 414 528 c 1,8,9
 500 684 500 684 500 758 c 0,10,11
 500 858 500 858 418 858 c 0,12,13
 330 858 330 858 254 782 c 2,14,-1
 232 760 l 1,15,16
 226 760 226 760 226 767 c 128,-1,17
 226 774 226 774 248 796 c 0,18,19
 336 886 336 886 454 886 c 0,20,21
 514 886 514 886 548 857 c 128,-1,22
 582 828 582 828 582 771 c 128,-1,23
 582 714 582 714 506 566 c 1,24,25
 908 748 908 748 1016 828 c 0,26,27
 1082 876 1082 876 1108 876 c 0,28,29
 1112 876 1112 876 1112 870 c 128,-1,30
 1112 864 1112 864 1076 834 c 0,31,32
 972 744 972 744 848 694 c 1,33,-1
 490 534 l 1,34,-1
 408 384 l 1,35,36
 614 32 614 32 688 -66 c 0,37,38
 716 -102 716 -102 772 -143 c 128,-1,39
 828 -184 828 -184 904 -184 c 128,-1,40
 980 -184 980 -184 1074 -112 c 0,41,42
 1078 -108 1078 -108 1081 -108 c 128,-1,43
 1084 -108 1084 -108 1084 -110 c 0,44,45
 1084 -140 1084 -140 1011 -173 c 128,-1,46
 938 -206 938 -206 845 -206 c 128,-1,47
 752 -206 752 -206 686 -164 c 0,48,49
 580 -94 580 -94 362 300 c 1,50,51
 250 100 250 100 172 -2 c 0,52,53
 150 -28 150 -28 42 -28 c 0,54,55
 28 -28 28 -28 28 -24 c 128,-1,56
 28 -20 28 -20 36 -16 c 0,57,58
 62 -6 62 -6 80 16 c 0,59,60
 196 150 196 150 324 368 c 1,61,62
 274 450 274 450 248 450 c 1,4,-1
EndSplineSet
EndChar

StartChar: L
Encoding: 76 76 47
Width: 768
VWidth: 2000
GlyphClass: 2
Flags: W
AnchorPoint: "Anchor-5" 734 1000 basechar 0
AnchorPoint: "Anchor-3" 324 -100 basechar 0
AnchorPoint: "Anchor-1" 884 766 basechar 0
AnchorPoint: "Anchor-0" 770 400 basechar 0
LayerCount: 2
Fore
SplineSet
482 782 m 2,0,-1
 460 760 l 1,1,2
 454 760 454 760 454 767 c 128,-1,3
 454 774 454 774 476 796 c 0,4,5
 562 886 562 886 658 886 c 0,6,7
 698 886 698 886 728 865 c 128,-1,8
 758 844 758 844 758 796 c 0,9,10
 758 716 758 716 646 512 c 128,-1,11
 534 308 534 308 452 194 c 1,12,13
 510 20 510 20 682 -117 c 128,-1,14
 854 -254 854 -254 1026 -254 c 0,15,16
 1142 -254 1142 -254 1218 -182 c 0,17,18
 1226 -174 1226 -174 1233 -163 c 128,-1,19
 1240 -152 1240 -152 1245 -147 c 128,-1,20
 1250 -142 1250 -142 1254 -142 c 128,-1,21
 1258 -142 1258 -142 1258 -153 c 128,-1,22
 1258 -164 1258 -164 1230 -198 c 0,23,24
 1140 -304 1140 -304 970 -304 c 0,25,26
 820 -304 820 -304 660 -210 c 0,27,28
 580 -162 580 -162 513 -72 c 128,-1,29
 446 18 446 18 408 138 c 1,30,31
 276 -24 276 -24 156 -24 c 0,32,33
 94 -24 94 -24 94 16 c 0,34,35
 94 88 94 88 197 199 c 128,-1,36
 300 310 300 310 368 310 c 0,37,38
 406 310 406 310 436 238 c 1,39,40
 554 424 554 424 617 573 c 128,-1,41
 680 722 680 722 680 785 c 128,-1,42
 680 848 680 848 628 848 c 0,43,44
 548 848 548 848 482 782 c 2,0,-1
396 178 m 1,45,46
 374 256 374 256 334 256 c 0,47,48
 278 256 278 256 216 186 c 128,-1,49
 154 116 154 116 154 56 c 0,50,51
 154 18 154 18 192 18 c 0,52,53
 248 18 248 18 295 60 c 128,-1,54
 342 102 342 102 396 178 c 1,45,46
EndSplineSet
EndChar

StartChar: M
Encoding: 77 77 48
Width: 1170
VWidth: 2000
GlyphClass: 2
Flags: W
AnchorPoint: "Anchor-5" 974 1088 basechar 0
AnchorPoint: "Anchor-3" 542 -100 basechar 0
LayerCount: 2
Fore
SplineSet
536 706 m 1,0,1
 582 754 582 754 611 780 c 128,-1,2
 640 806 640 806 688 835 c 128,-1,3
 736 864 736 864 776 864 c 0,4,5
 892 864 892 864 892 720 c 1,6,7
 1088 900 1088 900 1216 900 c 0,8,9
 1262 900 1262 900 1295 877 c 128,-1,10
 1328 854 1328 854 1328 807 c 128,-1,11
 1328 760 1328 760 1277 675 c 128,-1,12
 1226 590 1226 590 1166 507 c 128,-1,13
 1106 424 1106 424 1055 294 c 128,-1,14
 1004 164 1004 164 1004 26 c 128,-1,15
 1004 -112 1004 -112 1069 -183 c 128,-1,16
 1134 -254 1134 -254 1237 -254 c 128,-1,17
 1340 -254 1340 -254 1430 -144 c 2,18,-1
 1456 -112 l 1,19,20
 1460 -112 1460 -112 1460 -116 c 0,21,22
 1460 -156 1460 -156 1377 -229 c 128,-1,23
 1294 -302 1294 -302 1184 -302 c 128,-1,24
 1074 -302 1074 -302 998 -226 c 128,-1,25
 922 -150 922 -150 922 -20 c 128,-1,26
 922 110 922 110 971 235 c 128,-1,27
 1020 360 1020 360 1080 444 c 0,28,29
 1238 668 1238 668 1238 772 c 0,30,31
 1238 812 1238 812 1211 832 c 128,-1,32
 1184 852 1184 852 1150 852 c 2,33,-1
 1144 852 l 1,34,35
 1060 850 1060 850 880 670 c 1,36,37
 860 622 860 622 848 605 c 128,-1,38
 836 588 836 588 801 569 c 128,-1,39
 766 550 766 550 755 550 c 128,-1,40
 744 550 744 550 744 554 c 0,41,42
 744 572 744 572 804 632 c 1,43,44
 812 654 812 654 812 688 c 0,45,46
 812 816 812 816 722 816 c 0,47,48
 686 816 686 816 615 749 c 128,-1,49
 544 682 544 682 492 608 c 1,50,51
 410 476 410 476 302 258 c 128,-1,52
 194 40 194 40 166 -2 c 1,53,54
 152 -28 152 -28 42 -28 c 0,55,56
 28 -28 28 -28 28 -22 c 0,57,58
 28 -20 28 -20 36 -18 c 0,59,60
 56 -12 56 -12 87 26 c 128,-1,61
 118 64 118 64 180 182 c 1,62,-1
 368 524 l 1,63,-1
 416 620 l 2,64,65
 464 718 464 718 464 764 c 0,66,67
 464 850 464 850 396 850 c 0,68,69
 322 850 322 850 254 782 c 0,70,71
 234 762 234 762 230 762 c 128,-1,72
 226 762 226 762 226 768 c 128,-1,73
 226 774 226 774 248 796 c 0,74,75
 336 886 336 886 434 886 c 0,76,77
 550 886 550 886 550 786 c 0,78,79
 550 746 550 746 536 706 c 1,0,1
EndSplineSet
EndChar

StartChar: N
Encoding: 78 78 49
Width: 910
VWidth: 2000
GlyphClass: 2
Flags: W
AnchorPoint: "Anchor-5" 912 1000 basechar 0
AnchorPoint: "Anchor-3" 326 -100 basechar 0
LayerCount: 2
Fore
SplineSet
154 294 m 1,0,-1
 128 284 l 2,1,2
 124 284 124 284 124 290 c 1,3,-1
 156 310 l 1,4,-1
 188 328 l 1,5,6
 218 328 218 328 229 298 c 128,-1,7
 240 268 240 268 240 248 c 1,8,-1
 548 814 l 1,9,10
 576 872 576 872 648 872 c 0,11,12
 682 872 682 872 682 812 c 2,13,-1
 676 74 l 1,14,15
 708 156 708 156 864 457 c 128,-1,16
 1020 758 1020 758 1064 802 c 0,17,18
 1120 858 1120 858 1144 866 c 128,-1,19
 1168 874 1168 874 1184 874 c 128,-1,20
 1200 874 1200 874 1215 866 c 128,-1,21
 1230 858 1230 858 1230 851 c 128,-1,22
 1230 844 1230 844 1192 809 c 128,-1,23
 1154 774 1154 774 1150 774 c 128,-1,24
 1146 774 1146 774 1146 780 c 0,25,26
 1146 798 1146 798 1119 798 c 128,-1,27
 1092 798 1092 798 1070 764 c 0,28,29
 992 648 992 648 872 396 c 128,-1,30
 752 144 752 144 710 36 c 0,31,32
 686 -24 686 -24 634 -24 c 0,33,34
 594 -24 594 -24 594 72 c 2,35,-1
 598 760 l 2,36,37
 598 808 598 808 592 808 c 0,38,39
 580 808 580 808 562 772 c 2,40,-1
 174 36 l 2,41,42
 160 10 160 10 142 2 c 128,-1,43
 124 -6 124 -6 117 -10 c 128,-1,44
 110 -14 110 -14 104 -23 c 128,-1,45
 98 -32 98 -32 92 -32 c 128,-1,46
 86 -32 86 -32 86 -29 c 128,-1,47
 86 -26 86 -26 92 -11 c 128,-1,48
 98 4 98 4 110 30 c 0,49,50
 170 160 170 160 170 227 c 128,-1,51
 170 294 170 294 154 294 c 1,0,-1
EndSplineSet
EndChar

StartChar: O
Encoding: 79 79 50
Width: 960
VWidth: 2000
GlyphClass: 2
Flags: W
AnchorPoint: "Anchor-5" 840 1000 basechar 0
AnchorPoint: "Anchor-4" 438 0 basechar 0
AnchorPoint: "Anchor-3" 388 -100 basechar 0
LayerCount: 2
Fore
SplineSet
1047 799 m 128,-1,1
 1070 710 1070 710 1070 606 c 128,-1,2
 1070 502 1070 502 1007 378 c 128,-1,3
 944 254 944 254 850 168 c 128,-1,4
 756 82 756 82 647 29 c 128,-1,5
 538 -24 538 -24 433 -24 c 128,-1,6
 328 -24 328 -24 241 49 c 128,-1,7
 154 122 154 122 154 233 c 128,-1,8
 154 344 154 344 203 457 c 128,-1,9
 252 570 252 570 330 666 c 128,-1,10
 408 762 408 762 526 824 c 128,-1,11
 644 886 644 886 768 886 c 0,12,13
 822 886 822 886 879 851 c 128,-1,14
 936 816 936 816 936 778 c 0,15,16
 936 772 936 772 927 758 c 128,-1,17
 918 744 918 744 905 720 c 128,-1,18
 892 696 892 696 890 696 c 0,19,20
 880 696 880 696 880 706 c 0,21,22
 880 784 880 784 830 818 c 128,-1,23
 780 852 780 852 726 852 c 0,24,25
 502 852 502 852 356 634 c 0,26,27
 236 456 236 456 236 321 c 128,-1,28
 236 186 236 186 301 111 c 128,-1,29
 366 36 366 36 472 36 c 0,30,31
 670 36 670 36 839 209 c 128,-1,32
 1008 382 1008 382 1008 594 c 0,33,34
 1008 692 1008 692 968 776 c 0,35,36
 960 794 960 794 955 807 c 128,-1,37
 950 820 950 820 942 834 c 1,38,39
 942 840 942 840 963 864 c 128,-1,40
 984 888 984 888 994 888 c 0,41,0
 1024 888 1024 888 1047 799 c 128,-1,1
EndSplineSet
EndChar

StartChar: P
Encoding: 80 80 51
Width: 840
VWidth: 2000
GlyphClass: 2
Flags: W
AnchorPoint: "Anchor-5" 922 1000 basechar 0
LayerCount: 2
Fore
SplineSet
364 364 m 1,0,1
 510 402 510 402 630 447 c 128,-1,2
 750 492 750 492 840 570 c 128,-1,3
 930 648 930 648 930 720 c 0,4,5
 930 764 930 764 901 797 c 128,-1,6
 872 830 872 830 820 830 c 0,7,8
 616 830 616 830 364 364 c 1,0,1
406 620 m 0,9,10
 406 634 406 634 386 634 c 2,11,-1
 352 634 l 2,12,13
 342 634 342 634 342 641 c 128,-1,14
 342 648 342 648 401 661 c 128,-1,15
 460 674 460 674 474 674 c 128,-1,16
 488 674 488 674 488 665 c 128,-1,17
 488 656 488 656 418 516 c 1,18,19
 516 702 516 702 688 818 c 0,20,21
 790 886 790 886 864 886 c 128,-1,22
 938 886 938 886 976 853 c 128,-1,23
 1014 820 1014 820 1014 753 c 128,-1,24
 1014 686 1014 686 946 614 c 128,-1,25
 878 542 878 542 804 501 c 128,-1,26
 730 460 730 460 640 425 c 128,-1,27
 550 390 550 390 356 332 c 1,28,29
 232 84 232 84 200 4 c 0,30,31
 194 -10 194 -10 159 -10 c 128,-1,32
 124 -10 124 -10 109 -16 c 128,-1,33
 94 -22 94 -22 87 -27 c 128,-1,34
 80 -32 80 -32 73 -32 c 128,-1,35
 66 -32 66 -32 66 -26 c 1,36,-1
 100 34 l 1,37,38
 196 190 196 190 262 312 c 1,39,40
 406 588 406 588 406 620 c 0,9,10
EndSplineSet
EndChar

StartChar: Q
Encoding: 81 81 52
Width: 960
VWidth: 2000
GlyphClass: 2
Flags: W
AnchorPoint: "Anchor-5" 840 1000 basechar 0
AnchorPoint: "Anchor-4" 438 0 basechar 0
AnchorPoint: "Anchor-3" 388 -100 basechar 0
LayerCount: 2
Fore
SplineSet
954 -372 m 0,0,1
 708 -372 708 -372 584 2 c 1,2,3
 506 -24 506 -24 446 -24 c 0,4,5
 328 -24 328 -24 241 49 c 128,-1,6
 154 122 154 122 154 233 c 128,-1,7
 154 344 154 344 203 457 c 128,-1,8
 252 570 252 570 330 666 c 128,-1,9
 408 762 408 762 526 824 c 128,-1,10
 644 886 644 886 768 886 c 0,11,12
 822 886 822 886 879 851 c 128,-1,13
 936 816 936 816 936 778 c 0,14,15
 936 772 936 772 927 758 c 128,-1,16
 918 744 918 744 905 720 c 128,-1,17
 892 696 892 696 890 696 c 0,18,19
 880 696 880 696 880 706 c 0,20,21
 880 784 880 784 830 818 c 128,-1,22
 780 852 780 852 726 852 c 0,23,24
 502 852 502 852 356 634 c 0,25,26
 236 456 236 456 236 321 c 128,-1,27
 236 186 236 186 301 111 c 128,-1,28
 366 36 366 36 472 36 c 0,29,30
 522 36 522 36 570 48 c 1,31,32
 526 218 526 218 526 372 c 0,33,34
 526 378 526 378 555 395 c 128,-1,35
 584 412 584 412 593 412 c 128,-1,36
 602 412 602 412 602 408 c 0,37,38
 596 344 596 344 596 256 c 128,-1,39
 596 168 596 168 618 64 c 1,40,41
 778 122 778 122 893 273 c 128,-1,42
 1008 424 1008 424 1008 594 c 0,43,44
 1008 692 1008 692 968 776 c 0,45,46
 960 794 960 794 955 807 c 128,-1,47
 950 820 950 820 942 834 c 1,48,49
 942 840 942 840 963 864 c 128,-1,50
 984 888 984 888 994 888 c 0,51,52
 1024 888 1024 888 1047 799 c 128,-1,53
 1070 710 1070 710 1070 630 c 0,54,55
 1070 434 1070 434 938 265 c 128,-1,56
 806 96 806 96 630 20 c 1,57,58
 666 -124 666 -124 766 -222 c 128,-1,59
 866 -320 866 -320 991 -320 c 128,-1,60
 1116 -320 1116 -320 1201 -255 c 128,-1,61
 1286 -190 1286 -190 1298 -134 c 0,62,63
 1302 -116 1302 -116 1312 -116 c 0,64,65
 1326 -116 1326 -116 1326 -128 c 0,66,67
 1326 -152 1326 -152 1283 -205 c 128,-1,68
 1240 -258 1240 -258 1199 -291 c 128,-1,69
 1158 -324 1158 -324 1093 -348 c 128,-1,70
 1028 -372 1028 -372 954 -372 c 0,0,1
EndSplineSet
EndChar

StartChar: R
Encoding: 82 82 53
Width: 780
VWidth: 2000
GlyphClass: 2
Flags: W
AnchorPoint: "Anchor-5" 902 1000 basechar 0
AnchorPoint: "Anchor-3" 308 -100 basechar 0
LayerCount: 2
Fore
SplineSet
316 414 m 1,0,-1
 326 434 l 1,1,-1
 306 430 l 1,2,-1
 316 414 l 1,0,-1
430 478 m 1,3,4
 894 582 894 582 894 738 c 0,5,6
 894 780 894 780 863 813 c 128,-1,7
 832 846 832 846 778 846 c 0,8,9
 678 846 678 846 604 757 c 128,-1,10
 530 668 530 668 430 478 c 1,3,4
103 -27 m 128,-1,12
 96 -32 96 -32 89 -32 c 128,-1,13
 82 -32 82 -32 82 -28 c 128,-1,14
 82 -24 82 -24 90 -11 c 128,-1,15
 98 2 98 2 109 17 c 128,-1,16
 120 32 120 32 156 96 c 1,17,-1
 298 378 l 1,18,19
 270 434 270 434 270 444 c 0,20,21
 270 448 270 448 340 460 c 1,22,23
 408 590 408 590 452 654 c 1,24,25
 518 760 518 760 634 823 c 128,-1,26
 750 886 750 886 848 886 c 0,27,28
 902 886 902 886 935 858 c 128,-1,29
 968 830 968 830 968 778 c 0,30,31
 968 570 968 570 416 452 c 1,32,-1
 360 344 l 1,33,-1
 582 -22 l 1,34,35
 646 -138 646 -138 705 -191 c 128,-1,36
 764 -244 764 -244 842 -244 c 0,37,38
 950 -244 950 -244 1010 -158 c 1,39,40
 1024 -144 1024 -144 1040 -144 c 128,-1,41
 1056 -144 1056 -144 1056 -152 c 2,42,-1
 1056 -158 l 1,43,44
 940 -266 940 -266 803 -266 c 128,-1,45
 666 -266 666 -266 594 -158 c 0,46,47
 550 -92 550 -92 456 86 c 1,48,-1
 338 304 l 1,49,-1
 290 194 l 2,50,51
 264 132 264 132 244 76 c 2,52,-1
 216 4 l 2,53,54
 210 -10 210 -10 175 -10 c 128,-1,55
 140 -10 140 -10 125 -16 c 128,-1,11
 110 -22 110 -22 103 -27 c 128,-1,12
EndSplineSet
EndChar

StartChar: S
Encoding: 83 83 54
Width: 752
VWidth: 2000
GlyphClass: 2
Flags: W
AnchorPoint: "Anchor-5" 788 1000 basechar 0
AnchorPoint: "Anchor-4" 300 0 basechar 0
AnchorPoint: "Anchor-3" 256 -100 basechar 0
LayerCount: 2
Fore
SplineSet
166 230 m 1,0,1
 148 200 148 200 148 190 c 0,2,3
 148 94 148 94 218 51 c 128,-1,4
 288 8 288 8 364 8 c 0,5,6
 480 8 480 8 552 81 c 128,-1,7
 624 154 624 154 624 217 c 128,-1,8
 624 280 624 280 592 339 c 128,-1,9
 560 398 560 398 521 440 c 128,-1,10
 482 482 482 482 450 537 c 128,-1,11
 418 592 418 592 418 638 c 0,12,13
 418 736 418 736 527 811 c 128,-1,14
 636 886 636 886 746 886 c 0,15,16
 796 886 796 886 834 863 c 128,-1,17
 872 840 872 840 886 819 c 128,-1,18
 900 798 900 798 900 792 c 128,-1,19
 900 786 900 786 893 780 c 128,-1,20
 886 774 886 774 872 764 c 2,21,-1
 854 752 l 2,22,23
 838 740 838 740 834 740 c 128,-1,24
 830 740 830 740 830 746 c 0,25,26
 830 782 830 782 788 812 c 128,-1,27
 746 842 746 842 669 842 c 128,-1,28
 592 842 592 842 540 792 c 128,-1,29
 488 742 488 742 488 689 c 128,-1,30
 488 636 488 636 522 584 c 128,-1,31
 556 532 556 532 597 490 c 128,-1,32
 638 448 638 448 672 392 c 128,-1,33
 706 336 706 336 706 286 c 0,34,35
 706 164 706 164 570 65 c 128,-1,36
 434 -34 434 -34 309 -34 c 128,-1,37
 184 -34 184 -34 130 20 c 128,-1,38
 76 74 76 74 76 136 c 0,39,40
 76 142 76 142 95 161 c 128,-1,41
 114 180 114 180 128 196 c 2,42,-1
 150 224 l 2,43,44
 158 234 158 234 162 234 c 128,-1,45
 166 234 166 234 166 230 c 1,0,1
EndSplineSet
EndChar

StartChar: T
Encoding: 84 84 55
Width: 728
VWidth: 2000
GlyphClass: 2
Flags: W
AnchorPoint: "Anchor-5" 748 1060 basechar 0
AnchorPoint: "Anchor-4" 226 0 basechar 0
AnchorPoint: "Anchor-3" 170 -100 basechar 0
LayerCount: 2
Fore
SplineSet
286 -2 m 1,0,1
 264 -28 264 -28 156 -28 c 0,2,3
 142 -28 142 -28 142 -22 c 0,4,5
 142 -20 142 -20 148 -18 c 0,6,7
 172 -12 172 -12 192 16 c 0,8,9
 296 154 296 154 437 405 c 128,-1,10
 578 656 578 656 636 828 c 1,11,12
 300 828 300 828 240 768 c 0,13,14
 234 762 234 762 230 762 c 128,-1,15
 226 762 226 762 226 768 c 128,-1,16
 226 774 226 774 258 806 c 128,-1,17
 290 838 290 838 366 852 c 128,-1,18
 442 866 442 866 650 870 c 1,19,20
 666 930 666 930 666 966 c 0,21,22
 666 1088 666 1088 550 1088 c 0,23,24
 496 1088 496 1088 442 1062 c 0,25,26
 440 1062 440 1062 420 1047 c 128,-1,27
 400 1032 400 1032 391 1032 c 128,-1,28
 382 1032 382 1032 382 1038 c 0,29,30
 382 1052 382 1052 439 1078 c 128,-1,31
 496 1104 496 1104 575 1104 c 128,-1,32
 654 1104 654 1104 703 1058 c 128,-1,33
 752 1012 752 1012 752 932 c 0,34,35
 752 912 752 912 740 872 c 1,36,37
 1030 878 1030 878 1084 896 c 0,38,39
 1088 898 1088 898 1090 898 c 0,40,41
 1110 898 1110 898 1096 888 c 0,42,43
 1048 856 1048 856 952 845 c 128,-1,44
 856 834 856 834 726 830 c 1,45,46
 666 670 666 670 503 374 c 128,-1,47
 340 78 340 78 286 -2 c 1,0,1
EndSplineSet
EndChar

StartChar: U
Encoding: 85 85 56
Width: 1016
VWidth: 2000
GlyphClass: 2
Flags: W
AnchorPoint: "Anchor-5" 842 1000 basechar 0
AnchorPoint: "Anchor-4" 382 0 basechar 0
AnchorPoint: "Anchor-3" 376 -100 basechar 0
LayerCount: 2
Fore
SplineSet
548 858 m 128,-1,1
 582 830 582 830 582 779 c 128,-1,2
 582 728 582 728 439 482 c 128,-1,3
 296 236 296 236 296 166 c 128,-1,4
 296 96 296 96 328 64 c 128,-1,5
 360 32 360 32 412 32 c 0,6,7
 574 32 574 32 798 302 c 1,8,9
 900 522 900 522 954 617 c 128,-1,10
 1008 712 1008 712 1078 800 c 0,11,12
 1126 858 1126 858 1160 858 c 0,13,14
 1172 858 1172 858 1172 850 c 0,15,16
 1172 808 1172 808 948 464 c 0,17,18
 904 396 904 396 850 267 c 128,-1,19
 796 138 796 138 796 72 c 0,20,21
 796 30 796 30 856 30 c 0,22,23
 940 30 940 30 1078 142 c 0,24,25
 1156 206 1156 206 1184 248 c 0,26,27
 1188 254 1188 254 1192 254 c 128,-1,28
 1196 254 1196 254 1196 251 c 128,-1,29
 1196 248 1196 248 1194 244 c 0,30,31
 1088 114 1088 114 944 36 c 0,32,33
 862 -8 862 -8 791 -8 c 128,-1,34
 720 -8 720 -8 720 64 c 0,35,36
 720 116 720 116 766 220 c 1,37,38
 688 146 688 146 641 106 c 128,-1,39
 594 66 594 66 515 25 c 128,-1,40
 436 -16 436 -16 364 -16 c 128,-1,41
 292 -16 292 -16 247 26 c 128,-1,42
 202 68 202 68 202 137 c 128,-1,43
 202 206 202 206 276 349 c 128,-1,44
 350 492 350 492 424 620 c 128,-1,45
 498 748 498 748 498 780 c 0,46,47
 498 858 498 858 414 858 c 128,-1,48
 330 858 330 858 254 782 c 0,49,50
 234 762 234 762 230 762 c 128,-1,51
 226 762 226 762 226 768 c 128,-1,52
 226 774 226 774 248 796 c 0,53,54
 336 886 336 886 454 886 c 0,55,0
 514 886 514 886 548 858 c 128,-1,1
EndSplineSet
EndChar

StartChar: V
Encoding: 86 86 57
Width: 838
VWidth: 2000
GlyphClass: 2
Flags: W
AnchorPoint: "Anchor-5" 786 1000 basechar 0
AnchorPoint: "Anchor-3" 184 -100 basechar 0
LayerCount: 2
Fore
SplineSet
362 162 m 1,0,1
 560 434 560 434 848 676 c 0,2,3
 1034 834 1034 834 1158 886 c 0,4,5
 1178 894 1178 894 1186 894 c 128,-1,6
 1194 894 1194 894 1194 888 c 0,7,8
 1194 886 1194 886 1162 870 c 0,9,10
 1012 790 1012 790 856 650 c 0,11,12
 570 394 570 394 372 118 c 0,13,14
 326 52 326 52 306 18 c 0,15,16
 302 10 302 10 254 -16 c 1,17,18
 212 -34 212 -34 198 -34 c 128,-1,19
 184 -34 184 -34 184 -20 c 128,-1,20
 184 -6 184 -6 201 28 c 128,-1,21
 218 62 218 62 244 108 c 2,22,-1
 278 170 l 1,23,24
 462 554 462 554 462 752 c 0,25,26
 462 850 462 850 396 850 c 0,27,28
 322 850 322 850 254 782 c 0,29,30
 234 762 234 762 230 762 c 128,-1,31
 226 762 226 762 226 768 c 128,-1,32
 226 774 226 774 248 796 c 0,33,34
 336 886 336 886 434 886 c 0,35,36
 492 886 492 886 521 845 c 128,-1,37
 550 804 550 804 550 750 c 0,38,39
 550 580 550 580 362 162 c 1,0,1
EndSplineSet
EndChar

StartChar: W
Encoding: 87 87 58
Width: 1202
VWidth: 2000
GlyphClass: 2
Flags: W
AnchorPoint: "Anchor-5" 836 1000 basechar 0
AnchorPoint: "Anchor-3" 468 -100 basechar 0
LayerCount: 2
Fore
SplineSet
442 888 m 0,0,1
 568 888 568 888 568 776 c 0,2,3
 568 730 568 730 544 676 c 1,4,5
 500 588 l 0,6,7
 482 554 482 554 444 488 c 2,8,-1
 180 40 l 1,9,10
 274 132 274 132 410 228 c 128,-1,11
 546 324 546 324 634 324 c 0,12,13
 690 324 690 324 702 300 c 0,14,15
 724 262 724 262 742 182 c 128,-1,16
 760 102 760 102 768 74 c 128,-1,17
 776 46 776 46 788 16 c 0,18,19
 812 -36 812 -36 888 -36 c 128,-1,20
 964 -36 964 -36 1027 20 c 128,-1,21
 1090 76 1090 76 1120 156 c 0,22,23
 1180 312 1180 312 1180 397 c 128,-1,24
 1180 482 1180 482 1166 552 c 128,-1,25
 1152 622 1152 622 1120 698 c 128,-1,26
 1088 774 1088 774 1024 824 c 128,-1,27
 960 874 960 874 881 874 c 128,-1,28
 802 874 802 874 758 846 c 0,29,30
 744 838 744 838 730 838 c 128,-1,31
 716 838 716 838 716 848 c 1,32,33
 712 858 712 858 734 868 c 0,34,35
 794 894 794 894 889 894 c 128,-1,36
 984 894 984 894 1061 852 c 128,-1,37
 1138 810 1138 810 1176 742 c 0,38,39
 1250 614 1250 614 1250 474 c 128,-1,40
 1250 334 1250 334 1211 222 c 128,-1,41
 1172 110 1172 110 1080 27 c 128,-1,42
 988 -56 988 -56 858 -56 c 0,43,44
 762 -56 762 -56 722 -16 c 0,45,46
 698 6 698 6 684 22 c 128,-1,47
 670 38 670 38 658 82 c 128,-1,48
 646 126 646 126 642 144 c 2,49,-1
 626 220 l 2,50,51
 616 270 616 270 586 270 c 0,52,53
 518 270 518 270 342 140 c 1,54,-1
 216 44 l 1,55,56
 154 -8 154 -8 142 -16 c 128,-1,57
 130 -24 130 -24 82 -24 c 0,58,59
 70 -24 70 -24 70 -8 c 128,-1,60
 70 8 70 8 188 214 c 2,61,-1
 400 580 l 1,62,63
 478 724 478 724 478 780 c 0,64,65
 478 808 478 808 457 829 c 128,-1,66
 436 850 436 850 396 850 c 0,67,68
 322 850 322 850 254 782 c 0,69,70
 234 762 234 762 230 762 c 128,-1,71
 226 762 226 762 226 768 c 128,-1,72
 226 774 226 774 248 796 c 0,73,74
 338 888 338 888 442 888 c 0,0,1
EndSplineSet
EndChar

StartChar: X
Encoding: 88 88 59
Width: 890
VWidth: 2000
GlyphClass: 2
Flags: W
AnchorPoint: "Anchor-5" 836 1000 basechar 0
AnchorPoint: "Anchor-3" 428 -100 basechar 0
LayerCount: 2
Fore
SplineSet
42 77 m 128,-1,1
 48 82 48 82 51 82 c 128,-1,2
 54 82 54 82 60 72 c 0,3,4
 78 42 78 42 135 42 c 128,-1,5
 192 42 192 42 220 64 c 1,6,7
 278 98 278 98 353 173 c 128,-1,8
 428 248 428 248 574 412 c 1,9,10
 572 428 572 428 568 479 c 128,-1,11
 564 530 564 530 560 565 c 128,-1,12
 556 600 556 600 549 653 c 128,-1,13
 542 706 542 706 534 731 c 128,-1,14
 526 756 526 756 512 784 c 0,15,16
 490 834 490 834 442 834 c 128,-1,17
 394 834 394 834 342 782 c 0,18,19
 322 762 322 762 318 762 c 128,-1,20
 314 762 314 762 314 768 c 128,-1,21
 314 774 314 774 336 796 c 0,22,23
 420 886 420 886 492 886 c 0,24,25
 578 886 578 886 608 770 c 1,26,27
 632 690 632 690 650 496 c 1,28,29
 872 738 872 738 988 822 c 1,30,31
 1090 886 1090 886 1148 886 c 0,32,33
 1192 886 1192 886 1206 864 c 0,34,35
 1210 856 1210 856 1210 851 c 128,-1,36
 1210 846 1210 846 1193 832 c 128,-1,37
 1176 818 1176 818 1164 805 c 128,-1,38
 1152 792 1152 792 1143 784 c 128,-1,39
 1134 776 1134 776 1130 776 c 128,-1,40
 1126 776 1126 776 1126 779 c 128,-1,41
 1126 782 1126 782 1130 787 c 128,-1,42
 1134 792 1134 792 1134 804 c 128,-1,43
 1134 816 1134 816 1118 827 c 128,-1,44
 1102 838 1102 838 1074 838 c 128,-1,45
 1046 838 1046 838 998 798 c 0,46,47
 890 710 890 710 654 448 c 1,48,49
 682 136 682 136 714 54 c 0,50,51
 756 -58 756 -58 868 -58 c 0,52,53
 934 -58 934 -58 966 -26 c 0,54,55
 980 -12 980 -12 986 -12 c 128,-1,56
 992 -12 992 -12 992 -21 c 128,-1,57
 992 -30 992 -30 967 -50 c 128,-1,58
 942 -70 942 -70 895 -88 c 128,-1,59
 848 -106 848 -106 800 -106 c 0,60,61
 670 -106 670 -106 626 42 c 0,62,63
 600 134 600 134 578 362 c 1,64,65
 370 126 370 126 228 44 c 1,66,67
 132 -8 132 -8 58 -8 c 0,68,69
 24 -8 24 -8 2 4 c 128,-1,70
 -20 16 -20 16 -20 20 c 128,-1,71
 -20 24 -20 24 -1 39 c 128,-1,72
 18 54 18 54 27 63 c 128,-1,0
 36 72 36 72 42 77 c 128,-1,1
EndSplineSet
EndChar

StartChar: Y
Encoding: 89 89 60
Width: 1016
VWidth: 2000
GlyphClass: 2
Flags: W
AnchorPoint: "Anchor-5" 842 1000 basechar 0
AnchorPoint: "Anchor-4" 394 0 basechar 0
LayerCount: 2
Fore
SplineSet
582 -168 m 1,0,1
 -126 -516 -126 -516 -126 -838 c 0,2,3
 -126 -936 -126 -936 -34 -936 c 0,4,5
 170 -936 170 -936 348 -606 c 1,6,7
 514 -308 514 -308 582 -168 c 1,0,1
1061 669 m 128,-1,9
 982 524 982 524 936 449 c 128,-1,10
 890 374 890 374 804 179 c 128,-1,11
 718 -16 718 -16 676 -96 c 1,12,13
 910 14 910 14 1078 142 c 1,14,15
 1156 206 1156 206 1184 248 c 0,16,17
 1188 254 1188 254 1192 254 c 128,-1,18
 1196 254 1196 254 1196 251 c 128,-1,19
 1196 248 1196 248 1194 244 c 0,20,21
 1134 168 1134 168 1076 122 c 0,22,23
 940 10 940 10 658 -130 c 1,24,25
 576 -296 576 -296 396 -598 c 0,26,27
 346 -682 346 -682 285 -756 c 128,-1,28
 224 -830 224 -830 127 -898 c 128,-1,29
 30 -966 30 -966 -57 -966 c 128,-1,30
 -144 -966 -144 -966 -184 -929 c 128,-1,31
 -224 -892 -224 -892 -224 -830 c 0,32,33
 -224 -514 -224 -514 600 -130 c 1,34,-1
 766 220 l 1,35,36
 620 82 620 82 542 33 c 128,-1,37
 464 -16 464 -16 384 -16 c 128,-1,38
 304 -16 304 -16 259 24 c 128,-1,39
 214 64 214 64 214 134 c 128,-1,40
 214 204 214 204 285 347 c 128,-1,41
 356 490 356 490 428 619 c 128,-1,42
 500 748 500 748 500 780 c 0,43,44
 500 858 500 858 415 858 c 128,-1,45
 330 858 330 858 254 782 c 2,46,-1
 232 760 l 1,47,48
 226 760 226 760 226 767 c 128,-1,49
 226 774 226 774 248 796 c 0,50,51
 336 886 336 886 454 886 c 0,52,53
 514 886 514 886 547 857 c 128,-1,54
 580 828 580 828 580 790 c 128,-1,55
 580 752 580 752 512 628 c 128,-1,56
 444 504 444 504 376 365 c 128,-1,57
 308 226 308 226 308 154 c 0,58,59
 308 32 308 32 424 32 c 0,60,61
 574 32 574 32 798 302 c 1,62,-1
 936 594 l 2,63,64
 958 642 958 642 970 664 c 2,65,-1
 1000 718 l 2,66,67
 1078 858 1078 858 1128 858 c 0,68,69
 1140 858 1140 858 1140 850 c 0,70,8
 1140 814 1140 814 1061 669 c 128,-1,9
EndSplineSet
EndChar

StartChar: Z
Encoding: 90 90 61
Width: 834
VWidth: 2000
GlyphClass: 2
Flags: W
AnchorPoint: "Anchor-5" 762 1000 basechar 0
AnchorPoint: "Anchor-3" 324 -100 basechar 0
LayerCount: 2
Fore
SplineSet
655 840 m 128,-1,1
 748 818 748 818 818 818 c 128,-1,2
 888 818 888 818 935 833 c 128,-1,3
 982 848 982 848 993 848 c 128,-1,4
 1004 848 1004 848 1017 840 c 128,-1,5
 1030 832 1030 832 1030 828 c 2,6,7
 1030 822 l 256,8,9
 1030 816 1030 816 1022 812 c 128,-1,10
 1014 808 1014 808 1007 803 c 128,-1,11
 1000 798 1000 798 992 792 c 2,12,13
 948 754 l 2,14,-1
 220 84 l 1,15,16
 272 90 272 90 302 90 c 0,17,18
 392 90 392 90 502 36 c 2,19,20
 724 -76 l 0,21,22
 834 -130 834 -130 925 -130 c 128,-1,23
 1016 -130 1016 -130 1076 -94 c 128,-1,24
 1136 -58 1136 -58 1136 -30 c 0,25,26
 1136 -20 1136 -20 1141 -20 c 128,-1,27
 1146 -20 1146 -20 1156 -40 c 128,-1,28
 1166 -60 1166 -60 1164 -69 c 128,-1,29
 1162 -78 1162 -78 1151 -97 c 128,-1,30
 1140 -116 1140 -116 1097 -147 c 128,-1,31
 1054 -178 1054 -178 976 -178 c 128,-1,32
 898 -178 898 -178 770 -126 c 2,33,-1
 522 -22 l 2,34,35
 402 30 402 30 324 30 c 128,-1,36
 246 30 246 30 187 13 c 128,-1,37
 128 -4 128 -4 120 -4 c 128,-1,38
 112 -4 112 -4 93 5 c 128,-1,39
 74 14 74 14 65 16 c 128,-1,40
 56 18 56 18 54 19 c 128,-1,41
 52 20 52 20 52 24 c 128,-1,42
 52 28 52 28 70 46 c 2,43,-1
 900 796 l 1,44,45
 832 782 832 782 765 782 c 128,-1,46
 698 782 698 782 623 801 c 128,-1,47
 548 820 548 820 480 820 c 128,-1,48
 412 820 412 820 382 791 c 128,-1,49
 352 762 352 762 348 762 c 128,-1,50
 344 762 344 762 344 768 c 128,-1,51
 344 774 344 774 366 796 c 0,52,53
 430 862 430 862 538 862 c 0,54,0
 562 862 562 862 655 840 c 128,-1,1
EndSplineSet
EndChar

StartChar: bracketleft
Encoding: 91 91 62
Width: 540
VWidth: 2000
GlyphClass: 2
Flags: W
LayerCount: 2
Fore
SplineSet
259 -120 m 128,-1,1
 310 -126 310 -126 347 -126 c 128,-1,2
 384 -126 384 -126 384 -134 c 128,-1,3
 384 -142 384 -142 364 -142 c 2,4,-1
 54 -142 l 2,5,6
 44 -142 44 -142 44 -134 c 1,7,-1
 92 -38 l 1,8,-1
 618 962 l 1,9,10
 642 1014 642 1014 658 1014 c 2,11,-1
 924 1014 l 2,12,13
 934 1014 934 1014 934 1008 c 0,14,15
 934 998 934 998 891 998 c 128,-1,16
 848 998 848 998 778 987 c 128,-1,17
 708 976 708 976 698 958 c 2,18,-1
 168 -46 l 2,19,20
 150 -82 150 -82 150 -90 c 128,-1,21
 150 -98 150 -98 179 -106 c 128,-1,0
 208 -114 208 -114 259 -120 c 128,-1,1
EndSplineSet
EndChar

StartChar: backslash
Encoding: 92 92 63
Width: 356
VWidth: 2000
GlyphClass: 2
Flags: W
LayerCount: 2
Fore
SplineSet
48 1064 m 2,0,1
 48 1068 48 1068 61 1076 c 128,-1,2
 74 1084 74 1084 82 1084 c 2,3,-1
 84 1084 l 1,4,-1
 472 -116 l 2,5,6
 472 -120 472 -120 458 -129 c 128,-1,7
 444 -138 444 -138 440 -138 c 1,8,-1
 438 -136 l 1,9,-1
 48 1064 l 2,0,1
EndSplineSet
EndChar

StartChar: bracketright
Encoding: 93 93 64
Width: 540
VWidth: 2000
GlyphClass: 2
Flags: W
LayerCount: 2
Fore
SplineSet
567 992 m 128,-1,1
 516 998 516 998 479 998 c 128,-1,2
 442 998 442 998 442 1006 c 128,-1,3
 442 1014 442 1014 462 1014 c 2,4,-1
 772 1014 l 2,5,6
 782 1014 782 1014 782 1006 c 1,7,-1
 734 910 l 1,8,-1
 208 -90 l 1,9,10
 184 -142 184 -142 168 -142 c 2,11,-1
 -98 -142 l 2,12,13
 -108 -142 -108 -142 -108 -136 c 0,14,15
 -108 -126 -108 -126 -65 -126 c 128,-1,16
 -22 -126 -22 -126 48 -115 c 128,-1,17
 118 -104 118 -104 128 -86 c 2,18,-1
 658 918 l 2,19,20
 676 954 676 954 676 962 c 128,-1,21
 676 970 676 970 647 978 c 128,-1,0
 618 986 618 986 567 992 c 128,-1,1
EndSplineSet
EndChar

StartChar: asciicircum
Encoding: 94 94 65
Width: 506
VWidth: 2000
GlyphClass: 2
Flags: W
LayerCount: 2
Fore
SplineSet
436 856 m 0,0,1
 442 866 442 866 463 877 c 128,-1,2
 484 888 484 888 487 888 c 128,-1,3
 490 888 490 888 510 840 c 128,-1,4
 530 792 530 792 575 718 c 128,-1,5
 620 644 620 644 646 611 c 128,-1,6
 672 578 672 578 672 573 c 128,-1,7
 672 568 672 568 649 556 c 128,-1,8
 626 544 626 544 616 544 c 1,9,10
 514 686 514 686 450 828 c 1,11,12
 350 702 350 702 272 580 c 0,13,14
 270 574 270 574 248 562 c 128,-1,15
 226 550 226 550 222 550 c 128,-1,16
 218 550 218 550 218 552 c 2,17,-1
 220 554 l 2,18,19
 270 604 270 604 436 856 c 0,0,1
EndSplineSet
EndChar

StartChar: underscore
Encoding: 95 95 66
Width: 634
VWidth: 2000
GlyphClass: 2
Flags: W
LayerCount: 2
Fore
SplineSet
602 -100 m 2,0,-1
 -32 -100 l 2,1,2
 -40 -100 -40 -100 -40 -96 c 1,3,4
 -30 -86 -30 -86 -24 -76 c 0,5,6
 -16 -60 -16 -60 10 -60 c 2,7,-1
 644 -60 l 2,8,9
 650 -60 650 -60 650 -71 c 128,-1,10
 650 -82 650 -82 635 -91 c 128,-1,11
 620 -100 620 -100 602 -100 c 2,0,-1
EndSplineSet
EndChar

StartChar: grave
Encoding: 96 96 67
Width: 252
VWidth: 2000
GlyphClass: 2
Flags: W
LayerCount: 2
Fore
SplineSet
402 570 m 1,0,-1
 412 548 l 2,1,2
 412 546 412 546 406 546 c 128,-1,3
 400 546 400 546 396 554 c 2,4,-1
 284 738 l 2,5,6
 282 740 282 740 282 750 c 0,7,8
 282 788 282 788 302 788 c 0,9,10
 312 788 312 788 316 778 c 2,11,-1
 402 570 l 1,0,-1
EndSplineSet
EndChar

StartChar: a
Encoding: 97 97 68
Width: 612
VWidth: 2000
GlyphClass: 2
Flags: W
AnchorPoint: "Anchor-5" 480 548 basechar 0
AnchorPoint: "Anchor-4" 428 -2 basechar 0
AnchorPoint: "Anchor-3" 168 -100 basechar 0
LayerCount: 2
Fore
SplineSet
434 168 m 1,0,1
 536 270 536 270 536 304 c 0,2,3
 536 312 536 312 528 312 c 0,4,5
 508 312 508 312 434 168 c 1,0,1
414 438 m 0,6,7
 318 438 318 438 229 323 c 128,-1,8
 140 208 140 208 140 104 c 0,9,10
 140 34 140 34 196 34 c 0,11,12
 258 34 258 34 334 90 c 1,13,14
 356 164 356 164 418 250 c 128,-1,15
 480 336 480 336 520 352 c 1,16,17
 486 438 486 438 414 438 c 0,6,7
410 462 m 0,18,19
 506 462 506 462 536 356 c 1,20,21
 562 356 562 356 562 334 c 0,22,23
 562 302 562 302 553 287 c 128,-1,24
 544 272 544 272 540 264 c 128,-1,25
 536 256 536 256 524 244 c 2,26,-1
 508 224 l 2,27,28
 504 218 504 218 490 204 c 2,29,30
 422 138 l 1,31,32
 406 86 406 86 406 68 c 0,33,34
 406 26 406 26 477 26 c 128,-1,35
 548 26 548 26 682 142 c 0,36,37
 748 200 748 200 766 227 c 128,-1,38
 784 254 784 254 788 254 c 128,-1,39
 792 254 792 254 792 251 c 128,-1,40
 792 248 792 248 790 244 c 0,41,42
 692 114 692 114 558 36 c 0,43,44
 474 -12 474 -12 402 -12 c 128,-1,45
 330 -12 330 -12 330 52 c 0,46,47
 330 56 330 56 331 62 c 128,-1,48
 332 68 332 68 332 70 c 1,49,50
 218 0 218 0 146 0 c 0,51,52
 62 0 62 0 62 109 c 128,-1,53
 62 218 62 218 177 340 c 128,-1,54
 292 462 292 462 410 462 c 0,18,19
EndSplineSet
EndChar

StartChar: b
Encoding: 98 98 69
Width: 662
VWidth: 2000
GlyphClass: 2
Flags: W
AnchorPoint: "Anchor-5" 650 548 basechar 0
AnchorPoint: "Anchor-3" 176 -100 basechar 0
LayerCount: 2
Fore
SplineSet
282 350 m 1,0,1
 210 230 210 230 210 144 c 0,2,3
 210 94 210 94 243 57 c 128,-1,4
 276 20 276 20 320 20 c 0,5,6
 412 20 412 20 511 136 c 128,-1,7
 610 252 610 252 610 372 c 0,8,9
 610 418 610 418 581 438 c 128,-1,10
 552 458 552 458 520 458 c 0,11,12
 432 458 432 458 282 350 c 1,0,1
120 396 m 128,-1,14
 120 400 120 400 212 468 c 2,15,-1
 342 564 l 1,16,-1
 562 980 l 2,17,18
 596 1046 596 1046 612 1074 c 2,19,-1
 660 1156 l 1,20,21
 748 1300 748 1300 858 1376 c 1,22,23
 928 1428 928 1428 982 1428 c 0,24,25
 1016 1428 1016 1428 1016 1384 c 0,26,27
 1016 1164 1016 1164 748 898 c 0,28,29
 658 810 658 810 592 754 c 2,30,-1
 426 616 l 1,31,-1
 298 380 l 1,32,33
 468 498 468 498 584 498 c 0,34,35
 624 498 624 498 651 473 c 128,-1,36
 678 448 678 448 678 408 c 0,37,38
 678 280 678 280 537 130 c 128,-1,39
 396 -20 396 -20 272 -20 c 0,40,41
 212 -20 212 -20 174 18 c 128,-1,42
 136 56 136 56 136 120 c 128,-1,43
 136 184 136 184 168 252 c 128,-1,44
 200 320 200 320 328 538 c 1,45,-1
 134 398 l 1,46,-1
 124 392 l 1,47,13
 120 392 120 392 120 396 c 128,-1,14
442 648 m 1,48,49
 666 834 666 834 801 1002 c 128,-1,50
 936 1170 936 1170 936 1340 c 0,51,52
 936 1380 936 1380 910 1380 c 0,53,54
 864 1380 864 1380 775 1251 c 128,-1,55
 686 1122 686 1122 588 932 c 2,56,-1
 442 648 l 1,48,49
EndSplineSet
EndChar

StartChar: c
Encoding: 99 99 70
Width: 468
VWidth: 2000
GlyphClass: 2
Flags: W
AnchorPoint: "Anchor-5" 408 548 basechar 0
AnchorPoint: "Anchor-4" 204 0 basechar 0
AnchorPoint: "Anchor-3" 152 -100 basechar 0
LayerCount: 2
Fore
SplineSet
394 350 m 0,0,1
 390 350 390 350 392 357 c 128,-1,2
 394 364 394 364 394 382 c 128,-1,3
 394 400 394 400 379 414 c 128,-1,4
 364 428 364 428 348 428 c 0,5,6
 288 428 288 428 216 315 c 128,-1,7
 144 202 144 202 144 133 c 128,-1,8
 144 64 144 64 168 33 c 128,-1,9
 192 2 192 2 254 2 c 128,-1,10
 316 2 316 2 395 44 c 128,-1,11
 474 86 474 86 539 143 c 128,-1,12
 604 200 604 200 622 227 c 128,-1,13
 640 254 640 254 644 254 c 128,-1,14
 648 254 648 254 648 251 c 128,-1,15
 648 248 648 248 626 217 c 128,-1,16
 604 186 604 186 546 136 c 0,17,18
 370 -22 370 -22 216 -22 c 0,19,20
 154 -22 154 -22 111 6 c 128,-1,21
 68 34 68 34 68 90 c 0,22,23
 70 222 70 222 194 345 c 128,-1,24
 318 468 318 468 408 468 c 0,25,26
 460 468 460 468 460 410 c 0,27,28
 460 392 460 392 454 383 c 128,-1,29
 448 374 448 374 425 362 c 128,-1,30
 402 350 402 350 394 350 c 0,0,1
EndSplineSet
EndChar

StartChar: d
Encoding: 100 100 71
Width: 682
VWidth: 2000
GlyphClass: 2
Flags: W
AnchorPoint: "Anchor-5" 450 548 basechar 0
AnchorPoint: "Anchor-4" 224 0 basechar 0
AnchorPoint: "Anchor-3" 200 -100 basechar 0
AnchorPoint: "Anchor-1" 1244 1166 basechar 0
LayerCount: 2
Fore
SplineSet
530 326 m 1,0,-1
 476 214 l 1,1,2
 578 326 578 326 722 511 c 128,-1,3
 866 696 866 696 931 805 c 128,-1,4
 996 914 996 914 1065 1064 c 128,-1,5
 1134 1214 1134 1214 1134 1274 c 0,6,7
 1134 1302 1134 1302 1116 1302 c 0,8,9
 1070 1302 1070 1302 994 1200 c 0,10,11
 878 1046 878 1046 772 822 c 1,12,-1
 540 344 l 1,13,14
 542 336 542 336 542 328 c 128,-1,15
 542 320 542 320 537 320 c 128,-1,16
 532 320 532 320 530 326 c 1,0,-1
502 388 m 1,17,18
 470 438 470 438 414 438 c 0,19,20
 318 438 318 438 229 323 c 128,-1,21
 140 208 140 208 140 104 c 0,22,23
 140 34 140 34 196 34 c 0,24,25
 270 34 270 34 386 130 c 1,26,27
 404 190 404 190 502 388 c 1,17,18
512 410 m 1,28,29
 746 880 746 880 774 933 c 128,-1,30
 802 986 802 986 854 1070 c 0,31,32
 952 1230 952 1230 1086 1310 c 0,33,34
 1120 1330 1120 1330 1142 1330 c 0,35,36
 1178 1330 1178 1330 1178 1280 c 0,37,38
 1178 1086 1178 1086 960 772 c 0,39,40
 892 674 892 674 722 471 c 128,-1,41
 552 268 552 268 464 180 c 1,42,43
 444 128 444 128 444 90 c 0,44,45
 444 26 444 26 521 26 c 128,-1,46
 598 26 598 26 732 142 c 0,47,48
 798 200 798 200 816 227 c 128,-1,49
 834 254 834 254 838 254 c 128,-1,50
 842 254 842 254 842 251 c 128,-1,51
 842 248 842 248 840 244 c 0,52,53
 742 114 742 114 608 36 c 0,54,55
 532 -8 532 -8 480 -8 c 0,56,57
 378 -8 378 -8 378 78 c 0,58,59
 378 96 378 96 382 112 c 1,60,61
 246 0 246 0 146 0 c 0,62,63
 62 0 62 0 62 109 c 128,-1,64
 62 218 62 218 177 340 c 128,-1,65
 292 462 292 462 410 462 c 0,66,67
 476 462 476 462 512 410 c 1,28,29
EndSplineSet
EndChar

StartChar: e
Encoding: 101 101 72
Width: 434
VWidth: 2000
GlyphClass: 2
Flags: W
AnchorPoint: "Anchor-5" 414 548 basechar 0
AnchorPoint: "Anchor-4" 210 0 basechar 0
AnchorPoint: "Anchor-3" 158 -100 basechar 0
LayerCount: 2
Fore
SplineSet
156 190 m 1,0,1
 138 140 138 140 138 100 c 0,2,3
 138 10 138 10 244 10 c 128,-1,4
 350 10 350 10 504 142 c 0,5,6
 570 200 570 200 588 227 c 128,-1,7
 606 254 606 254 610 254 c 128,-1,8
 614 254 614 254 614 251 c 128,-1,9
 614 248 614 248 612 244 c 0,10,11
 502 100 502 100 344 20 c 1,12,13
 268 -16 268 -16 196 -16 c 0,14,15
 60 -16 60 -16 60 78 c 0,16,17
 60 92 60 92 68 128 c 1,18,19
 62 124 62 124 52 116 c 2,20,-1
 28 96 l 2,21,22
 26 96 26 96 26 100 c 0,23,24
 26 108 26 108 72 142 c 1,25,26
 116 278 116 278 225 372 c 128,-1,27
 334 466 334 466 390 466 c 128,-1,28
 446 466 446 466 446 426 c 0,29,30
 446 398 446 398 406 366 c 128,-1,31
 366 334 366 334 340 316 c 2,32,-1
 156 190 l 1,0,1
164 208 m 1,33,34
 282 294 282 294 332 340 c 128,-1,35
 382 386 382 386 382 412 c 128,-1,36
 382 438 382 438 360 438 c 0,37,38
 310 438 310 438 254 368 c 128,-1,39
 198 298 198 298 164 208 c 1,33,34
EndSplineSet
EndChar

StartChar: f
Encoding: 102 102 73
Width: 400
VWidth: 2000
GlyphClass: 2
Flags: W
AnchorPoint: "Anchor-5" 1074 1576 basechar 0
LayerCount: 2
Fore
SplineSet
76 66 m 1,0,1
 -820 -592 -820 -592 -820 -896 c 0,2,3
 -820 -968 -820 -968 -794 -1057 c 128,-1,4
 -768 -1146 -768 -1146 -712 -1146 c 0,5,6
 -668 -1146 -668 -1146 -586 -1083 c 128,-1,7
 -504 -1020 -504 -1020 -466 -960 c 0,8,9
 -384 -832 -384 -832 -196 -458 c 128,-1,10
 -8 -84 -8 -84 76 66 c 1,0,1
526 404 m 1,11,-1
 536 410 l 1,12,13
 540 410 540 410 540 406 c 128,-1,14
 540 402 540 402 504 379 c 128,-1,15
 468 356 468 356 196 158 c 1,16,17
 -378 -908 -378 -908 -450 -994 c 128,-1,18
 -522 -1080 -522 -1080 -620 -1138 c 128,-1,19
 -718 -1196 -718 -1196 -758 -1196 c 0,20,21
 -826 -1196 -826 -1196 -855 -1099 c 128,-1,22
 -884 -1002 -884 -1002 -884 -917 c 128,-1,23
 -884 -832 -884 -832 -850 -760 c 128,-1,24
 -816 -688 -816 -688 -768 -623 c 128,-1,25
 -720 -558 -720 -558 -636 -476 c 1,26,-1
 -488 -338 l 2,27,28
 -424 -280 -424 -280 -320 -200 c 2,29,30
 -164 -80 l 1,31,-1
 -14 28 l 2,32,33
 80 96 80 96 98 108 c 1,34,-1
 168 248 l 1,35,-1
 448 782 l 2,36,37
 606 1080 606 1080 708 1234 c 128,-1,38
 810 1388 810 1388 890 1448 c 128,-1,39
 970 1508 970 1508 1064 1508 c 0,40,41
 1110 1508 1110 1508 1131 1470 c 128,-1,42
 1152 1432 1152 1432 1152 1385 c 128,-1,43
 1152 1338 1152 1338 1108 1268 c 0,44,45
 1100 1252 1100 1252 1069 1238 c 128,-1,46
 1038 1224 1038 1224 1044 1236 c 0,47,48
 1084 1300 1084 1300 1084 1353 c 128,-1,49
 1084 1406 1084 1406 1060 1437 c 128,-1,50
 1036 1468 1036 1468 1004 1468 c 0,51,52
 910 1468 910 1468 814 1329 c 128,-1,53
 718 1190 718 1190 496 754 c 1,54,-1
 212 190 l 1,55,-1
 526 404 l 1,11,-1
EndSplineSet
EndChar

StartChar: g
Encoding: 103 103 74
Width: 580
VWidth: 2000
GlyphClass: 2
Flags: WO
AnchorPoint: "Anchor-5" 478 548 basechar 0
LayerCount: 2
Fore
SplineSet
544 322 m 1,0,1
 480 438 480 438 388 438 c 0,2,3
 316 438 316 438 227 322 c 128,-1,4
 138 206 138 206 138 92 c 0,5,6
 138 70 138 70 155 52 c 128,-1,7
 172 34 172 34 196 34 c 0,8,9
 298 34 298 34 474 210 c 0,10,11
 498 234 498 234 544 322 c 1,0,1
-518 -1066 m 4,12,13
 -634 -1066 -634 -1066 -728 -990 c 128,-1,14
 -822 -914 -822 -914 -822 -788 c 128,-1,15
 -822 -662 -822 -662 -742 -540 c 0,16,17
 -688 -458 -688 -458 -538 -352 c 0,18,19
 -486 -314 -486 -314 -408 -276 c 2,20,21
 -274 -214 l 0,22,23
 -220 -190 -220 -190 -136 -160 c 1,24,25
 12 -112 12 -112 60 -96 c 128,-1,26
 108 -80 108 -80 119 -80 c 128,-1,27
 130 -80 130 -80 130 -90 c 128,-1,28
 130 -100 130 -100 112 -106 c 128,-1,29
 94 -112 94 -112 19 -135 c 128,-1,30
 -56 -158 -56 -158 -88 -168 c 2,31,-1
 -200 -208 l 1,32,33
 -302 -242 -302 -242 -398 -292 c 128,-1,34
 -494 -342 -494 -342 -532 -372 c 128,-1,35
 -570 -402 -570 -402 -619 -445 c 128,-1,36
 -668 -488 -668 -488 -692 -532 c 0,37,38
 -754 -640 -754 -640 -754 -753 c 128,-1,39
 -754 -866 -754 -866 -669 -947 c 128,-1,40
 -584 -1028 -584 -1028 -469 -1028 c 128,-1,41
 -354 -1028 -354 -1028 -231 -918 c 128,-1,42
 -108 -808 -108 -808 -10 -634 c 1,43,-1
 460 178 l 1,44,45
 392 104 392 104 304 52 c 128,-1,46
 216 0 216 0 142 0 c 0,47,48
 62 0 62 0 62 106 c 128,-1,49
 62 212 62 212 173 338 c 128,-1,50
 284 464 284 464 387 464 c 128,-1,51
 490 464 490 464 550 332 c 1,52,53
 568 366 568 366 584 368 c 0,54,55
 592 370 592 370 596 373 c 128,-1,56
 600 376 600 376 603 376 c 128,-1,57
 606 376 606 376 606 370 c 128,-1,58
 606 364 606 364 602 360 c 128,-1,59
 598 356 598 356 564 298 c 1,60,61
 570 286 570 286 570 279 c 128,-1,62
 570 272 570 272 566 272 c 1,63,-1
 558 288 l 1,64,-1
 66 -626 l 2,65,66
 -32 -806 -32 -806 -180 -936 c 128,-1,67
 -328 -1066 -328 -1066 -518 -1066 c 4,12,13
EndSplineSet
EndChar

StartChar: h
Encoding: 104 104 75
Width: 670
VWidth: 2000
GlyphClass: 2
Flags: W
AnchorPoint: "Anchor-5" 998 1520 basechar 0
AnchorPoint: "Anchor-4" 82 0 basechar 0
AnchorPoint: "Anchor-3" 226 -100 basechar 0
LayerCount: 2
Fore
SplineSet
442 648 m 1,0,1
 666 834 666 834 801 1002 c 128,-1,2
 936 1170 936 1170 936 1340 c 0,3,4
 936 1380 936 1380 910 1380 c 0,5,6
 864 1380 864 1380 775 1251 c 128,-1,7
 686 1122 686 1122 588 932 c 2,8,-1
 442 648 l 1,0,1
118 -2 m 2,9,-1
 70 -8 l 1,10,11
 52 -8 52 -8 52 12 c 128,-1,12
 52 32 52 32 172 248 c 1,13,14
 294 478 294 478 328 538 c 1,15,-1
 134 398 l 1,16,-1
 124 392 l 1,17,18
 120 392 120 392 120 396 c 128,-1,19
 120 400 120 400 212 468 c 2,20,-1
 342 564 l 1,21,-1
 516 894 l 2,22,23
 526 912 526 912 555 969 c 128,-1,24
 584 1026 584 1026 596 1048 c 2,25,-1
 638 1120 l 2,26,27
 666 1168 666 1168 686 1196 c 2,28,-1
 734 1260 l 2,29,30
 782 1322 782 1322 855 1375 c 128,-1,31
 928 1428 928 1428 982 1428 c 0,32,33
 1016 1428 1016 1428 1016 1384 c 0,34,35
 1016 1164 1016 1164 748 898 c 0,36,37
 658 810 658 810 592 754 c 2,38,-1
 426 616 l 1,39,-1
 284 330 l 2,40,41
 286 332 286 332 308 352 c 2,42,-1
 348 388 l 2,43,44
 482 508 482 508 574 508 c 0,45,46
 606 508 606 508 626 485 c 128,-1,47
 646 462 646 462 646 419 c 128,-1,48
 646 376 646 376 578 250 c 128,-1,49
 510 124 510 124 510 60 c 0,50,51
 510 26 510 26 540 26 c 0,52,53
 574 26 574 26 634 62 c 128,-1,54
 694 98 694 98 752 149 c 128,-1,55
 810 200 810 200 828 227 c 128,-1,56
 846 254 846 254 850 254 c 128,-1,57
 854 254 854 254 854 251 c 128,-1,58
 854 248 854 248 852 244 c 0,59,60
 754 114 754 114 620 36 c 0,61,62
 544 -8 544 -8 496 -8 c 0,63,64
 428 -8 428 -8 428 60 c 128,-1,65
 428 128 428 128 502 260 c 128,-1,66
 576 392 576 392 576 416 c 128,-1,67
 576 440 576 440 564 454 c 128,-1,68
 552 468 552 468 532 468 c 0,69,70
 478 468 478 468 387 388 c 128,-1,71
 296 308 296 308 262 256 c 0,72,73
 150 92 150 92 134 6 c 0,74,75
 132 -2 132 -2 118 -2 c 2,9,-1
EndSplineSet
EndChar

StartChar: i
Encoding: 105 105 76
Width: 374
VWidth: 2000
GlyphClass: 2
Flags: W
AnchorPoint: "Anchor-4" 162 0 basechar 0
AnchorPoint: "Anchor-3" 116 -100 basechar 0
LayerCount: 2
Fore
SplineSet
358 666 m 0,0,1
 358 688 358 688 378 712 c 128,-1,2
 398 736 398 736 415 736 c 128,-1,3
 432 736 432 736 441 725 c 128,-1,4
 450 714 450 714 450 695 c 128,-1,5
 450 676 450 676 432 653 c 128,-1,6
 414 630 414 630 390 630 c 0,7,8
 358 630 358 630 358 666 c 0,0,1
162 245 m 128,-1,10
 236 364 236 364 236 395 c 128,-1,11
 236 426 236 426 208 426 c 128,-1,12
 180 426 180 426 124 392 c 1,13,14
 120 392 120 392 120 396 c 128,-1,15
 120 400 120 400 126 404 c 0,16,17
 190 448 190 448 236 448 c 0,18,19
 304 448 304 448 304 386 c 0,20,21
 304 362 304 362 236 243 c 128,-1,22
 168 124 168 124 168 78 c 0,23,24
 168 26 168 26 237 26 c 128,-1,25
 306 26 306 26 434 132 c 1,26,27
 510 198 510 198 542 248 c 0,28,29
 546 254 546 254 550 254 c 128,-1,30
 554 254 554 254 554 251 c 128,-1,31
 554 248 554 248 528 213 c 128,-1,32
 502 178 502 178 461 141 c 128,-1,33
 420 104 420 104 385 77 c 128,-1,34
 350 50 350 50 289 21 c 128,-1,35
 228 -8 228 -8 183 -8 c 128,-1,36
 138 -8 138 -8 113 12 c 128,-1,37
 88 32 88 32 88 79 c 128,-1,9
 88 126 88 126 162 245 c 128,-1,10
EndSplineSet
EndChar

StartChar: j
Encoding: 106 106 77
Width: 348
VWidth: 2000
GlyphClass: 2
Flags: W
LayerCount: 2
Fore
SplineSet
358 666 m 0,0,1
 358 688 358 688 378 712 c 128,-1,2
 398 736 398 736 415 736 c 128,-1,3
 432 736 432 736 441 725 c 128,-1,4
 450 714 450 714 450 695 c 128,-1,5
 450 676 450 676 432 653 c 128,-1,6
 414 630 414 630 390 630 c 0,7,8
 358 630 358 630 358 666 c 0,0,1
20 -42 m 1,9,-1
 -98 -62 l 2,10,11
 -272 -92 -272 -92 -366 -123 c 128,-1,12
 -460 -154 -460 -154 -561 -209 c 128,-1,13
 -662 -264 -662 -264 -751 -338 c 128,-1,14
 -840 -412 -840 -412 -893 -511 c 128,-1,15
 -946 -610 -946 -610 -946 -716 c 128,-1,16
 -946 -822 -946 -822 -881 -897 c 128,-1,17
 -816 -972 -816 -972 -705 -972 c 128,-1,18
 -594 -972 -594 -972 -481 -858 c 128,-1,19
 -368 -744 -368 -744 -292 -606 c 2,20,-1
 20 -42 l 1,9,-1
232 406 m 0,21,22
 232 420 232 420 201 420 c 128,-1,23
 170 420 170 420 124 392 c 1,24,25
 120 392 120 392 120 396 c 128,-1,26
 120 400 120 400 126 404 c 0,27,28
 188 446 188 446 298 446 c 0,29,30
 322 446 322 446 322 426 c 0,31,32
 322 402 322 402 241 243 c 128,-1,33
 160 84 160 84 106 -8 c 1,34,35
 290 34 290 34 420 146 c 0,36,37
 486 204 486 204 503 229 c 128,-1,38
 520 254 520 254 524 254 c 128,-1,39
 528 254 528 254 528 251 c 128,-1,40
 528 248 528 248 502 213 c 128,-1,41
 476 178 476 178 426 134 c 0,42,43
 300 24 300 24 96 -28 c 1,44,-1
 -240 -598 l 2,45,46
 -476 -1000 -476 -1000 -762 -1000 c 0,47,48
 -872 -1000 -872 -1000 -949 -927 c 128,-1,49
 -1026 -854 -1026 -854 -1026 -746 c 128,-1,50
 -1026 -638 -1026 -638 -982 -543 c 128,-1,51
 -938 -448 -938 -448 -871 -380 c 128,-1,52
 -804 -312 -804 -312 -712 -254 c 0,53,54
 -502 -122 -502 -122 -228 -68 c 0,55,56
 -164 -54 -164 -54 -85 -42 c 128,-1,57
 -6 -30 -6 -30 30 -24 c 1,58,59
 232 356 232 356 232 406 c 0,21,22
EndSplineSet
EndChar

StartChar: k
Encoding: 107 107 78
Width: 574
VWidth: 2000
GlyphClass: 2
Flags: W
AnchorPoint: "Anchor-5" 998 1520 basechar 0
AnchorPoint: "Anchor-3" 146 -100 basechar 0
LayerCount: 2
Fore
SplineSet
442 648 m 1,0,1
 666 834 666 834 801 1002 c 128,-1,2
 936 1170 936 1170 936 1340 c 0,3,4
 936 1380 936 1380 910 1380 c 0,5,6
 864 1380 864 1380 775 1251 c 128,-1,7
 686 1122 686 1122 588 932 c 2,8,-1
 442 648 l 1,0,1
556 406 m 1,9,10
 540 410 540 410 528 410 c 0,11,12
 444 410 444 410 347 332 c 128,-1,13
 250 254 250 254 250 164 c 0,14,15
 250 16 250 16 384 16 c 0,16,17
 500 16 500 16 644 142 c 0,18,19
 710 200 710 200 728 227 c 128,-1,20
 746 254 746 254 750 254 c 128,-1,21
 754 254 754 254 754 251 c 128,-1,22
 754 248 754 248 730 215 c 128,-1,23
 706 182 706 182 656 138 c 1,24,25
 500 -18 500 -18 341 -18 c 128,-1,26
 182 -18 182 -18 182 128 c 1,27,-1
 184 144 l 1,28,-1
 132 46 l 2,29,30
 120 26 120 26 116 14 c 0,31,32
 112 8 112 8 82 -1 c 128,-1,33
 52 -10 52 -10 43 -10 c 128,-1,34
 34 -10 34 -10 34 -5 c 128,-1,35
 34 0 34 0 70 72 c 1,36,-1
 168 248 l 2,37,38
 178 262 178 262 328 538 c 1,39,-1
 134 398 l 1,40,-1
 124 392 l 1,41,42
 120 392 120 392 120 396 c 128,-1,43
 120 400 120 400 212 468 c 2,44,-1
 342 564 l 1,45,-1
 516 894 l 2,46,47
 526 912 526 912 555 969 c 128,-1,48
 584 1026 584 1026 596 1048 c 2,49,-1
 638 1120 l 2,50,51
 666 1168 666 1168 686 1196 c 2,52,-1
 734 1260 l 2,53,54
 782 1322 782 1322 855 1375 c 128,-1,55
 928 1428 928 1428 982 1428 c 0,56,57
 1016 1428 1016 1428 1016 1384 c 0,58,59
 1016 1164 1016 1164 748 898 c 0,60,61
 658 810 658 810 592 754 c 2,62,-1
 426 616 l 1,63,-1
 254 274 l 1,64,65
 330 354 330 354 430 402 c 128,-1,66
 530 450 530 450 575 450 c 128,-1,67
 620 450 620 450 620 444 c 128,-1,68
 620 438 620 438 596 422 c 128,-1,69
 572 406 572 406 556 406 c 1,9,10
EndSplineSet
EndChar

StartChar: l
Encoding: 108 108 79
Width: 436
VWidth: 2000
GlyphClass: 2
Flags: W
AnchorPoint: "Anchor-5" 998 1520 basechar 0
AnchorPoint: "Anchor-3" 96 -100 basechar 0
AnchorPoint: "Anchor-1" 1084 1206 basechar 0
AnchorPoint: "Anchor-0" 456 400 basechar 0
LayerCount: 2
Fore
SplineSet
436 648 m 1,0,1
 660 834 660 834 795 1002 c 128,-1,2
 930 1170 930 1170 930 1340 c 0,3,4
 930 1380 930 1380 904 1380 c 0,5,6
 858 1380 858 1380 769 1251 c 128,-1,7
 680 1122 680 1122 582 932 c 2,8,-1
 436 648 l 1,0,1
322 538 m 1,9,-1
 134 398 l 1,10,-1
 124 392 l 1,11,12
 120 392 120 392 120 396 c 128,-1,13
 120 400 120 400 184 446 c 128,-1,14
 248 492 248 492 336 564 c 1,15,-1
 602 1076 l 2,16,17
 656 1178 656 1178 694 1226 c 0,18,19
 782 1330 782 1330 852 1376 c 1,20,21
 922 1428 922 1428 976 1428 c 0,22,23
 1010 1428 1010 1428 1010 1384 c 0,24,25
 1010 1164 1010 1164 740 898 c 0,26,27
 652 810 652 810 588 754 c 1,28,-1
 420 616 l 1,29,-1
 284 350 l 2,30,31
 170 126 170 126 170 68 c 0,32,33
 170 42 170 42 186 24 c 128,-1,34
 202 6 202 6 228 6 c 0,35,36
 350 6 350 6 508 142 c 0,37,38
 574 200 574 200 592 227 c 128,-1,39
 610 254 610 254 614 254 c 128,-1,40
 618 254 618 254 618 251 c 128,-1,41
 618 248 618 248 616 244 c 0,42,43
 518 114 518 114 400 46 c 128,-1,44
 282 -22 282 -22 188 -22 c 128,-1,45
 94 -22 94 -22 94 60 c 0,46,47
 94 110 94 110 168 248 c 2,48,-1
 322 538 l 1,9,-1
EndSplineSet
EndChar

StartChar: m
Encoding: 109 109 80
Width: 736
VWidth: 2000
GlyphClass: 2
Flags: W
AnchorPoint: "Anchor-5" 536 548 basechar 0
AnchorPoint: "Anchor-3" 248 -100 basechar 0
LayerCount: 2
Fore
SplineSet
208 432 m 0,0,1
 188 432 188 432 158 412 c 128,-1,2
 128 392 128 392 124 392 c 128,-1,3
 120 392 120 392 120 396 c 128,-1,4
 120 400 120 400 165 430 c 128,-1,5
 210 460 210 460 246 460 c 0,6,7
 304 460 304 460 304 414 c 0,8,9
 304 376 304 376 260 302 c 1,10,11
 296 336 296 336 308 346 c 2,12,13
 334 370 l 0,14,15
 396 424 396 424 444 424 c 0,16,17
 476 424 476 424 476 372 c 0,18,19
 476 336 476 336 450 284 c 1,20,-1
 496 324 l 2,21,22
 524 348 524 348 592 389 c 128,-1,23
 660 430 660 430 707 430 c 128,-1,24
 754 430 754 430 754 384 c 0,25,26
 754 356 754 356 700 272 c 0,27,28
 534 24 534 24 534 -142 c 0,29,30
 534 -220 534 -220 573 -281 c 128,-1,31
 612 -342 612 -342 687 -342 c 128,-1,32
 762 -342 762 -342 861 -271 c 128,-1,33
 960 -200 960 -200 1010 -128 c 0,34,35
 1014 -122 1014 -122 1018 -122 c 128,-1,36
 1022 -122 1022 -122 1022 -125 c 128,-1,37
 1022 -128 1022 -128 1020 -132 c 0,38,39
 950 -226 950 -226 851 -295 c 128,-1,40
 752 -364 752 -364 665 -364 c 128,-1,41
 578 -364 578 -364 523 -305 c 128,-1,42
 468 -246 468 -246 468 -157 c 128,-1,43
 468 -68 468 -68 498 21 c 128,-1,44
 528 110 528 110 565 169 c 128,-1,45
 602 228 602 228 632 281 c 128,-1,46
 662 334 662 334 662 356 c 128,-1,47
 662 378 662 378 631 378 c 128,-1,48
 600 378 600 378 540 334 c 128,-1,49
 480 290 480 290 440 242 c 128,-1,50
 400 194 400 194 356 194 c 0,51,52
 350 194 350 194 350 202 c 128,-1,53
 350 210 350 210 353 214 c 128,-1,54
 356 218 356 218 362 221 c 128,-1,55
 368 224 368 224 370 226 c 0,56,57
 410 312 410 312 410 341 c 128,-1,58
 410 370 410 370 394 370 c 0,59,60
 352 370 352 370 254 264 c 0,61,62
 230 236 230 236 171 136 c 128,-1,63
 112 36 112 36 108 30 c 128,-1,64
 104 24 104 24 97 20 c 128,-1,65
 90 16 90 16 80 12 c 128,-1,66
 70 8 70 8 51 -3 c 128,-1,67
 32 -14 32 -14 25 -14 c 128,-1,68
 18 -14 18 -14 18 -6 c 128,-1,69
 18 2 18 2 27 13 c 128,-1,70
 36 24 36 24 137 197 c 128,-1,71
 238 370 238 370 238 401 c 128,-1,72
 238 432 238 432 208 432 c 0,0,1
EndSplineSet
EndChar

StartChar: n
Encoding: 110 110 81
Width: 628
VWidth: 2000
GlyphClass: 2
Flags: W
AnchorPoint: "Anchor-5" 456 548 basechar 0
AnchorPoint: "Anchor-3" 204 -100 basechar 0
LayerCount: 2
Fore
SplineSet
76 86 m 0,0,1
 238 360 238 360 238 404 c 0,2,3
 238 428 238 428 211 428 c 128,-1,4
 184 428 184 428 124 392 c 1,5,6
 120 392 120 392 120 396 c 128,-1,7
 120 400 120 400 126 404 c 0,8,9
 196 456 196 456 252 456 c 0,10,11
 276 456 276 456 291 442 c 128,-1,12
 306 428 306 428 306 407 c 128,-1,13
 306 386 306 386 266 314 c 1,14,15
 428 452 428 452 516 452 c 0,16,17
 574 452 574 452 574 380 c 0,18,19
 574 344 574 344 506 219 c 128,-1,20
 438 94 438 94 438 57 c 128,-1,21
 438 20 438 20 470 20 c 0,22,23
 560 20 560 20 688 132 c 0,24,25
 766 200 766 200 796 248 c 0,26,27
 800 254 800 254 804 254 c 128,-1,28
 808 254 808 254 808 252 c 0,29,30
 808 234 808 234 700 126 c 1,31,32
 624 54 624 54 547 17 c 128,-1,33
 470 -20 470 -20 418 -20 c 128,-1,34
 366 -20 366 -20 366 26 c 0,35,36
 366 78 366 78 434 203 c 128,-1,37
 502 328 502 328 502 371 c 128,-1,38
 502 414 502 414 465 414 c 128,-1,39
 428 414 428 414 342 352 c 128,-1,40
 256 290 256 290 248 274 c 2,41,-1
 102 8 l 2,42,43
 98 2 98 2 83 -2 c 128,-1,44
 68 -6 68 -6 54 -11 c 128,-1,45
 40 -16 40 -16 36 -16 c 0,46,47
 24 -16 24 -16 24 -9 c 128,-1,48
 24 -2 24 -2 76 86 c 0,0,1
EndSplineSet
EndChar

StartChar: o
Encoding: 111 111 82
Width: 536
VWidth: 2000
GlyphClass: 2
Flags: W
AnchorPoint: "Anchor-5" 478 548 basechar 0
AnchorPoint: "Anchor-4" 182 0 basechar 0
AnchorPoint: "Anchor-3" 132 -100 basechar 0
LayerCount: 2
Fore
SplineSet
457 404 m 128,-1,1
 452 400 452 400 451 400 c 128,-1,2
 450 400 450 400 444 402 c 1,3,4
 444 382 444 382 461 363 c 128,-1,5
 478 344 478 344 500 338 c 1,6,7
 502 354 502 354 501 382 c 128,-1,8
 500 410 500 410 484 441 c 128,-1,9
 468 472 468 472 458 472 c 0,10,11
 444 472 444 472 444 432 c 1,12,13
 462 428 462 428 462 412 c 0,14,0
 462 408 462 408 457 404 c 128,-1,1
496 320 m 1,15,16
 456 322 456 322 424 351 c 128,-1,17
 392 380 392 380 390 420 c 1,18,19
 300 420 300 420 218 306 c 128,-1,20
 136 192 136 192 136 82 c 0,21,22
 136 54 136 54 152 31 c 128,-1,23
 168 8 168 8 200 8 c 0,24,25
 290 8 290 8 381 108 c 128,-1,26
 472 208 472 208 496 320 c 1,15,16
676 406 m 128,-1,28
 676 402 676 402 672 399 c 128,-1,29
 668 396 668 396 639 376 c 128,-1,30
 610 356 610 356 598 348 c 0,31,32
 554 324 554 324 516 320 c 1,33,34
 492 192 492 192 389 87 c 128,-1,35
 286 -18 286 -18 174 -18 c 128,-1,36
 62 -18 62 -18 62 84 c 0,37,38
 62 210 62 210 167 326 c 128,-1,39
 272 442 272 442 390 442 c 1,40,41
 392 468 392 468 405 492 c 128,-1,42
 418 516 418 516 448 516 c 128,-1,43
 478 516 478 516 500 479 c 128,-1,44
 522 442 522 442 522 405 c 128,-1,45
 522 368 522 368 518 336 c 1,46,47
 564 336 564 336 662 404 c 1,48,-1
 672 410 l 1,49,27
 676 410 676 410 676 406 c 128,-1,28
EndSplineSet
EndChar

StartChar: p
Encoding: 112 112 83
Width: 524
VWidth: 2000
GlyphClass: 2
Flags: W
AnchorPoint: "Anchor-5" 440 548 basechar 0
LayerCount: 2
Fore
SplineSet
148 176 m 1,0,-1
 74 38 l 1,1,2
 228 68 228 68 359 182 c 128,-1,3
 490 296 490 296 490 357 c 128,-1,4
 490 418 490 418 446 418 c 0,5,6
 408 418 408 418 311 337 c 128,-1,7
 214 256 214 256 148 176 c 1,0,-1
156 -50 m 0,8,9
 94 -50 94 -50 38 -22 c 1,10,11
 -64 -210 -64 -210 -200 -487 c 128,-1,12
 -336 -764 -336 -764 -438 -948 c 0,13,14
 -464 -994 -464 -994 -511 -1024 c 128,-1,15
 -558 -1054 -558 -1054 -585 -1060 c 128,-1,16
 -612 -1066 -612 -1066 -624 -1066 c 128,-1,17
 -636 -1066 -636 -1066 -636 -1060 c 128,-1,18
 -636 -1054 -636 -1054 -631 -1051 c 128,-1,19
 -626 -1048 -626 -1048 -612 -1041 c 128,-1,20
 -598 -1034 -598 -1034 -579 -1019 c 128,-1,21
 -560 -1004 -560 -1004 -529 -960 c 128,-1,22
 -498 -916 -498 -916 -362 -680 c 1,23,-1
 12 -4 l 1,24,25
 6 2 6 2 6 6 c 128,-1,26
 6 10 6 10 15 17 c 128,-1,27
 24 24 24 24 28 24 c 1,28,29
 146 240 146 240 146 310 c 128,-1,30
 146 380 146 380 126 386 c 0,31,32
 118 388 118 388 118 394 c 1,33,-1
 136 408 l 2,34,35
 142 412 142 412 150 420 c 128,-1,36
 158 428 158 428 160 430 c 0,37,38
 168 434 168 434 176 434 c 0,39,40
 192 434 192 434 202 405 c 128,-1,41
 212 376 212 376 212 340 c 128,-1,42
 212 304 212 304 188 252 c 1,43,44
 408 468 408 468 516 468 c 0,45,46
 568 468 568 468 568 400 c 0,47,48
 568 310 568 310 422 188 c 128,-1,49
 276 66 276 66 98 20 c 1,50,51
 154 -10 154 -10 216 -10 c 0,52,53
 410 -10 410 -10 584 134 c 1,54,55
 658 198 658 198 692 248 c 0,56,57
 696 254 696 254 700 254 c 128,-1,58
 704 254 704 254 704 251 c 128,-1,59
 704 248 704 248 678 212 c 128,-1,60
 652 176 652 176 594 124 c 0,61,62
 400 -50 400 -50 156 -50 c 0,8,9
EndSplineSet
EndChar

StartChar: q
Encoding: 113 113 84
Width: 632
VWidth: 2000
GlyphClass: 2
Flags: W
LayerCount: 2
Fore
SplineSet
800 248 m 2,0,1
 804 254 804 254 808 254 c 128,-1,2
 812 254 812 254 812 252 c 0,3,4
 812 240 812 240 712 136 c 2,5,-1
 258 -332 l 1,6,-1
 168 -432 l 2,7,8
 134 -470 134 -470 112 -503 c 128,-1,9
 90 -536 90 -536 10 -672 c 2,10,-1
 -136 -916 l 2,11,12
 -202 -1026 -202 -1026 -211 -1026 c 128,-1,13
 -220 -1026 -220 -1026 -232 -1012 c 128,-1,14
 -244 -998 -244 -998 -244 -988 c 0,15,16
 -244 -946 -244 -946 -184 -855 c 128,-1,17
 -124 -764 -124 -764 -49 -674 c 128,-1,18
 26 -584 26 -584 66 -509 c 128,-1,19
 106 -434 106 -434 271 -149 c 128,-1,20
 436 136 436 136 476 210 c 1,21,22
 438 154 438 154 340 76 c 128,-1,23
 242 -2 242 -2 160 -2 c 0,24,25
 120 -2 120 -2 93 26 c 128,-1,26
 66 54 66 54 66 98 c 0,27,28
 66 214 66 214 179 339 c 128,-1,29
 292 464 292 464 388 464 c 128,-1,30
 484 464 484 464 484 376 c 0,31,32
 484 348 484 348 472 314 c 0,33,34
 468 302 468 302 456 302 c 128,-1,35
 444 302 444 302 444 310 c 128,-1,36
 444 318 444 318 456 347 c 128,-1,37
 468 376 468 376 468 396 c 128,-1,38
 468 416 468 416 449 429 c 128,-1,39
 430 442 430 442 406 442 c 0,40,41
 332 442 332 442 236 324 c 128,-1,42
 140 206 140 206 140 92 c 0,43,44
 140 68 140 68 157 51 c 128,-1,45
 174 34 174 34 200 34 c 0,46,47
 264 34 264 34 349 104 c 128,-1,48
 434 174 434 174 480 272 c 0,49,50
 484 280 484 280 488 296 c 0,51,52
 500 334 500 334 504 334 c 0,53,54
 520 342 520 342 559 342 c 128,-1,55
 598 342 598 342 598 320 c 0,56,57
 598 314 598 314 576 286 c 2,58,-1
 524 216 l 2,59,60
 492 174 492 174 474 142 c 2,61,-1
 180 -372 l 1,62,63
 290 -254 290 -254 710 158 c 1,64,-1
 800 248 l 2,0,1
EndSplineSet
EndChar

StartChar: r
Encoding: 114 114 85
Width: 440
VWidth: 2000
GlyphClass: 2
Flags: W
AnchorPoint: "Anchor-5" 394 548 basechar 0
AnchorPoint: "Anchor-3" 10 -100 basechar 0
LayerCount: 2
Fore
SplineSet
200 424 m 0,0,1
 178 424 178 424 124 392 c 1,2,3
 120 392 120 392 120 396 c 128,-1,4
 120 400 120 400 126 404 c 0,5,6
 190 448 190 448 226 448 c 0,7,8
 294 448 294 448 294 392 c 0,9,10
 294 372 294 372 276 340 c 2,11,-1
 250 288 l 2,12,13
 240 270 240 270 238 268 c 1,14,15
 364 412 364 412 550 484 c 0,16,17
 562 488 562 488 565 488 c 128,-1,18
 568 488 568 488 568 484 c 1,19,-1
 560 476 l 1,20,21
 530 462 530 462 504 434 c 128,-1,22
 478 406 478 406 478 388 c 128,-1,23
 478 370 478 370 499 370 c 128,-1,24
 520 370 520 370 566 404 c 1,25,-1
 576 410 l 1,26,27
 580 410 580 410 580 406 c 128,-1,28
 580 402 580 402 574 398 c 0,29,30
 502 346 502 346 457 346 c 128,-1,31
 412 346 412 346 412 376 c 0,32,33
 412 392 412 392 424 408 c 1,34,35
 316 346 316 346 192 180 c 1,36,37
 84 -18 84 -18 70 -18 c 0,38,39
 60 -18 60 -18 55 -8 c 128,-1,40
 50 2 50 2 42 14 c 128,-1,41
 34 26 34 26 34 33 c 128,-1,42
 34 40 34 40 48 62 c 128,-1,43
 62 84 62 84 81 104 c 128,-1,44
 100 124 100 124 112 142 c 1,45,46
 194 296 194 296 212 333 c 128,-1,47
 230 370 230 370 230 392 c 0,48,49
 230 424 230 424 200 424 c 0,0,1
EndSplineSet
EndChar

StartChar: s
Encoding: 115 115 86
Width: 504
VWidth: 2000
GlyphClass: 2
Flags: W
AnchorPoint: "Anchor-5" 462 548 basechar 0
AnchorPoint: "Anchor-4" 164 -20 basechar 0
AnchorPoint: "Anchor-3" 112 -100 basechar 0
LayerCount: 2
Fore
SplineSet
82 110 m 2,0,-1
 80 84 l 1,1,2
 80 44 80 44 102 16 c 128,-1,3
 124 -12 124 -12 164 -12 c 0,4,5
 248 -12 248 -12 353 107 c 128,-1,6
 458 226 458 226 458 328 c 128,-1,7
 458 430 458 430 406 430 c 0,8,9
 368 430 368 430 313 386 c 128,-1,10
 258 342 258 342 228 306 c 2,11,-1
 178 244 l 2,12,13
 174 238 174 238 170 238 c 128,-1,14
 166 238 166 238 166 241 c 128,-1,15
 166 244 166 244 168 248 c 0,16,17
 318 456 318 456 432 456 c 0,18,19
 478 456 478 456 506 420 c 128,-1,20
 534 384 534 384 534 334 c 0,21,22
 534 220 534 220 400 96 c 128,-1,23
 266 -28 266 -28 154 -28 c 0,24,25
 114 -28 114 -28 67 -12 c 128,-1,26
 20 4 20 4 18 30 c 0,27,28
 18 44 18 44 44 79 c 128,-1,29
 70 114 70 114 80 114 c 0,30,31
 82 114 82 114 82 110 c 2,0,-1
EndSplineSet
EndChar

StartChar: t
Encoding: 116 116 87
Width: 460
VWidth: 2000
GlyphClass: 2
Flags: W
AnchorPoint: "Anchor-5" 542 922 basechar 0
AnchorPoint: "Anchor-4" 192 0 basechar 0
AnchorPoint: "Anchor-3" 172 -100 basechar 0
AnchorPoint: "Anchor-1" 604 686 basechar 0
LayerCount: 2
Fore
SplineSet
126 404 m 2,0,-1
 156 426 l 2,1,2
 170 436 170 436 280 454 c 1,3,-1
 442 754 l 1,4,5
 474 818 474 818 520 820 c 0,6,7
 536 820 536 820 536 812 c 128,-1,8
 536 804 536 804 486 719 c 128,-1,9
 436 634 436 634 348 464 c 1,10,-1
 536 494 l 2,11,12
 542 494 542 494 542 492 c 0,13,14
 542 486 542 486 527 477 c 128,-1,15
 512 468 512 468 505 468 c 128,-1,16
 498 468 498 468 336 442 c 1,17,-1
 240 242 l 1,18,19
 186 122 186 122 186 86 c 128,-1,20
 186 50 186 50 207 27 c 128,-1,21
 228 4 228 4 271 4 c 128,-1,22
 314 4 314 4 360 21 c 128,-1,23
 406 38 406 38 436 60 c 0,24,25
 574 166 574 166 628 248 c 0,26,27
 632 254 632 254 636 254 c 128,-1,28
 640 254 640 254 640 251 c 128,-1,29
 640 248 640 248 615 215 c 128,-1,30
 590 182 590 182 524 118 c 128,-1,31
 458 54 458 54 391 18 c 128,-1,32
 324 -18 324 -18 224 -18 c 0,33,34
 178 -18 178 -18 144 8 c 128,-1,35
 110 34 110 34 110 90 c 128,-1,36
 110 146 110 146 168 248 c 1,37,-1
 264 426 l 1,38,39
 138 400 138 400 134 398 c 2,40,-1
 124 392 l 1,41,42
 120 392 120 392 120 396 c 128,-1,43
 120 400 120 400 126 404 c 2,0,-1
EndSplineSet
EndChar

StartChar: u
Encoding: 117 117 88
Width: 642
VWidth: 2000
GlyphClass: 2
Flags: W
AnchorPoint: "Anchor-5" 450 548 basechar 0
AnchorPoint: "Anchor-4" 438 0 basechar 0
AnchorPoint: "Anchor-3" 238 -100 basechar 0
LayerCount: 2
Fore
SplineSet
234 398 m 0,0,1
 234 424 234 424 206 424 c 128,-1,2
 178 424 178 424 124 392 c 1,3,4
 120 392 120 392 120 396 c 128,-1,5
 120 400 120 400 126 404 c 0,6,7
 190 448 190 448 236 448 c 0,8,9
 302 448 302 448 302 390 c 0,10,11
 302 360 302 360 226 226 c 128,-1,12
 150 92 150 92 150 66 c 0,13,14
 150 24 150 24 203 24 c 128,-1,15
 256 24 256 24 319 64 c 128,-1,16
 382 104 382 104 416 142 c 1,17,18
 438 190 438 190 494 290 c 128,-1,19
 550 390 550 390 564 408 c 1,20,21
 600 446 600 446 628 446 c 0,22,23
 636 446 636 446 636 434 c 128,-1,24
 636 422 636 422 590 340 c 128,-1,25
 544 258 544 258 486 184 c 1,26,27
 452 110 452 110 452 65 c 128,-1,28
 452 20 452 20 484 20 c 0,29,30
 578 20 578 20 670 98 c 128,-1,31
 762 176 762 176 810 248 c 0,32,33
 814 254 814 254 818 254 c 128,-1,34
 822 254 822 254 822 251 c 128,-1,35
 822 248 822 248 820 244 c 0,36,37
 760 150 760 150 647 65 c 128,-1,38
 534 -20 534 -20 436 -20 c 0,39,40
 384 -20 384 -20 384 26 c 0,41,42
 384 56 384 56 400 98 c 1,43,44
 248 -16 248 -16 144 -16 c 0,45,46
 120 -16 120 -16 97 -1 c 128,-1,47
 74 14 74 14 74 50 c 128,-1,48
 74 86 74 86 154 227 c 128,-1,49
 234 368 234 368 234 398 c 0,0,1
EndSplineSet
EndChar

StartChar: v
Encoding: 118 118 89
Width: 426
VWidth: 2000
GlyphClass: 2
Flags: W
AnchorPoint: "Anchor-5" 398 548 basechar 0
AnchorPoint: "Anchor-3" 76 -100 basechar 0
LayerCount: 2
Fore
SplineSet
168 248 m 1,0,1
 222 380 222 380 222 403 c 128,-1,2
 222 426 222 426 201 426 c 128,-1,3
 180 426 180 426 124 392 c 1,4,5
 120 392 120 392 120 396 c 128,-1,6
 120 400 120 400 126 404 c 0,7,8
 190 452 190 452 244 452 c 0,9,10
 292 452 292 452 292 396 c 0,11,12
 292 350 292 350 239 236 c 128,-1,13
 186 122 186 122 174 90 c 1,14,15
 178 96 178 96 208 134 c 0,16,17
 312 264 312 264 326 280 c 2,18,-1
 368 328 l 2,19,20
 398 362 398 362 416 380 c 2,21,-1
 462 424 l 2,22,23
 490 450 490 450 514 468 c 2,24,-1
 566 506 l 2,25,26
 656 570 656 570 682 570 c 0,27,28
 686 570 686 570 686 564 c 1,29,-1
 630 530 l 1,30,31
 520 460 520 460 406 335 c 128,-1,32
 292 210 292 210 214 100 c 2,33,-1
 136 -12 l 1,34,35
 124 -24 124 -24 106 -24 c 0,36,37
 92 -24 92 -24 92 25 c 128,-1,38
 92 74 92 74 168 248 c 1,0,1
EndSplineSet
EndChar

StartChar: w
Encoding: 119 119 90
Width: 758
VWidth: 2000
GlyphClass: 2
Flags: W
AnchorPoint: "Anchor-5" 452 548 basechar 0
AnchorPoint: "Anchor-3" 242 -100 basechar 0
LayerCount: 2
Fore
SplineSet
892 398 m 0,0,1
 766 316 766 316 700 316 c 0,2,3
 680 316 680 316 660 322 c 1,4,5
 670 276 670 276 670 232 c 0,6,7
 670 100 670 100 600 38 c 128,-1,8
 530 -24 530 -24 474 -24 c 128,-1,9
 418 -24 418 -24 403 5 c 128,-1,10
 388 34 388 34 388 90 c 0,11,12
 388 222 388 222 362 222 c 0,13,14
 344 222 344 222 271 163 c 128,-1,15
 198 104 198 104 174 82 c 128,-1,16
 150 60 150 60 138 48 c 2,17,-1
 118 28 l 2,18,19
 86 -4 86 -4 71 -4 c 128,-1,20
 56 -4 56 -4 56 20 c 0,21,22
 56 90 56 90 196 304 c 0,23,24
 262 406 262 406 262 417 c 128,-1,25
 262 428 262 428 255 435 c 128,-1,26
 248 442 248 442 240 442 c 0,27,28
 200 442 200 442 134 398 c 1,29,-1
 124 392 l 1,30,31
 120 392 120 392 120 396 c 128,-1,32
 120 400 120 400 125 404 c 128,-1,33
 130 408 130 408 151 423 c 128,-1,34
 172 438 172 438 209 455 c 128,-1,35
 246 472 246 472 272 472 c 0,36,37
 332 472 332 472 332 412 c 0,38,39
 332 388 332 388 302 342 c 2,40,-1
 220 216 l 2,41,42
 168 138 168 138 132 68 c 1,43,44
 186 124 186 124 273 196 c 128,-1,45
 360 268 360 268 400 268 c 0,46,47
 452 268 452 268 452 106 c 0,48,49
 452 2 452 2 498 2 c 0,50,51
 552 2 552 2 582 61 c 128,-1,52
 612 120 612 120 612 203 c 128,-1,53
 612 286 612 286 572 384 c 1,54,55
 532 424 532 424 532 438 c 128,-1,56
 532 452 532 452 557 465 c 128,-1,57
 582 478 582 478 590 478 c 0,58,59
 608 478 608 478 640 396 c 1,60,61
 690 346 690 346 742 346 c 128,-1,62
 794 346 794 346 884 404 c 0,63,64
 892 410 892 410 895 410 c 128,-1,65
 898 410 898 410 898 406 c 128,-1,66
 898 402 898 402 892 398 c 0,0,1
EndSplineSet
EndChar

StartChar: x
Encoding: 120 120 91
Width: 448
VWidth: 2000
GlyphClass: 2
Flags: W
AnchorPoint: "Anchor-5" 330 548 basechar 0
LayerCount: 2
Fore
SplineSet
616 248 m 0,0,1
 620 254 620 254 624 254 c 128,-1,2
 628 254 628 254 628 251 c 128,-1,3
 628 248 628 248 626 244 c 0,4,5
 574 170 574 170 475 82 c 128,-1,6
 376 -6 376 -6 326 -6 c 0,7,8
 298 -6 298 -6 289 7 c 128,-1,9
 280 20 280 20 276 24 c 128,-1,10
 272 28 272 28 268 36 c 128,-1,11
 264 44 264 44 261 49 c 128,-1,12
 258 54 258 54 252 63 c 128,-1,13
 246 72 246 72 244 78 c 1,14,15
 -14 -226 -14 -226 -248 -406 c 0,16,17
 -266 -418 -266 -418 -281 -419 c 128,-1,18
 -296 -420 -296 -420 -320 -424 c 128,-1,19
 -344 -428 -344 -428 -347 -428 c 128,-1,20
 -350 -428 -350 -428 -350 -425 c 128,-1,21
 -350 -422 -350 -422 -332 -410 c 0,22,23
 -108 -258 -108 -258 26 -124 c 1,24,25
 150 -4 150 -4 232 98 c 1,26,27
 190 176 190 176 154 272 c 128,-1,28
 118 368 118 368 118 404 c 0,29,30
 118 406 118 406 142 423 c 128,-1,31
 166 440 166 440 172 447 c 128,-1,32
 178 454 178 454 181 457 c 128,-1,33
 184 460 184 460 188 460 c 128,-1,34
 192 460 192 460 204 370 c 128,-1,35
 216 280 216 280 264 144 c 1,36,-1
 410 374 l 2,37,38
 414 382 414 382 420 394 c 2,39,-1
 432 412 l 2,40,41
 440 426 440 426 462 426 c 128,-1,42
 484 426 484 426 484 422 c 1,43,44
 466 404 466 404 407 310 c 128,-1,45
 348 216 348 216 276 120 c 1,46,47
 312 36 312 36 356 36 c 0,48,49
 392 36 392 36 496 122 c 1,50,51
 578 194 578 194 616 248 c 0,0,1
EndSplineSet
EndChar

StartChar: y
Encoding: 121 121 92
Width: 604
VWidth: 2000
GlyphClass: 2
Flags: W
AnchorPoint: "Anchor-5" 450 548 basechar 0
LayerCount: 2
Fore
SplineSet
244 -166 m 1,0,1
 -88 -356 l 1,2,3
 -274 -468 -274 -468 -326 -516 c 128,-1,4
 -378 -564 -378 -564 -420 -612 c 0,5,6
 -496 -698 -496 -698 -496 -812 c 0,7,8
 -496 -884 -496 -884 -445 -927 c 128,-1,9
 -394 -970 -394 -970 -326 -970 c 0,10,11
 -230 -970 -230 -970 -121 -810 c 128,-1,12
 -12 -650 -12 -650 244 -166 c 1,0,1
232 398 m 128,-1,14
 232 426 232 426 206 426 c 128,-1,15
 180 426 180 426 124 392 c 1,16,17
 120 392 120 392 120 396 c 128,-1,18
 120 400 120 400 126 404 c 0,19,20
 190 448 190 448 245 448 c 128,-1,21
 300 448 300 448 300 394 c 0,22,23
 300 372 300 372 229 230 c 128,-1,24
 158 88 158 88 158 56 c 128,-1,25
 158 24 158 24 222 24 c 128,-1,26
 286 24 286 24 394 114 c 1,27,-1
 504 322 l 2,28,29
 512 340 512 340 521 364 c 128,-1,30
 530 388 530 388 534 396 c 0,31,32
 546 426 546 426 616 426 c 0,33,34
 622 426 622 426 622 422 c 128,-1,35
 622 418 622 418 608 396 c 2,36,-1
 570 340 l 2,37,38
 548 308 548 308 536 284 c 2,39,-1
 332 -94 l 1,40,-1
 492 8 l 2,41,42
 694 138 694 138 772 248 c 0,43,44
 776 254 776 254 780 254 c 128,-1,45
 784 254 784 254 784 251 c 128,-1,46
 784 248 784 248 767 224 c 128,-1,47
 750 200 750 200 730 176 c 0,48,49
 670 106 670 106 500 -2 c 1,50,-1
 316 -122 l 1,51,52
 104 -516 l 0,53,54
 62 -592 62 -592 36 -636 c 1,55,56
 -32 -740 l 0,57,58
 -88 -824 -88 -824 -146 -884 c 128,-1,59
 -204 -944 -204 -944 -238 -964 c 0,60,61
 -316 -1010 -316 -1010 -394 -1010 c 128,-1,62
 -472 -1010 -472 -1010 -518 -959 c 128,-1,63
 -564 -908 -564 -908 -564 -840 c 128,-1,64
 -564 -772 -564 -772 -531 -703 c 128,-1,65
 -498 -634 -498 -634 -453 -584 c 128,-1,66
 -408 -534 -408 -534 -316 -471 c 128,-1,67
 -224 -408 -224 -408 -154 -368 c 2,68,-1
 260 -136 l 1,69,-1
 378 84 l 1,70,71
 254 -16 254 -16 152 -16 c 0,72,73
 128 -16 128 -16 105 -1 c 128,-1,74
 82 14 82 14 82 41 c 128,-1,75
 82 68 82 68 91 93 c 128,-1,76
 100 118 100 118 109 137 c 128,-1,77
 118 156 118 156 138 192 c 2,78,-1
 168 248 l 2,79,13
 232 370 232 370 232 398 c 128,-1,14
EndSplineSet
EndChar

StartChar: z
Encoding: 122 122 93
Width: 478
VWidth: 2000
GlyphClass: 2
Flags: W
AnchorPoint: "Anchor-5" 362 548 basechar 0
AnchorPoint: "Anchor-3" -454 -848 basechar 0
LayerCount: 2
Fore
SplineSet
274 -34 m 1,0,1
 258 -40 258 -40 208 -52 c 0,2,3
 -92 -134 -92 -134 -300 -344 c 1,4,5
 -442 -492 -442 -492 -442 -634 c 0,6,7
 -442 -672 -442 -672 -420 -698 c 128,-1,8
 -398 -724 -398 -724 -366 -724 c 0,9,10
 -258 -724 -258 -724 -151 -648 c 128,-1,11
 -44 -572 -44 -572 40 -448 c 0,12,13
 182 -240 182 -240 274 -34 c 1,0,1
516 438 m 0,14,15
 516 388 516 388 228 152 c 1,16,17
 378 152 378 152 378 72 c 0,18,19
 378 48 378 48 372 24 c 1,20,21
 460 64 460 64 537 132 c 128,-1,22
 614 200 614 200 646 248 c 0,23,24
 650 254 650 254 654 254 c 128,-1,25
 658 254 658 254 658 251 c 128,-1,26
 658 248 658 248 656 244 c 0,27,28
 594 166 594 166 532 110 c 128,-1,29
 470 54 470 54 364 2 c 1,30,31
 288 -218 288 -218 82 -470 c 0,32,33
 -16 -590 -16 -590 -140 -669 c 128,-1,34
 -264 -748 -264 -748 -382 -748 c 0,35,36
 -434 -748 -434 -748 -475 -720 c 128,-1,37
 -516 -692 -516 -692 -516 -640 c 0,38,39
 -516 -532 -516 -532 -420 -416 c 1,40,41
 -256 -210 -256 -210 -6 -106 c 0,42,43
 40 -86 40 -86 286 -8 c 1,44,45
 304 32 304 32 304 80 c 0,46,47
 304 140 304 140 216 140 c 1,48,49
 150 80 150 80 114 80 c 0,50,51
 104 80 104 80 104 86 c 0,52,53
 104 106 104 106 137 124 c 128,-1,54
 170 142 170 142 198 148 c 1,55,56
 210 160 210 160 257 200 c 128,-1,57
 304 240 304 240 332 266 c 0,58,59
 414 342 414 342 432 390 c 1,60,61
 302 340 302 340 238 340 c 128,-1,62
 174 340 174 340 145 359 c 128,-1,63
 116 378 116 378 116 394 c 0,64,65
 116 398 116 398 140 414 c 2,66,-1
 172 434 l 2,67,68
 178 438 178 438 182 440 c 128,-1,69
 186 442 186 442 189 444 c 128,-1,70
 192 446 192 446 193 447 c 128,-1,71
 194 448 194 448 196 448 c 2,72,-1
 198 446 l 2,73,74
 198 444 198 444 192 438 c 128,-1,75
 186 432 186 432 186 425 c 128,-1,76
 186 418 186 418 196 408 c 0,77,78
 220 384 220 384 296 384 c 0,79,80
 392 384 392 384 502 440 c 0,81,82
 508 442 508 442 512 442 c 128,-1,83
 516 442 516 442 516 438 c 0,14,15
EndSplineSet
EndChar

StartChar: braceleft
Encoding: 123 123 94
Width: 540
VWidth: 2000
GlyphClass: 2
Flags: W
LayerCount: 2
Fore
SplineSet
242 466 m 2,0,-1
 306 458 l 2,1,2
 322 458 322 458 354 480 c 128,-1,3
 386 502 386 502 419 543 c 128,-1,4
 452 584 452 584 484 671 c 128,-1,5
 516 758 516 758 556 832 c 128,-1,6
 596 906 596 906 676 958 c 1,7,8
 768 1014 768 1014 924 1014 c 0,9,10
 934 1014 934 1014 934 1008 c 0,11,12
 934 998 934 998 914 998 c 0,13,14
 772 998 772 998 703 949 c 128,-1,15
 634 900 634 900 574 733 c 128,-1,16
 514 566 514 566 436 508 c 0,17,18
 406 486 406 486 330 448 c 1,19,20
 364 426 364 426 364 374 c 128,-1,21
 364 322 364 322 321 265 c 128,-1,22
 278 208 278 208 235 142 c 128,-1,23
 192 76 192 76 192 14 c 128,-1,24
 192 -48 192 -48 246 -87 c 128,-1,25
 300 -126 300 -126 364 -126 c 0,26,27
 384 -126 384 -126 384 -134 c 128,-1,28
 384 -142 384 -142 364 -142 c 0,29,30
 122 -142 122 -142 122 -20 c 0,31,32
 122 48 122 48 168 108 c 2,33,-1
 256 228 l 2,34,35
 300 286 300 286 300 348 c 0,36,37
 300 366 300 366 284 391 c 128,-1,38
 268 416 268 416 254 416 c 2,39,-1
 192 410 l 2,40,41
 180 410 180 410 180 428 c 0,42,43
 180 442 180 442 204 454 c 128,-1,44
 228 466 228 466 242 466 c 2,0,-1
EndSplineSet
EndChar

StartChar: bar
Encoding: 124 124 95
Width: 524
VWidth: 2000
GlyphClass: 2
Flags: W
LayerCount: 2
Fore
SplineSet
324 -100 m 2,0,-1
 324 962 l 2,1,2
 324 966 324 966 337 971 c 128,-1,3
 350 976 350 976 352 980 c 1,4,5
 358 984 358 984 360 984 c 128,-1,6
 362 984 362 984 362 980 c 2,7,-1
 362 -82 l 2,8,9
 362 -84 362 -84 347 -91 c 128,-1,10
 332 -98 332 -98 330 -101 c 128,-1,11
 328 -104 328 -104 326 -104 c 128,-1,12
 324 -104 324 -104 324 -100 c 2,0,-1
EndSplineSet
EndChar

StartChar: braceright
Encoding: 125 125 96
Width: 540
VWidth: 2000
GlyphClass: 2
Flags: W
LayerCount: 2
Fore
SplineSet
584 406 m 2,0,-1
 520 414 l 2,1,2
 504 414 504 414 472 392 c 128,-1,3
 440 370 440 370 407 329 c 128,-1,4
 374 288 374 288 342 201 c 128,-1,5
 310 114 310 114 270 40 c 128,-1,6
 230 -34 230 -34 150 -86 c 1,7,8
 58 -142 58 -142 -98 -142 c 0,9,10
 -108 -142 -108 -142 -108 -136 c 0,11,12
 -108 -126 -108 -126 -88 -126 c 0,13,14
 54 -126 54 -126 123 -77 c 128,-1,15
 192 -28 192 -28 252 139 c 128,-1,16
 312 306 312 306 390 364 c 0,17,18
 420 386 420 386 496 424 c 1,19,20
 462 446 462 446 462 498 c 128,-1,21
 462 550 462 550 505 607 c 128,-1,22
 548 664 548 664 591 730 c 128,-1,23
 634 796 634 796 634 858 c 128,-1,24
 634 920 634 920 580 959 c 128,-1,25
 526 998 526 998 462 998 c 0,26,27
 442 998 442 998 442 1006 c 128,-1,28
 442 1014 442 1014 462 1014 c 0,29,30
 704 1014 704 1014 704 892 c 0,31,32
 704 796 704 796 615 704 c 128,-1,33
 526 612 526 612 526 524 c 0,34,35
 526 506 526 506 542 481 c 128,-1,36
 558 456 558 456 572 456 c 2,37,-1
 634 462 l 2,38,39
 646 462 646 462 646 444 c 0,40,41
 646 430 646 430 622 418 c 128,-1,42
 598 406 598 406 584 406 c 2,0,-1
EndSplineSet
EndChar

StartChar: asciitilde
Encoding: 126 126 97
Width: 640
VWidth: 2000
GlyphClass: 2
Flags: W
LayerCount: 2
Fore
SplineSet
206 300 m 1,0,-1
 178 286 l 2,1,2
 174 284 174 284 167 278 c 128,-1,3
 160 272 160 272 158 272 c 128,-1,4
 156 272 156 272 156 276 c 128,-1,5
 156 280 156 280 181 315 c 128,-1,6
 206 350 206 350 254 386 c 128,-1,7
 302 422 302 422 346 422 c 128,-1,8
 390 422 390 422 449 355 c 128,-1,9
 508 288 508 288 546 288 c 128,-1,10
 584 288 584 288 604 321 c 128,-1,11
 624 354 624 354 624 392 c 0,12,13
 624 400 624 400 642 410 c 128,-1,14
 660 420 660 420 668 420 c 128,-1,15
 676 420 676 420 676 414 c 0,16,17
 672 358 672 358 619 309 c 128,-1,18
 566 260 566 260 511 260 c 128,-1,19
 456 260 456 260 400 325 c 128,-1,20
 344 390 344 390 300 390 c 0,21,22
 248 390 248 390 206 300 c 1,0,-1
EndSplineSet
EndChar

StartChar: exclamdown
Encoding: 161 161 98
Width: 436
VWidth: 2000
GlyphClass: 2
Flags: W
LayerCount: 2
Fore
SplineSet
-118 -308 m 0,0,1
 -110 -310 -110 -310 -106 -310 c 0,2,3
 -16 -310 -16 -310 186 28 c 0,4,5
 262 158 262 158 288 262 c 0,6,7
 292 276 292 276 309 276 c 128,-1,8
 326 276 326 276 326 264 c 128,-1,9
 326 252 326 252 288 158 c 0,10,11
 158 -152 158 -152 2 -322 c 0,12,13
 -16 -340 -16 -340 -69 -340 c 128,-1,14
 -122 -340 -122 -340 -122 -316 c 0,15,16
 -122 -308 -122 -308 -118 -308 c 0,0,1
376 482 m 0,17,18
 416 482 416 482 416 448 c 128,-1,19
 416 414 416 414 389 384 c 128,-1,20
 362 354 362 354 328 354 c 128,-1,21
 294 354 294 354 294 390 c 0,22,23
 294 420 294 420 324 451 c 128,-1,24
 354 482 354 482 376 482 c 0,17,18
EndSplineSet
EndChar

StartChar: cent
Encoding: 162 162 99
Width: 618
VWidth: 2000
GlyphClass: 2
Flags: W
LayerCount: 2
Fore
SplineSet
294 132 m 1,0,-1
 608 684 l 1,1,2
 594 688 594 688 566 688 c 0,3,4
 490 688 490 688 411 610 c 128,-1,5
 332 532 332 532 283 429 c 128,-1,6
 234 326 234 326 234 270 c 0,7,8
 234 164 234 164 294 132 c 1,0,-1
674 580 m 1,9,10
 684 602 684 602 684 620 c 0,11,12
 684 656 684 656 632 676 c 1,13,14
 470 410 470 410 314 124 c 1,15,16
 336 116 336 116 370 116 c 0,17,18
 484 116 484 116 592 206 c 0,19,20
 638 244 638 244 666 290 c 128,-1,21
 694 336 694 336 696 336 c 0,22,23
 702 336 702 336 702 325 c 128,-1,24
 702 314 702 314 666 264 c 0,25,26
 534 86 534 86 294 84 c 1,27,-1
 98 -272 l 1,28,29
 88 -296 88 -296 74 -296 c 0,30,31
 72 -296 72 -296 72 -290 c 0,32,33
 72 -258 72 -258 268 84 c 1,34,35
 216 88 216 88 175 128 c 128,-1,36
 134 168 134 168 134 226 c 0,37,38
 134 390 134 390 291 553 c 128,-1,39
 448 716 448 716 628 718 c 1,40,-1
 712 864 l 2,41,42
 782 988 782 988 842 988 c 0,43,44
 846 988 846 988 846 985 c 128,-1,45
 846 982 846 982 832 964 c 2,46,-1
 792 920 l 2,47,48
 768 892 768 892 752 868 c 2,49,-1
 656 716 l 1,50,51
 696 708 696 708 728 682 c 128,-1,52
 760 656 760 656 760 637 c 128,-1,53
 760 618 760 618 758 613 c 128,-1,54
 756 608 756 608 754 606 c 0,55,56
 750 602 750 602 734 596 c 128,-1,57
 718 590 718 590 708 584 c 128,-1,58
 698 578 698 578 692 575 c 128,-1,59
 686 572 686 572 680 572 c 128,-1,60
 674 572 674 572 674 580 c 1,9,10
EndSplineSet
EndChar

StartChar: sterling
Encoding: 163 163 100
Width: 904
VWidth: 2000
GlyphClass: 2
Flags: W
LayerCount: 2
Fore
SplineSet
1034 740 m 128,-1,1
 1028 736 1028 736 1025 736 c 128,-1,2
 1022 736 1022 736 1023 744 c 128,-1,3
 1024 752 1024 752 1024 756 c 0,4,5
 1024 782 1024 782 993 809 c 128,-1,6
 962 836 962 836 925 836 c 128,-1,7
 888 836 888 836 863 825 c 128,-1,8
 838 814 838 814 814 779 c 128,-1,9
 790 744 790 744 774 714 c 128,-1,10
 758 684 758 684 723 609 c 128,-1,11
 688 534 688 534 660 480 c 1,12,13
 794 486 794 486 944 504 c 0,14,15
 948 504 948 504 948 499 c 128,-1,16
 948 494 948 494 929 481 c 128,-1,17
 910 468 910 468 892 466 c 2,18,-1
 648 458 l 1,19,20
 566 306 566 306 458 178 c 1,21,22
 522 8 522 8 691 -123 c 128,-1,23
 860 -254 860 -254 1026 -254 c 0,24,25
 1142 -254 1142 -254 1218 -182 c 0,26,27
 1226 -174 1226 -174 1233 -163 c 128,-1,28
 1240 -152 1240 -152 1245 -147 c 128,-1,29
 1250 -142 1250 -142 1254 -142 c 128,-1,30
 1258 -142 1258 -142 1258 -153 c 128,-1,31
 1258 -164 1258 -164 1230 -198 c 0,32,33
 1140 -304 1140 -304 975 -304 c 128,-1,34
 810 -304 810 -304 648 -201 c 128,-1,35
 486 -98 486 -98 412 126 c 1,36,37
 262 -24 262 -24 156 -24 c 0,38,39
 94 -24 94 -24 94 16 c 0,40,41
 94 88 94 88 197 199 c 128,-1,42
 300 310 300 310 368 310 c 0,43,44
 412 310 412 310 446 214 c 1,45,46
 510 304 510 304 578 454 c 1,47,48
 422 444 422 444 418 444 c 128,-1,49
 414 444 414 444 414 450 c 0,50,51
 414 452 414 452 436 464 c 128,-1,52
 458 476 458 476 462 476 c 0,53,54
 544 476 544 476 588 478 c 1,55,-1
 598 500 l 2,56,57
 608 524 608 524 616 540 c 2,58,-1
 640 588 l 2,59,60
 690 688 690 688 732 734 c 128,-1,61
 774 780 774 780 803 806 c 128,-1,62
 832 832 832 832 860 848 c 0,63,64
 926 884 926 884 984 884 c 128,-1,65
 1042 884 1042 884 1072 852 c 128,-1,66
 1102 820 1102 820 1102 786 c 0,67,68
 1102 778 1102 778 1094 776 c 0,69,70
 1064 762 1064 762 1052 753 c 128,-1,0
 1040 744 1040 744 1034 740 c 128,-1,1
334 256 m 0,71,72
 278 256 278 256 216 186 c 128,-1,73
 154 116 154 116 154 56 c 0,74,75
 154 18 154 18 192 18 c 0,76,77
 222 18 222 18 287 60 c 128,-1,78
 352 102 352 102 402 158 c 1,79,80
 378 256 378 256 334 256 c 0,71,72
EndSplineSet
EndChar

StartChar: currency
Encoding: 164 164 101
Width: 880
VWidth: 2000
GlyphClass: 2
Flags: W
LayerCount: 2
Fore
SplineSet
408 667 m 128,-1,1
 352 592 352 592 352 484 c 128,-1,2
 352 376 352 376 431 287 c 128,-1,3
 510 198 510 198 615 198 c 128,-1,4
 720 198 720 198 779 272 c 128,-1,5
 838 346 838 346 838 458 c 128,-1,6
 838 570 838 570 760 656 c 128,-1,7
 682 742 682 742 568 742 c 2,8,-1
 564 742 l 2,9,0
 464 742 464 742 408 667 c 128,-1,1
912 760 m 1,10,11
 912 754 912 754 880 730 c 128,-1,12
 848 706 848 706 828 686 c 1,13,14
 906 602 906 602 906 489 c 128,-1,15
 906 376 906 376 828 288 c 1,16,17
 910 202 910 202 910 194 c 128,-1,18
 910 186 910 186 893 175 c 128,-1,19
 876 164 876 164 863 164 c 128,-1,20
 850 164 850 164 782 244 c 1,21,22
 682 164 682 164 570 164 c 128,-1,23
 458 164 458 164 384 230 c 1,24,25
 366 216 366 216 348 198 c 2,26,-1
 318 170 l 2,27,28
 308 160 308 160 302 160 c 128,-1,29
 296 160 296 160 296 168 c 128,-1,30
 296 176 296 176 325 203 c 128,-1,31
 354 230 354 230 370 242 c 1,32,33
 284 328 284 328 284 447 c 128,-1,34
 284 566 284 566 360 656 c 1,35,36
 344 676 344 676 324 698 c 2,37,-1
 290 732 l 2,38,39
 278 744 278 744 278 747 c 128,-1,40
 278 750 278 750 299 767 c 128,-1,41
 320 784 320 784 329 784 c 128,-1,42
 338 784 338 784 346 774 c 128,-1,43
 354 764 354 764 371 741 c 128,-1,44
 388 718 388 718 406 700 c 1,45,46
 508 782 508 782 618 782 c 128,-1,47
 728 782 728 782 816 700 c 1,48,-1
 844 726 l 1,49,-1
 878 758 l 2,50,51
 888 768 888 768 893 768 c 128,-1,52
 898 768 898 768 912 760 c 1,10,11
EndSplineSet
EndChar

StartChar: yen
Encoding: 165 165 102
Width: 776
VWidth: 2000
GlyphClass: 2
Flags: W
LayerCount: 2
Fore
SplineSet
620 470 m 1,0,-1
 588 470 l 1,1,2
 576 432 576 432 562 400 c 1,3,-1
 620 470 l 1,0,-1
316 506 m 2,4,-1
 528 500 l 1,5,6
 558 590 558 590 558 677 c 128,-1,7
 558 764 558 764 507 806 c 128,-1,8
 456 848 456 848 388 848 c 128,-1,9
 320 848 320 848 254 782 c 0,10,11
 234 762 234 762 230 762 c 128,-1,12
 226 762 226 762 226 768 c 128,-1,13
 226 774 226 774 248 796 c 0,14,15
 336 886 336 886 426 886 c 128,-1,16
 516 886 516 886 573 833 c 128,-1,17
 630 780 630 780 630 670 c 0,18,19
 630 612 630 612 598 500 c 1,20,-1
 646 500 l 1,21,22
 776 648 776 648 924 771 c 128,-1,23
 1072 894 1072 894 1164 894 c 0,24,25
 1198 894 1198 894 1198 888 c 0,26,27
 1198 886 1198 886 1176 878 c 128,-1,28
 1154 870 1154 870 1108 848 c 128,-1,29
 1062 826 1062 826 1004 788 c 0,30,31
 858 698 858 698 684 500 c 1,32,-1
 888 502 l 2,33,34
 894 502 894 502 894 496 c 0,35,36
 894 466 894 466 843 466 c 128,-1,37
 792 466 792 466 656 470 c 1,38,-1
 578 376 l 1,39,-1
 830 378 l 2,40,41
 838 378 838 378 838 372 c 1,42,-1
 822 356 l 2,43,44
 808 342 808 342 782 342 c 2,45,-1
 556 348 l 1,46,47
 516 296 516 296 500 270 c 1,48,49
 368 4 368 4 344 -4 c 0,50,51
 336 -6 336 -6 317 -8 c 128,-1,52
 298 -10 298 -10 284 -16 c 128,-1,53
 270 -22 270 -22 263 -27 c 128,-1,54
 256 -32 256 -32 249 -32 c 128,-1,55
 242 -32 242 -32 242 -28 c 128,-1,56
 242 -24 242 -24 249 -14 c 128,-1,57
 256 -4 256 -4 269 11 c 128,-1,58
 282 26 282 26 342 124 c 128,-1,59
 402 222 402 222 464 348 c 1,60,61
 268 344 268 344 258 344 c 128,-1,62
 248 344 248 344 248 348 c 128,-1,63
 248 352 248 352 246 366 c 128,-1,64
 244 380 244 380 252 380 c 2,65,-1
 386 376 l 1,66,-1
 478 376 l 1,67,68
 508 442 508 442 518 472 c 1,69,-1
 446 472 l 1,70,-1
 278 468 l 2,71,72
 270 468 270 468 270 471 c 128,-1,73
 270 474 270 474 275 477 c 128,-1,74
 280 480 280 480 283 483 c 128,-1,75
 286 486 286 486 289 490 c 128,-1,76
 292 494 292 494 293 497 c 128,-1,77
 294 500 294 500 296 502 c 0,78,79
 304 506 304 506 316 506 c 2,4,-1
EndSplineSet
EndChar

StartChar: brokenbar
Encoding: 166 166 103
Width: 524
VWidth: 2000
GlyphClass: 2
Flags: W
LayerCount: 2
Fore
SplineSet
324 502 m 2,0,-1
 324 962 l 2,1,2
 324 966 324 966 337 971 c 128,-1,3
 350 976 350 976 352 980 c 1,4,5
 358 984 358 984 360 984 c 128,-1,6
 362 984 362 984 362 980 c 2,7,-1
 362 520 l 2,8,9
 362 518 362 518 347 511 c 128,-1,10
 332 504 332 504 330 501 c 128,-1,11
 328 498 328 498 326 498 c 128,-1,12
 324 498 324 498 324 502 c 2,0,-1
324 374 m 2,13,14
 324 378 324 378 337 383 c 128,-1,15
 350 388 350 388 352 392 c 1,16,17
 358 396 358 396 360 396 c 128,-1,18
 362 396 362 396 362 392 c 2,19,-1
 362 -82 l 2,20,21
 362 -84 362 -84 347 -91 c 128,-1,22
 332 -98 332 -98 330 -101 c 128,-1,23
 328 -104 328 -104 326 -104 c 128,-1,24
 324 -104 324 -104 324 -100 c 2,25,-1
 324 374 l 2,13,14
EndSplineSet
EndChar

StartChar: section
Encoding: 167 167 104
Width: 576
VWidth: 2000
GlyphClass: 2
Flags: W
LayerCount: 2
Fore
SplineSet
506 240 m 1,0,1
 558 280 558 280 558 364 c 0,2,3
 558 414 558 414 480 494 c 128,-1,4
 402 574 402 574 386 624 c 1,5,6
 332 592 332 592 332 543 c 128,-1,7
 332 494 332 494 358 458 c 128,-1,8
 384 422 384 422 415 399 c 128,-1,9
 446 376 446 376 474 334 c 128,-1,10
 502 292 502 292 506 240 c 1,0,1
128 188 m 1,11,12
 112 168 112 168 112 154 c 0,13,14
 112 114 112 114 167 65 c 128,-1,15
 222 16 222 16 298 16 c 128,-1,16
 374 16 374 16 410 71 c 128,-1,17
 446 126 446 126 446 180 c 128,-1,18
 446 234 446 234 403 290 c 128,-1,19
 360 346 360 346 318 394 c 128,-1,20
 276 442 276 442 276 485 c 128,-1,21
 276 528 276 528 308 569 c 128,-1,22
 340 610 340 610 384 636 c 1,23,24
 380 656 380 656 380 668 c 0,25,26
 380 746 380 746 453 815 c 128,-1,27
 526 884 526 884 638 884 c 0,28,29
 692 884 692 884 741 850 c 128,-1,30
 790 816 790 816 790 770 c 0,31,32
 790 762 790 762 769 738 c 128,-1,33
 748 714 748 714 740 714 c 0,34,35
 736 714 736 714 736 720 c 0,36,37
 736 764 736 764 689 808 c 128,-1,38
 642 852 642 852 579 852 c 128,-1,39
 516 852 516 852 471 808 c 128,-1,40
 426 764 426 764 426 708 c 128,-1,41
 426 652 426 652 469 605 c 128,-1,42
 512 558 512 558 555 503 c 128,-1,43
 598 448 598 448 598 388 c 0,44,45
 598 304 598 304 506 224 c 1,46,47
 506 156 506 156 429 66 c 128,-1,48
 352 -24 352 -24 255 -24 c 128,-1,49
 158 -24 158 -24 101 21 c 128,-1,50
 44 66 44 66 44 108 c 0,51,52
 44 120 44 120 56 130 c 128,-1,53
 68 140 68 140 84 156 c 2,54,-1
 122 194 l 1,55,56
 128 194 128 194 128 188 c 1,11,12
EndSplineSet
EndChar

StartChar: dieresis
Encoding: 168 168 105
Width: 352
VWidth: 2000
GlyphClass: 4
Flags: W
AnchorPoint: "Anchor-5" 364 548 mark 0
LayerCount: 2
Fore
SplineSet
280 602 m 0,0,1
 280 624 280 624 300 648 c 128,-1,2
 320 672 320 672 337 672 c 128,-1,3
 354 672 354 672 363 661 c 128,-1,4
 372 650 372 650 372 631 c 128,-1,5
 372 612 372 612 354 589 c 128,-1,6
 336 566 336 566 312 566 c 0,7,8
 280 566 280 566 280 602 c 0,0,1
432 602 m 0,9,10
 432 624 432 624 452 648 c 128,-1,11
 472 672 472 672 489 672 c 128,-1,12
 506 672 506 672 515 661 c 128,-1,13
 524 650 524 650 524 631 c 128,-1,14
 524 612 524 612 506 589 c 128,-1,15
 488 566 488 566 464 566 c 0,16,17
 432 566 432 566 432 602 c 0,9,10
EndSplineSet
EndChar

StartChar: copyright
Encoding: 169 169 106
Width: 1072
VWidth: 2000
GlyphClass: 2
Flags: W
LayerCount: 2
Fore
SplineSet
290 328 m 0,0,1
 290 196 290 196 371 102 c 128,-1,2
 452 8 452 8 596 8 c 0,3,4
 790 8 790 8 932 161 c 128,-1,5
 1074 314 1074 314 1074 522 c 0,6,7
 1074 680 1074 680 994 770 c 128,-1,8
 914 860 914 860 766 860 c 0,9,10
 574 860 574 860 433 695 c 128,-1,11
 292 530 292 530 290 328 c 0,0,1
796 886 m 0,12,13
 956 886 956 886 1056 791 c 128,-1,14
 1156 696 1156 696 1156 548 c 0,15,16
 1156 324 1156 324 973 150 c 128,-1,17
 790 -24 790 -24 556 -24 c 0,18,19
 396 -24 396 -24 301 71 c 128,-1,20
 206 166 206 166 206 316 c 0,21,22
 206 532 206 532 386 709 c 128,-1,23
 566 886 566 886 796 886 c 0,12,13
734 676 m 0,24,25
 628 676 628 676 545 570 c 128,-1,26
 462 464 462 464 462 332 c 0,27,28
 462 264 462 264 508 215 c 128,-1,29
 554 166 554 166 611 166 c 128,-1,30
 668 166 668 166 721 195 c 128,-1,31
 774 224 774 224 806 254 c 128,-1,32
 838 284 838 284 841 284 c 128,-1,33
 844 284 844 284 844 246 c 0,34,35
 844 234 844 234 805 210 c 128,-1,36
 766 186 766 186 702 165 c 128,-1,37
 638 144 638 144 568 144 c 128,-1,38
 498 144 498 144 447 195 c 128,-1,39
 396 246 396 246 396 328 c 0,40,41
 396 480 396 480 522 596 c 128,-1,42
 648 712 648 712 774 712 c 0,43,44
 820 712 820 712 860 695 c 128,-1,45
 900 678 900 678 918 660 c 128,-1,46
 936 642 936 642 936 635 c 128,-1,47
 936 628 936 628 934 623 c 128,-1,48
 932 618 932 618 928 616 c 2,49,-1
 892 578 l 1,50,51
 886 578 886 578 886 588 c 1,52,53
 878 624 878 624 832 650 c 128,-1,54
 786 676 786 676 734 676 c 0,24,25
EndSplineSet
EndChar

StartChar: ordfeminine
Encoding: 170 170 107
Width: 444
VWidth: 2000
GlyphClass: 2
Flags: W
LayerCount: 2
Fore
SplineSet
392 446 m 1,0,1
 426 562 426 562 518 668 c 1,2,3
 502 716 502 716 439 716 c 128,-1,4
 376 716 376 716 306 626 c 128,-1,5
 236 536 236 536 236 466 c 128,-1,6
 236 396 236 396 278 396 c 0,7,8
 314 396 314 396 392 446 c 1,0,1
534 682 m 1,9,10
 548 696 548 696 567 704 c 128,-1,11
 586 712 586 712 599 712 c 128,-1,12
 612 712 612 712 612 708 c 128,-1,13
 612 704 612 704 582 674 c 128,-1,14
 552 644 552 644 505 565 c 128,-1,15
 458 486 458 486 458 428 c 0,16,17
 458 390 458 390 496 390 c 0,18,19
 574 390 574 390 618 468 c 1,20,21
 618 474 618 474 626 474 c 128,-1,22
 634 474 634 474 634 472 c 0,23,24
 634 442 634 442 571 397 c 128,-1,25
 508 352 508 352 446 352 c 128,-1,26
 384 352 384 352 384 408 c 0,27,28
 384 410 384 410 385 415 c 128,-1,29
 386 420 386 420 386 422 c 1,30,31
 304 366 304 366 256 366 c 128,-1,32
 208 366 208 366 185 390 c 128,-1,33
 162 414 162 414 162 450 c 0,34,35
 162 548 162 548 258 641 c 128,-1,36
 354 734 354 734 448 734 c 0,37,38
 514 734 514 734 534 682 c 1,9,10
EndSplineSet
EndChar

StartChar: guillemotleft
Encoding: 171 171 108
Width: 626
VWidth: 2000
GlyphClass: 2
Flags: W
LayerCount: 2
Fore
SplineSet
686 448 m 128,-1,1
 692 448 692 448 692 442 c 128,-1,2
 692 436 692 436 680 426 c 0,3,4
 504 292 504 292 461 256 c 128,-1,5
 418 220 418 220 418 202 c 128,-1,6
 418 184 418 184 442 131 c 128,-1,7
 466 78 466 78 490 32 c 128,-1,8
 514 -14 514 -14 514 -18 c 128,-1,9
 514 -22 514 -22 487 -27 c 128,-1,10
 460 -32 460 -32 453 -32 c 128,-1,11
 446 -32 446 -32 442 -25 c 128,-1,12
 438 -18 438 -18 401 72 c 128,-1,13
 364 162 364 162 364 183 c 128,-1,14
 364 204 364 204 380 218 c 2,15,-1
 648 424 l 2,16,0
 680 448 680 448 686 448 c 128,-1,1
492 428 m 2,17,18
 556 478 556 478 561 478 c 128,-1,19
 566 478 566 478 566 469 c 128,-1,20
 566 460 566 460 552 454 c 1,21,-1
 386 322 l 2,22,23
 294 250 294 250 279 236 c 128,-1,24
 264 222 264 222 264 208 c 128,-1,25
 264 194 264 194 305 83 c 128,-1,26
 346 -28 346 -28 346 -36 c 0,27,28
 346 -40 346 -40 319 -47 c 128,-1,29
 292 -54 292 -54 285 -54 c 128,-1,30
 278 -54 278 -54 276 -50 c 0,31,32
 264 -26 264 -26 236 78 c 128,-1,33
 208 182 208 182 208 194 c 128,-1,34
 208 206 208 206 214 212 c 0,35,36
 258 242 258 242 344 310 c 2,37,-1
 492 428 l 2,17,18
EndSplineSet
EndChar

StartChar: logicalnot
Encoding: 172 172 109
Width: 716
VWidth: 2000
GlyphClass: 2
Flags: W
LayerCount: 2
Fore
SplineSet
200 350 m 2,0,-1
 514 346 l 1,1,-1
 664 348 l 2,2,3
 676 348 676 348 676 339 c 128,-1,4
 676 330 676 330 588 174 c 1,5,-1
 514 160 l 1,6,7
 500 160 500 160 508 176 c 2,8,-1
 578 310 l 1,9,-1
 172 304 l 2,10,11
 168 304 168 304 168 308 c 128,-1,12
 168 312 168 312 180 331 c 128,-1,13
 192 350 192 350 200 350 c 2,0,-1
EndSplineSet
EndChar

StartChar: uni00AD
Encoding: 173 173 110
Width: 496
VWidth: 2000
GlyphClass: 2
Flags: W
LayerCount: 2
Fore
SplineSet
200 352 m 2,0,-1
 440 346 l 1,1,-1
 532 348 l 2,2,3
 536 348 536 348 536 346 c 128,-1,4
 536 344 536 344 535 342 c 128,-1,5
 534 340 534 340 531 335 c 128,-1,6
 528 330 528 330 522 316 c 128,-1,7
 516 302 516 302 514 302 c 2,8,-1
 298 310 l 1,9,-1
 172 306 l 2,10,11
 168 306 168 306 168 308 c 128,-1,12
 168 310 168 310 172 312 c 0,13,14
 182 324 182 324 190 338 c 128,-1,15
 198 352 198 352 200 352 c 2,0,-1
EndSplineSet
EndChar

StartChar: registered
Encoding: 174 174 111
Width: 1072
VWidth: 2000
GlyphClass: 2
Flags: W
LayerCount: 2
Fore
SplineSet
584 490 m 1,0,1
 880 558 880 558 880 638 c 0,2,3
 880 710 880 710 808 710 c 0,4,5
 706 710 706 710 584 490 c 1,0,1
796 886 m 0,6,7
 956 886 956 886 1056 791 c 128,-1,8
 1156 696 1156 696 1156 553 c 128,-1,9
 1156 410 1156 410 1080 285 c 128,-1,10
 1004 160 1004 160 880 78 c 1,11,12
 918 58 918 58 965 58 c 128,-1,13
 1012 58 1012 58 1058 86 c 128,-1,14
 1104 114 1104 114 1110 114 c 128,-1,15
 1116 114 1116 114 1116 108 c 0,16,17
 1116 84 1116 84 1059 55 c 128,-1,18
 1002 26 1002 26 946 26 c 128,-1,19
 890 26 890 26 836 50 c 1,20,21
 698 -24 698 -24 547 -24 c 128,-1,22
 396 -24 396 -24 301 71 c 128,-1,23
 206 166 206 166 206 316 c 0,24,25
 206 532 206 532 386 709 c 128,-1,26
 566 886 566 886 796 886 c 0,6,7
442 194 m 2,27,-1
 368 186 l 2,28,29
 354 186 354 186 354 194 c 1,30,-1
 582 594 l 1,31,32
 622 652 622 652 707 693 c 128,-1,33
 792 734 792 734 847 734 c 128,-1,34
 902 734 902 734 932 713 c 128,-1,35
 962 692 962 692 962 662 c 0,36,37
 962 542 962 542 576 462 c 1,38,39
 776 148 776 148 854 92 c 1,40,41
 954 164 954 164 1014 278 c 128,-1,42
 1074 392 1074 392 1074 536 c 128,-1,43
 1074 680 1074 680 994 770 c 128,-1,44
 914 860 914 860 766 860 c 0,45,46
 574 860 574 860 433 695 c 128,-1,47
 292 530 292 530 290 328 c 0,48,49
 290 196 290 196 371 102 c 128,-1,50
 452 8 452 8 580 8 c 128,-1,51
 708 8 708 8 808 64 c 1,52,53
 796 70 796 70 784 82 c 2,54,-1
 756 112 l 2,55,56
 740 128 740 128 728 144 c 2,57,-1
 632 276 l 2,58,59
 612 306 612 306 602 322 c 2,60,-1
 572 368 l 2,61,62
 552 398 552 398 546 408 c 1,63,64
 524 364 524 364 498 304 c 0,65,66
 450 194 450 194 442 194 c 2,27,-1
EndSplineSet
EndChar

StartChar: macron
Encoding: 175 175 112
Width: 330
VWidth: 2000
GlyphClass: 2
Flags: W
LayerCount: 2
Fore
SplineSet
434 644 m 1,0,-1
 240 642 l 2,1,2
 226 642 226 642 226 657 c 128,-1,3
 226 672 226 672 234 672 c 2,4,-1
 336 670 l 1,5,-1
 558 672 l 2,6,7
 574 672 574 672 574 660 c 0,8,9
 574 642 574 642 536 642 c 2,10,11
 434 644 l 1,0,-1
EndSplineSet
EndChar

StartChar: degree
Encoding: 176 176 113
Width: 334
VWidth: 2000
GlyphClass: 2
Flags: W
LayerCount: 2
Fore
SplineSet
376 852 m 0,0,1
 306 852 306 852 306 756 c 0,2,3
 306 710 306 710 334 679 c 128,-1,4
 362 648 362 648 401 648 c 128,-1,5
 440 648 440 648 460 679 c 128,-1,6
 480 710 480 710 480 747 c 128,-1,7
 480 784 480 784 452 818 c 128,-1,8
 424 852 424 852 376 852 c 0,0,1
291 654 m 128,-1,10
 258 688 258 688 258 742 c 128,-1,11
 258 796 258 796 312 840 c 128,-1,12
 366 884 366 884 414 884 c 128,-1,13
 462 884 462 884 496 853 c 128,-1,14
 530 822 530 822 530 765 c 128,-1,15
 530 708 530 708 480 664 c 128,-1,16
 430 620 430 620 377 620 c 128,-1,9
 324 620 324 620 291 654 c 128,-1,10
EndSplineSet
EndChar

StartChar: plusminus
Encoding: 177 177 114
Width: 842
VWidth: 2000
GlyphClass: 2
Flags: W
LayerCount: 2
Fore
SplineSet
148 44 m 2,0,-1
 510 36 l 1,1,-1
 690 40 l 2,2,3
 694 40 694 40 694 38 c 128,-1,4
 694 36 694 36 693 34 c 128,-1,5
 692 32 692 32 689 27 c 128,-1,6
 686 22 686 22 684 16 c 2,7,-1
 672 -10 l 1,8,-1
 296 -2 l 1,9,-1
 120 -6 l 2,10,11
 116 -6 116 -6 116 -4 c 128,-1,12
 116 -2 116 -2 120 0 c 0,13,14
 128 10 128 10 137 27 c 128,-1,15
 146 44 146 44 148 44 c 2,0,-1
502 298 m 1,16,17
 394 290 394 290 310 247 c 128,-1,18
 226 204 226 204 226 142 c 0,19,20
 226 120 226 120 242 104 c 128,-1,21
 258 88 258 88 282 88 c 0,22,23
 340 88 340 88 401 155 c 128,-1,24
 462 222 462 222 502 298 c 1,16,17
644 522 m 0,25,26
 644 452 644 452 590 344 c 1,27,28
 822 358 822 358 822 354 c 0,29,30
 822 342 822 342 800 330 c 2,31,-1
 756 306 l 1,32,33
 652 306 652 306 568 302 c 1,34,35
 522 212 522 212 462 158 c 128,-1,36
 402 104 402 104 361 90 c 128,-1,37
 320 76 320 76 285 76 c 128,-1,38
 250 76 250 76 231 94 c 128,-1,39
 212 112 212 112 212 136 c 0,40,41
 212 204 212 204 289 264 c 128,-1,42
 366 324 366 324 522 340 c 1,43,44
 574 452 574 452 574 484 c 0,45,46
 574 546 574 546 518 546 c 0,47,48
 444 546 444 546 388 506 c 0,49,50
 370 492 370 492 367 492 c 128,-1,51
 364 492 364 492 364 497 c 128,-1,52
 364 502 364 502 391 522 c 128,-1,53
 418 542 418 542 471 561 c 128,-1,54
 524 580 524 580 562 580 c 0,55,56
 644 580 644 580 644 522 c 0,25,26
EndSplineSet
EndChar

StartChar: uni00B2
Encoding: 178 178 115
Width: 492
VWidth: 2000
GlyphClass: 2
Flags: W
LayerCount: 2
Fore
SplineSet
624 500 m 2,0,1
 628 500 628 500 628 495 c 128,-1,2
 628 490 628 490 600 476 c 0,3,4
 520 434 520 434 475 434 c 128,-1,5
 430 434 430 434 350 480 c 128,-1,6
 270 526 270 526 239 526 c 128,-1,7
 208 526 208 526 166 499 c 128,-1,8
 124 472 124 472 117 472 c 128,-1,9
 110 472 110 472 110 478 c 128,-1,10
 110 484 110 484 167 519 c 128,-1,11
 224 554 224 554 337 609 c 128,-1,12
 450 664 450 664 488 692 c 128,-1,13
 526 720 526 720 526 760 c 0,14,15
 526 844 526 844 422 844 c 0,16,17
 368 844 368 844 334 802 c 0,18,19
 330 796 330 796 326 796 c 128,-1,20
 322 796 322 796 322 799 c 128,-1,21
 322 802 322 802 325 808 c 128,-1,22
 328 814 328 814 339 827 c 128,-1,23
 350 840 350 840 390 862 c 128,-1,24
 430 884 430 884 478 884 c 0,25,26
 592 884 592 884 592 798 c 1,27,28
 590 764 590 764 570 735 c 128,-1,29
 550 706 550 706 492 672 c 0,30,31
 350 586 350 586 280 562 c 1,32,33
 338 562 338 562 416 516 c 128,-1,34
 494 470 494 470 527 470 c 128,-1,35
 560 470 560 470 592 484 c 2,36,-1
 624 500 l 2,0,1
EndSplineSet
EndChar

StartChar: uni00B3
Encoding: 179 179 116
Width: 492
VWidth: 2000
GlyphClass: 2
Flags: W
LayerCount: 2
Fore
SplineSet
400 864 m 128,-1,1
 440 886 440 886 492 886 c 128,-1,2
 544 886 544 886 569 864 c 128,-1,3
 594 842 594 842 594 814 c 0,4,5
 594 746 594 746 462 702 c 1,6,7
 522 680 522 680 522 623 c 128,-1,8
 522 566 522 566 442 515 c 128,-1,9
 362 464 362 464 274 464 c 0,10,11
 234 464 234 464 198 486 c 128,-1,12
 162 508 162 508 162 548 c 0,13,14
 162 556 162 556 186 570 c 128,-1,15
 210 584 210 584 216 584 c 128,-1,16
 222 584 222 584 222 582 c 0,17,18
 222 548 222 548 254 524 c 128,-1,19
 286 500 286 500 342 500 c 128,-1,20
 398 500 398 500 432 530 c 128,-1,21
 466 560 466 560 466 600 c 0,22,23
 466 674 466 674 358 674 c 0,24,25
 344 674 344 674 364 690 c 256,26,27
 384 706 384 706 402 710 c 0,28,29
 520 736 520 736 520 802 c 0,30,31
 520 822 520 822 503 839 c 128,-1,32
 486 856 486 856 437 856 c 128,-1,33
 388 856 388 856 344 804 c 0,34,35
 340 798 340 798 336 798 c 128,-1,36
 332 798 332 798 332 801 c 128,-1,37
 332 804 332 804 335 810 c 128,-1,38
 338 816 338 816 349 829 c 128,-1,0
 360 842 360 842 400 864 c 128,-1,1
EndSplineSet
EndChar

StartChar: acute
Encoding: 180 180 117
Width: 316
VWidth: 2000
GlyphClass: 2
Flags: W
LayerCount: 2
Fore
SplineSet
258 562 m 2,0,-1
 496 700 l 2,1,2
 504 706 504 706 512 706 c 0,3,4
 516 706 516 706 516 688 c 128,-1,5
 516 670 516 670 489 659 c 128,-1,6
 462 648 462 648 400 618 c 2,7,-1
 292 568 l 2,8,9
 246 546 246 546 241 546 c 128,-1,10
 236 546 236 546 236 548 c 128,-1,11
 236 550 236 550 258 562 c 2,0,-1
EndSplineSet
EndChar

StartChar: uni00B5
Encoding: 181 181 118
Width: 618
VWidth: 2000
GlyphClass: 2
Flags: W
LayerCount: 2
Fore
SplineSet
188 24 m 0,0,1
 280 24 280 24 392 142 c 1,2,3
 414 190 414 190 470 290 c 128,-1,4
 526 390 526 390 540 408 c 1,5,6
 576 446 576 446 604 446 c 0,7,8
 612 446 612 446 612 434 c 128,-1,9
 612 422 612 422 566 340 c 128,-1,10
 520 258 520 258 462 184 c 1,11,12
 428 110 428 110 428 65 c 128,-1,13
 428 20 428 20 460 20 c 0,14,15
 574 20 574 20 716 172 c 1,16,-1
 772 230 l 1,17,18
 792 254 792 254 795 254 c 128,-1,19
 798 254 798 254 798 248 c 128,-1,20
 798 242 798 242 696 132 c 1,21,22
 622 56 622 56 542 18 c 128,-1,23
 462 -20 462 -20 411 -20 c 128,-1,24
 360 -20 360 -20 360 26 c 0,25,26
 360 56 360 56 376 98 c 1,27,28
 224 -16 224 -16 128 -16 c 0,29,30
 80 -16 80 -16 62 14 c 1,31,32
 -70 -178 -70 -178 -205 -340 c 128,-1,33
 -340 -502 -340 -502 -440 -598 c 128,-1,34
 -540 -694 -540 -694 -624 -760 c 0,35,36
 -776 -880 -776 -880 -810 -880 c 0,37,38
 -812 -880 -812 -880 -812 -878 c 128,-1,39
 -812 -876 -812 -876 -774 -853 c 128,-1,40
 -736 -830 -736 -830 -658 -768 c 128,-1,41
 -580 -706 -580 -706 -481 -613 c 128,-1,42
 -382 -520 -382 -520 -239 -346 c 128,-1,43
 -96 -172 -96 -172 52 48 c 1,44,45
 52 94 52 94 127 234 c 128,-1,46
 202 374 202 374 227 399 c 128,-1,47
 252 424 252 424 296 446 c 1,48,49
 308 446 308 446 308 432 c 0,50,51
 308 412 308 412 240 296 c 128,-1,52
 172 180 172 180 116 94 c 1,53,54
 116 24 116 24 188 24 c 0,0,1
EndSplineSet
EndChar

StartChar: paragraph
Encoding: 182 182 119
Width: 670
VWidth: 2000
GlyphClass: 2
Flags: W
LayerCount: 2
Fore
SplineSet
444 332 m 1,0,1
 200 350 200 350 200 540 c 0,2,3
 200 642 200 642 324 756 c 0,4,5
 386 812 386 812 498 849 c 128,-1,6
 610 886 610 886 715 886 c 128,-1,7
 820 886 820 886 880 870 c 128,-1,8
 940 854 940 854 944 854 c 128,-1,9
 948 854 948 854 948 851 c 128,-1,10
 948 848 948 848 944 844 c 0,11,12
 932 836 932 836 915 819 c 128,-1,13
 898 802 898 802 894 802 c 128,-1,14
 890 802 890 802 880 808 c 0,15,16
 856 828 856 828 786 840 c 1,17,18
 716 714 716 714 544 370 c 1,19,20
 664 370 664 370 772 404 c 0,21,22
 776 406 776 406 780 406 c 128,-1,23
 784 406 784 406 784 403 c 128,-1,24
 784 400 784 400 778 398 c 0,25,26
 666 346 666 346 524 332 c 1,27,28
 394 74 394 74 364 4 c 0,29,30
 358 -10 358 -10 326 -10 c 128,-1,31
 294 -10 294 -10 279 -16 c 128,-1,32
 264 -22 264 -22 257 -27 c 128,-1,33
 250 -32 250 -32 243 -32 c 128,-1,34
 236 -32 236 -32 236 -26 c 1,35,-1
 270 34 l 1,36,37
 350 164 350 164 444 332 c 1,0,1
272 576 m 0,38,39
 272 420 272 420 472 380 c 1,40,41
 666 728 666 728 726 846 c 1,42,43
 448 846 448 846 352 750 c 0,44,45
 272 670 272 670 272 576 c 0,38,39
EndSplineSet
EndChar

StartChar: periodcentered
Encoding: 183 183 120
Width: 438
VWidth: 2000
GlyphClass: 4
Flags: W
AnchorPoint: "Anchor-0" 336 374 mark 0
LayerCount: 2
Fore
SplineSet
290 358 m 0,0,1
 290 380 290 380 310 404 c 128,-1,2
 330 428 330 428 347 428 c 128,-1,3
 364 428 364 428 373 417 c 128,-1,4
 382 406 382 406 382 387 c 128,-1,5
 382 368 382 368 364 345 c 128,-1,6
 346 322 346 322 322 322 c 0,7,8
 290 322 290 322 290 358 c 0,0,1
EndSplineSet
EndChar

StartChar: cedilla
Encoding: 184 184 121
Width: 400
VWidth: 2000
GlyphClass: 4
Flags: W
AnchorPoint: "Anchor-4" 160 0 mark 0
LayerCount: 2
Fore
SplineSet
172 0 m 2,0,-1
 118 -94 l 1,1,2
 180 -94 180 -94 207 -121 c 128,-1,3
 234 -148 234 -148 234 -186 c 128,-1,4
 234 -224 234 -224 200 -257 c 128,-1,5
 166 -290 166 -290 121 -290 c 128,-1,6
 76 -290 76 -290 49 -268 c 128,-1,7
 22 -246 22 -246 22 -228 c 0,8,9
 22 -226 22 -226 32 -221 c 128,-1,10
 42 -216 42 -216 48 -216 c 0,11,12
 50 -216 50 -216 58 -232 c 0,13,14
 82 -280 82 -280 118 -280 c 128,-1,15
 154 -280 154 -280 175 -258 c 128,-1,16
 196 -236 196 -236 196 -206 c 0,17,18
 196 -146 196 -146 92 -146 c 0,19,20
 82 -146 82 -146 78 -150 c 128,-1,21
 74 -154 74 -154 67 -154 c 128,-1,22
 60 -154 60 -154 60 -150 c 1,23,-1
 112 -68 l 2,24,25
 136 -30 136 -30 152 0 c 0,26,27
 154 2 154 2 163 2 c 128,-1,28
 172 2 172 2 172 0 c 2,0,-1
EndSplineSet
EndChar

StartChar: uni00B9
Encoding: 185 185 122
Width: 366
VWidth: 2000
GlyphClass: 2
Flags: W
LayerCount: 2
Fore
SplineSet
198 742 m 2,0,-1
 216 738 l 1,1,2
 322 738 322 738 422 824 c 1,3,4
 450 856 450 856 474 871 c 128,-1,5
 498 886 498 886 507 886 c 128,-1,6
 516 886 516 886 516 876 c 0,7,8
 516 846 516 846 468 802 c 1,9,10
 422 736 422 736 388 660 c 2,11,-1
 332 540 l 2,12,13
 310 496 310 496 307 488 c 128,-1,14
 304 480 304 480 304 478 c 0,15,16
 300 470 300 470 292 470 c 2,17,-1
 230 462 l 2,18,19
 218 462 218 462 218 469 c 128,-1,20
 218 476 218 476 237 497 c 128,-1,21
 256 518 256 518 280 557 c 128,-1,22
 304 596 304 596 343 672 c 128,-1,23
 382 748 382 748 400 780 c 1,24,25
 296 726 296 726 245 726 c 128,-1,26
 194 726 194 726 194 738 c 0,27,28
 194 742 194 742 198 742 c 2,0,-1
EndSplineSet
EndChar

StartChar: ordmasculine
Encoding: 186 186 123
Width: 396
VWidth: 2000
GlyphClass: 2
Flags: W
LayerCount: 2
Fore
SplineSet
273 633 m 128,-1,1
 234 580 234 580 234 527 c 128,-1,2
 234 474 234 474 269 440 c 128,-1,3
 304 406 304 406 363 406 c 128,-1,4
 422 406 422 406 460 459 c 128,-1,5
 498 512 498 512 498 565 c 128,-1,6
 498 618 498 618 463 652 c 128,-1,7
 428 686 428 686 370 686 c 128,-1,0
 312 686 312 686 273 633 c 128,-1,1
176 494 m 0,8,9
 176 584 176 584 259 654 c 128,-1,10
 342 724 342 724 430 724 c 0,11,12
 486 724 486 724 524 688 c 128,-1,13
 562 652 562 652 562 600 c 0,14,15
 562 510 562 510 477 440 c 128,-1,16
 392 370 392 370 302 370 c 0,17,18
 250 370 250 370 213 405 c 128,-1,19
 176 440 176 440 176 494 c 0,8,9
EndSplineSet
EndChar

StartChar: guillemotright
Encoding: 187 187 124
Width: 478
VWidth: 2000
GlyphClass: 2
Flags: W
LayerCount: 2
Fore
SplineSet
20 -26 m 128,-1,1
 14 -26 14 -26 14 -19 c 128,-1,2
 14 -12 14 -12 26 -4 c 0,3,4
 202 130 202 130 245 166 c 128,-1,5
 288 202 288 202 288 220 c 128,-1,6
 288 238 288 238 264 291 c 128,-1,7
 240 344 240 344 216 390 c 128,-1,8
 192 436 192 436 192 440 c 128,-1,9
 192 444 192 444 219 449 c 128,-1,10
 246 454 246 454 253 454 c 128,-1,11
 260 454 260 454 264 447 c 128,-1,12
 268 440 268 440 305 350 c 128,-1,13
 342 260 342 260 342 239 c 128,-1,14
 342 218 342 218 326 204 c 2,15,-1
 56 -2 l 2,16,0
 26 -26 26 -26 20 -26 c 128,-1,1
212 -6 m 2,17,18
 150 -56 150 -56 145 -56 c 128,-1,19
 140 -56 140 -56 140 -48 c 128,-1,20
 140 -40 140 -40 154 -32 c 1,21,-1
 320 100 l 2,22,23
 412 172 412 172 427 186 c 128,-1,24
 442 200 442 200 442 214 c 128,-1,25
 442 228 442 228 401 339 c 128,-1,26
 360 450 360 450 360 458 c 0,27,28
 360 462 360 462 386 469 c 128,-1,29
 412 476 412 476 420 476 c 128,-1,30
 428 476 428 476 435 462 c 128,-1,31
 442 448 442 448 470 344 c 128,-1,32
 498 240 498 240 498 228 c 128,-1,33
 498 216 498 216 492 210 c 0,34,35
 448 180 448 180 362 112 c 2,36,-1
 212 -6 l 2,17,18
EndSplineSet
EndChar

StartChar: onequarter
Encoding: 188 188 125
Width: 886
VWidth: 2000
GlyphClass: 2
Flags: W
LayerCount: 2
Fore
SplineSet
924 654 m 2,0,1
 956 674 956 674 965 665 c 128,-1,2
 974 656 974 656 940 638 c 1,3,-1
 270 226 l 2,4,5
 236 206 236 206 228 214 c 128,-1,6
 220 222 220 222 254 242 c 2,7,-1
 924 654 l 2,0,1
720 -66 m 2,8,-1
 660 -74 l 2,9,10
 648 -74 648 -74 648 -67 c 128,-1,11
 648 -60 648 -60 673 -32 c 128,-1,12
 698 -4 698 -4 768 126 c 1,13,14
 680 110 680 110 636 110 c 0,15,16
 550 110 550 110 550 150 c 0,17,18
 550 180 550 180 573 206 c 128,-1,19
 596 232 596 232 638 267 c 128,-1,20
 680 302 680 302 699 327 c 128,-1,21
 718 352 718 352 762 352 c 0,22,23
 768 352 768 352 768 346 c 1,24,-1
 688 276 l 2,25,26
 606 206 606 206 606 172 c 0,27,28
 606 144 606 144 704 144 c 0,29,30
 744 144 744 144 780 150 c 1,31,-1
 804 194 l 2,32,33
 816 218 816 218 822 230 c 0,34,35
 854 292 854 292 865 301 c 128,-1,36
 876 310 876 310 884 316 c 2,37,-1
 908 332 l 2,38,39
 936 352 936 352 944 352 c 128,-1,40
 952 352 952 352 952 347 c 128,-1,41
 952 342 952 342 946 335 c 128,-1,42
 940 328 940 328 930 318 c 128,-1,43
 920 308 920 308 916 302 c 2,44,-1
 738 -46 l 2,45,46
 730 -66 730 -66 720 -66 c 2,8,-1
332 768 m 2,47,-1
 350 764 l 1,48,49
 456 764 456 764 556 850 c 1,50,51
 584 882 584 882 608 897 c 128,-1,52
 632 912 632 912 641 912 c 128,-1,53
 650 912 650 912 650 902 c 0,54,55
 650 872 650 872 602 828 c 1,56,57
 556 762 556 762 522 686 c 2,58,-1
 466 568 l 2,59,60
 444 522 444 522 441 514 c 128,-1,61
 438 506 438 506 436 504 c 0,62,63
 432 496 432 496 424 496 c 2,64,-1
 364 488 l 2,65,66
 352 488 352 488 352 494 c 128,-1,67
 352 500 352 500 370 522 c 0,68,69
 408 564 408 564 462 669 c 128,-1,70
 516 774 516 774 534 806 c 1,71,72
 430 752 430 752 379 752 c 128,-1,73
 328 752 328 752 328 764 c 0,74,75
 328 768 328 768 332 768 c 2,47,-1
EndSplineSet
EndChar

StartChar: onehalf
Encoding: 189 189 126
Width: 886
VWidth: 2000
GlyphClass: 2
Flags: W
LayerCount: 2
Fore
SplineSet
924 654 m 2,0,1
 956 674 956 674 965 665 c 128,-1,2
 974 656 974 656 940 638 c 1,3,-1
 270 226 l 2,4,5
 236 206 236 206 228 214 c 128,-1,6
 220 222 220 222 254 242 c 2,7,-1
 924 654 l 2,0,1
904 -20 m 2,8,9
 908 -20 908 -20 908 -25 c 128,-1,10
 908 -30 908 -30 880 -44 c 0,11,12
 800 -86 800 -86 755 -86 c 128,-1,13
 710 -86 710 -86 630 -40 c 128,-1,14
 550 6 550 6 519 6 c 128,-1,15
 488 6 488 6 446 -21 c 128,-1,16
 404 -48 404 -48 397 -48 c 128,-1,17
 390 -48 390 -48 390 -42 c 128,-1,18
 390 -36 390 -36 447 -1 c 128,-1,19
 504 34 504 34 617 89 c 128,-1,20
 730 144 730 144 768 172 c 128,-1,21
 806 200 806 200 806 240 c 0,22,23
 806 324 806 324 702 324 c 0,24,25
 648 324 648 324 614 282 c 0,26,27
 610 276 610 276 606 276 c 128,-1,28
 602 276 602 276 602 279 c 128,-1,29
 602 282 602 282 605 288 c 128,-1,30
 608 294 608 294 619 307 c 128,-1,31
 630 320 630 320 670 342 c 128,-1,32
 710 364 710 364 758 364 c 0,33,34
 872 364 872 364 872 278 c 1,35,36
 870 244 870 244 850 215 c 128,-1,37
 830 186 830 186 772 152 c 0,38,39
 630 66 630 66 560 42 c 1,40,41
 618 42 618 42 696 -4 c 128,-1,42
 774 -50 774 -50 807 -50 c 128,-1,43
 840 -50 840 -50 872 -36 c 2,44,-1
 904 -20 l 2,8,9
332 768 m 2,45,-1
 350 764 l 1,46,47
 456 764 456 764 556 850 c 1,48,49
 584 882 584 882 608 897 c 128,-1,50
 632 912 632 912 641 912 c 128,-1,51
 650 912 650 912 650 902 c 0,52,53
 650 872 650 872 602 828 c 1,54,55
 556 762 556 762 522 686 c 2,56,-1
 466 568 l 2,57,58
 444 522 444 522 441 514 c 128,-1,59
 438 506 438 506 436 504 c 0,60,61
 432 496 432 496 424 496 c 2,62,-1
 364 488 l 2,63,64
 352 488 352 488 352 494 c 128,-1,65
 352 500 352 500 370 522 c 0,66,67
 408 564 408 564 462 669 c 128,-1,68
 516 774 516 774 534 806 c 1,69,70
 430 752 430 752 379 752 c 128,-1,71
 328 752 328 752 328 764 c 0,72,73
 328 768 328 768 332 768 c 2,45,-1
EndSplineSet
EndChar

StartChar: threequarters
Encoding: 190 190 127
Width: 886
VWidth: 2000
GlyphClass: 2
Flags: W
LayerCount: 2
Fore
SplineSet
924 654 m 2,0,1
 956 674 956 674 965 665 c 128,-1,2
 974 656 974 656 940 638 c 1,3,-1
 270 226 l 2,4,5
 236 206 236 206 228 214 c 128,-1,6
 220 222 220 222 254 242 c 2,7,-1
 924 654 l 2,0,1
474 890 m 128,-1,9
 514 912 514 912 566 912 c 128,-1,10
 618 912 618 912 643 890 c 128,-1,11
 668 868 668 868 668 840 c 0,12,13
 668 772 668 772 536 728 c 1,14,15
 596 708 596 708 596 650 c 128,-1,16
 596 592 596 592 516 541 c 128,-1,17
 436 490 436 490 348 490 c 0,18,19
 308 490 308 490 272 512 c 128,-1,20
 236 534 236 534 236 574 c 0,21,22
 236 582 236 582 260 596 c 128,-1,23
 284 610 284 610 290 610 c 128,-1,24
 296 610 296 610 296 608 c 0,25,26
 296 574 296 574 328 550 c 128,-1,27
 360 526 360 526 416 526 c 128,-1,28
 472 526 472 526 506 556 c 128,-1,29
 540 586 540 586 540 626 c 0,30,31
 540 700 540 700 432 700 c 0,32,33
 418 700 418 700 438 716 c 256,34,35
 458 732 458 732 476 736 c 0,36,37
 594 762 594 762 594 828 c 0,38,39
 594 848 594 848 577 865 c 128,-1,40
 560 882 560 882 511 882 c 128,-1,41
 462 882 462 882 418 830 c 0,42,43
 414 824 414 824 410 824 c 128,-1,44
 406 824 406 824 406 827 c 128,-1,45
 406 830 406 830 409 836 c 128,-1,46
 412 842 412 842 423 855 c 128,-1,8
 434 868 434 868 474 890 c 128,-1,9
720 -66 m 2,47,-1
 660 -74 l 2,48,49
 648 -74 648 -74 648 -67 c 128,-1,50
 648 -60 648 -60 673 -32 c 128,-1,51
 698 -4 698 -4 768 126 c 1,52,53
 680 110 680 110 636 110 c 0,54,55
 550 110 550 110 550 150 c 0,56,57
 550 180 550 180 573 206 c 128,-1,58
 596 232 596 232 638 267 c 128,-1,59
 680 302 680 302 699 327 c 128,-1,60
 718 352 718 352 762 352 c 0,61,62
 768 352 768 352 768 346 c 1,63,-1
 688 276 l 2,64,65
 606 206 606 206 606 172 c 0,66,67
 606 144 606 144 704 144 c 0,68,69
 744 144 744 144 780 150 c 1,70,-1
 804 194 l 2,71,72
 816 218 816 218 822 230 c 0,73,74
 854 292 854 292 865 301 c 128,-1,75
 876 310 876 310 884 316 c 2,76,-1
 908 332 l 2,77,78
 936 352 936 352 944 352 c 128,-1,79
 952 352 952 352 952 347 c 128,-1,80
 952 342 952 342 946 335 c 128,-1,81
 940 328 940 328 930 318 c 128,-1,82
 920 308 920 308 916 302 c 2,83,-1
 738 -46 l 2,84,85
 730 -66 730 -66 720 -66 c 2,47,-1
EndSplineSet
EndChar

StartChar: questiondown
Encoding: 191 191 128
Width: 482
VWidth: 2000
GlyphClass: 2
Flags: W
LayerCount: 2
Fore
SplineSet
30 -304 m 128,-1,1
 64 -334 64 -334 108 -334 c 128,-1,2
 152 -334 152 -334 194 -313 c 128,-1,3
 236 -292 236 -292 264 -271 c 128,-1,4
 292 -250 292 -250 298 -250 c 128,-1,5
 304 -250 304 -250 304 -254 c 128,-1,6
 304 -258 304 -258 298 -264 c 0,7,8
 160 -382 160 -382 42 -382 c 0,9,10
 -14 -382 -14 -382 -48 -351 c 128,-1,11
 -82 -320 -82 -320 -82 -275 c 128,-1,12
 -82 -230 -82 -230 -68 -203 c 128,-1,13
 -54 -176 -54 -176 -22 -151 c 128,-1,14
 10 -126 10 -126 30 -113 c 128,-1,15
 50 -100 50 -100 98 -76 c 2,16,17
 154 -48 l 1,18,19
 188 -28 188 -28 198 -23 c 128,-1,20
 208 -18 208 -18 242 4 c 128,-1,21
 276 26 276 26 290 40 c 0,22,23
 334 88 334 88 334 118 c 0,24,25
 334 160 334 160 278 232 c 1,26,-1
 260 254 l 1,27,28
 260 264 260 264 281 269 c 128,-1,29
 302 274 302 274 316 279 c 128,-1,30
 330 284 330 284 340 284 c 128,-1,31
 350 284 350 284 377 237 c 128,-1,32
 404 190 404 190 404 153 c 128,-1,33
 404 116 404 116 361 71 c 128,-1,34
 318 26 318 26 279 1 c 128,-1,35
 240 -24 240 -24 200 -46 c 2,36,-1
 80 -110 l 2,37,38
 26 -140 26 -140 11 -171 c 128,-1,39
 -4 -202 -4 -202 -4 -238 c 128,-1,0
 -4 -274 -4 -274 30 -304 c 128,-1,1
488 512 m 0,40,41
 528 512 528 512 528 478 c 128,-1,42
 528 444 528 444 501 414 c 128,-1,43
 474 384 474 384 440 384 c 128,-1,44
 406 384 406 384 406 420 c 0,45,46
 406 450 406 450 436 481 c 128,-1,47
 466 512 466 512 488 512 c 0,40,41
EndSplineSet
EndChar

StartChar: Agrave
Encoding: 192 192 129
Width: 980
VWidth: 2000
GlyphClass: 2
Flags: W
LayerCount: 2
Fore
SplineSet
946 1024 m 1,0,-1
 956 1002 l 2,1,2
 956 1000 956 1000 950 1000 c 128,-1,3
 944 1000 944 1000 940 1008 c 2,4,-1
 828 1192 l 2,5,6
 826 1194 826 1194 826 1204 c 0,7,8
 826 1242 826 1242 846 1242 c 0,9,10
 856 1242 856 1242 860 1232 c 2,11,-1
 946 1024 l 1,0,-1
404 342 m 1,12,-1
 438 342 l 2,13,14
 478 342 478 342 555 330 c 128,-1,15
 632 318 632 318 661 318 c 128,-1,16
 690 318 690 318 706 320 c 1,17,18
 734 524 734 524 798 772 c 1,19,-1
 806 802 l 2,20,21
 806 808 806 808 804 808 c 0,22,23
 796 808 796 808 776 780 c 1,24,-1
 404 342 l 1,12,-1
16 -6 m 1,25,-1
 -38 -14 l 2,26,27
 -50 -14 -50 -14 -50 -5 c 128,-1,28
 -50 4 -50 4 -23 12 c 128,-1,29
 4 20 4 20 30 44 c 0,30,31
 350 322 350 322 746 784 c 1,32,-1
 772 816 l 2,33,34
 784 828 784 828 795 837 c 128,-1,35
 806 846 806 846 810 851 c 128,-1,36
 814 856 814 856 825 862 c 128,-1,37
 836 868 836 868 839 869 c 128,-1,38
 842 870 842 870 856 876 c 128,-1,39
 870 882 870 882 875 884 c 128,-1,40
 880 886 880 886 897 894 c 128,-1,41
 914 902 914 902 921 902 c 128,-1,42
 928 902 928 902 928 894 c 2,43,-1
 928 892 l 2,44,45
 928 882 928 882 917 857 c 128,-1,46
 906 832 906 832 906 830 c 0,47,48
 832 634 832 634 792 332 c 1,49,50
 858 350 858 350 896 379 c 128,-1,51
 934 408 934 408 938 408 c 128,-1,52
 942 408 942 408 942 402 c 128,-1,53
 942 396 942 396 920 380 c 0,54,55
 858 330 858 330 790 314 c 1,56,57
 780 228 780 228 780 178 c 0,58,59
 780 26 780 26 844 26 c 0,60,61
 916 26 916 26 1050 142 c 0,62,63
 1116 200 1116 200 1134 227 c 128,-1,64
 1152 254 1152 254 1156 254 c 128,-1,65
 1160 254 1160 254 1160 251 c 128,-1,66
 1160 248 1160 248 1158 244 c 0,67,68
 1060 114 1060 114 926 36 c 0,69,70
 850 -8 850 -8 789 -8 c 128,-1,71
 728 -8 728 -8 710 29 c 128,-1,72
 692 66 692 66 692 146 c 128,-1,73
 692 226 692 226 702 296 c 1,74,75
 612 286 612 286 576 286 c 128,-1,76
 540 286 540 286 474 297 c 128,-1,77
 408 308 408 308 393 308 c 128,-1,78
 378 308 378 308 372 306 c 1,79,80
 180 86 180 86 102 22 c 1,81,82
 72 0 72 0 16 -6 c 1,25,-1
EndSplineSet
EndChar

StartChar: Aacute
Encoding: 193 193 130
Width: 980
VWidth: 2000
GlyphClass: 2
Flags: W
LayerCount: 2
Fore
SplineSet
866 1016 m 2,0,-1
 1104 1154 l 2,1,2
 1112 1160 1112 1160 1120 1160 c 0,3,4
 1124 1160 1124 1160 1124 1142 c 128,-1,5
 1124 1124 1124 1124 1097 1113 c 128,-1,6
 1070 1102 1070 1102 1008 1072 c 2,7,-1
 900 1020 l 2,8,9
 854 1000 854 1000 849 1000 c 128,-1,10
 844 1000 844 1000 844 1002 c 128,-1,11
 844 1004 844 1004 866 1016 c 2,0,-1
404 342 m 1,12,-1
 438 342 l 2,13,14
 478 342 478 342 555 330 c 128,-1,15
 632 318 632 318 661 318 c 128,-1,16
 690 318 690 318 706 320 c 1,17,18
 734 524 734 524 798 772 c 1,19,-1
 806 802 l 2,20,21
 806 808 806 808 804 808 c 0,22,23
 796 808 796 808 776 780 c 1,24,-1
 404 342 l 1,12,-1
16 -6 m 1,25,-1
 -38 -14 l 2,26,27
 -50 -14 -50 -14 -50 -5 c 128,-1,28
 -50 4 -50 4 -23 12 c 128,-1,29
 4 20 4 20 30 44 c 0,30,31
 350 322 350 322 746 784 c 1,32,-1
 772 816 l 2,33,34
 784 828 784 828 795 837 c 128,-1,35
 806 846 806 846 810 851 c 128,-1,36
 814 856 814 856 825 862 c 128,-1,37
 836 868 836 868 839 869 c 128,-1,38
 842 870 842 870 856 876 c 128,-1,39
 870 882 870 882 875 884 c 128,-1,40
 880 886 880 886 897 894 c 128,-1,41
 914 902 914 902 921 902 c 128,-1,42
 928 902 928 902 928 894 c 2,43,-1
 928 892 l 2,44,45
 928 882 928 882 917 857 c 128,-1,46
 906 832 906 832 906 830 c 0,47,48
 832 634 832 634 792 332 c 1,49,50
 858 350 858 350 896 379 c 128,-1,51
 934 408 934 408 938 408 c 128,-1,52
 942 408 942 408 942 402 c 128,-1,53
 942 396 942 396 920 380 c 0,54,55
 858 330 858 330 790 314 c 1,56,57
 780 228 780 228 780 178 c 0,58,59
 780 26 780 26 844 26 c 0,60,61
 916 26 916 26 1050 142 c 0,62,63
 1116 200 1116 200 1134 227 c 128,-1,64
 1152 254 1152 254 1156 254 c 128,-1,65
 1160 254 1160 254 1160 251 c 128,-1,66
 1160 248 1160 248 1158 244 c 0,67,68
 1060 114 1060 114 926 36 c 0,69,70
 850 -8 850 -8 789 -8 c 128,-1,71
 728 -8 728 -8 710 29 c 128,-1,72
 692 66 692 66 692 146 c 128,-1,73
 692 226 692 226 702 296 c 1,74,75
 612 286 612 286 576 286 c 128,-1,76
 540 286 540 286 474 297 c 128,-1,77
 408 308 408 308 393 308 c 128,-1,78
 378 308 378 308 372 306 c 1,79,80
 180 86 180 86 102 22 c 1,81,82
 72 0 72 0 16 -6 c 1,25,-1
EndSplineSet
EndChar

StartChar: Acircumflex
Encoding: 194 194 131
Width: 980
VWidth: 2000
GlyphClass: 2
Flags: W
AnchorPoint: "Anchor-5" 1060 1200 basechar 0
LayerCount: 2
Fore
SplineSet
1100 1028 m 1,0,-1
 1058 1000 l 1,1,-1
 1056 1000 l 1,2,3
 1034 1056 1034 1056 1004 1118 c 1,4,-1
 812 1012 l 2,5,6
 794 1002 794 1002 782 1002 c 1,7,-1
 780 1004 l 2,8,9
 780 1006 780 1006 800 1018 c 0,10,11
 942 1106 942 1106 985 1136 c 128,-1,12
 1028 1166 1028 1166 1037 1166 c 128,-1,13
 1046 1166 1046 1166 1048 1158 c 0,14,15
 1080 1068 1080 1068 1100 1028 c 1,0,-1
404 342 m 1,16,-1
 438 342 l 2,17,18
 478 342 478 342 555 330 c 128,-1,19
 632 318 632 318 661 318 c 128,-1,20
 690 318 690 318 706 320 c 1,21,22
 734 524 734 524 798 772 c 1,23,-1
 806 802 l 2,24,25
 806 808 806 808 804 808 c 0,26,27
 796 808 796 808 776 780 c 1,28,-1
 404 342 l 1,16,-1
16 -6 m 1,29,-1
 -38 -14 l 2,30,31
 -50 -14 -50 -14 -50 -5 c 128,-1,32
 -50 4 -50 4 -23 12 c 128,-1,33
 4 20 4 20 30 44 c 0,34,35
 350 322 350 322 746 784 c 1,36,-1
 772 816 l 2,37,38
 784 828 784 828 795 837 c 128,-1,39
 806 846 806 846 810 851 c 128,-1,40
 814 856 814 856 825 862 c 128,-1,41
 836 868 836 868 839 869 c 128,-1,42
 842 870 842 870 856 876 c 128,-1,43
 870 882 870 882 875 884 c 128,-1,44
 880 886 880 886 897 894 c 128,-1,45
 914 902 914 902 921 902 c 128,-1,46
 928 902 928 902 928 894 c 2,47,-1
 928 892 l 2,48,49
 928 882 928 882 917 857 c 128,-1,50
 906 832 906 832 906 830 c 0,51,52
 832 634 832 634 792 332 c 1,53,54
 858 350 858 350 896 379 c 128,-1,55
 934 408 934 408 938 408 c 128,-1,56
 942 408 942 408 942 402 c 128,-1,57
 942 396 942 396 920 380 c 0,58,59
 858 330 858 330 790 314 c 1,60,61
 780 228 780 228 780 178 c 0,62,63
 780 26 780 26 844 26 c 0,64,65
 916 26 916 26 1050 142 c 0,66,67
 1116 200 1116 200 1134 227 c 128,-1,68
 1152 254 1152 254 1156 254 c 128,-1,69
 1160 254 1160 254 1160 251 c 128,-1,70
 1160 248 1160 248 1158 244 c 0,71,72
 1060 114 1060 114 926 36 c 0,73,74
 850 -8 850 -8 789 -8 c 128,-1,75
 728 -8 728 -8 710 29 c 128,-1,76
 692 66 692 66 692 146 c 128,-1,77
 692 226 692 226 702 296 c 1,78,79
 612 286 612 286 576 286 c 128,-1,80
 540 286 540 286 474 297 c 128,-1,81
 408 308 408 308 393 308 c 128,-1,82
 378 308 378 308 372 306 c 1,83,84
 180 86 180 86 102 22 c 1,85,86
 72 0 72 0 16 -6 c 1,29,-1
EndSplineSet
EndChar

StartChar: Atilde
Encoding: 195 195 132
Width: 980
VWidth: 2000
GlyphClass: 2
Flags: W
LayerCount: 2
Fore
SplineSet
831 1076 m 128,-1,1
 888 1128 888 1128 928 1128 c 128,-1,2
 968 1128 968 1128 1003 1080 c 128,-1,3
 1038 1032 1038 1032 1071 1032 c 128,-1,4
 1104 1032 1104 1032 1160 1102 c 0,5,6
 1180 1126 1180 1126 1183 1126 c 128,-1,7
 1186 1126 1186 1126 1186 1122 c 0,8,9
 1186 1102 1186 1102 1129 1050 c 128,-1,10
 1072 998 1072 998 1030 998 c 128,-1,11
 988 998 988 998 953 1046 c 128,-1,12
 918 1094 918 1094 887 1094 c 128,-1,13
 856 1094 856 1094 800 1024 c 0,14,15
 780 1000 780 1000 777 1000 c 128,-1,16
 774 1000 774 1000 774 1004 c 0,17,0
 774 1024 774 1024 831 1076 c 128,-1,1
404 342 m 1,18,-1
 438 342 l 2,19,20
 478 342 478 342 555 330 c 128,-1,21
 632 318 632 318 661 318 c 128,-1,22
 690 318 690 318 706 320 c 1,23,24
 734 524 734 524 798 772 c 1,25,-1
 806 802 l 2,26,27
 806 808 806 808 804 808 c 0,28,29
 796 808 796 808 776 780 c 1,30,-1
 404 342 l 1,18,-1
16 -6 m 1,31,-1
 -38 -14 l 2,32,33
 -50 -14 -50 -14 -50 -5 c 128,-1,34
 -50 4 -50 4 -23 12 c 128,-1,35
 4 20 4 20 30 44 c 0,36,37
 350 322 350 322 746 784 c 1,38,-1
 772 816 l 2,39,40
 784 828 784 828 795 837 c 128,-1,41
 806 846 806 846 810 851 c 128,-1,42
 814 856 814 856 825 862 c 128,-1,43
 836 868 836 868 839 869 c 128,-1,44
 842 870 842 870 856 876 c 128,-1,45
 870 882 870 882 875 884 c 128,-1,46
 880 886 880 886 897 894 c 128,-1,47
 914 902 914 902 921 902 c 128,-1,48
 928 902 928 902 928 894 c 2,49,-1
 928 892 l 2,50,51
 928 882 928 882 917 857 c 128,-1,52
 906 832 906 832 906 830 c 0,53,54
 832 634 832 634 792 332 c 1,55,56
 858 350 858 350 896 379 c 128,-1,57
 934 408 934 408 938 408 c 128,-1,58
 942 408 942 408 942 402 c 128,-1,59
 942 396 942 396 920 380 c 0,60,61
 858 330 858 330 790 314 c 1,62,63
 780 228 780 228 780 178 c 0,64,65
 780 26 780 26 844 26 c 0,66,67
 916 26 916 26 1050 142 c 0,68,69
 1116 200 1116 200 1134 227 c 128,-1,70
 1152 254 1152 254 1156 254 c 128,-1,71
 1160 254 1160 254 1160 251 c 128,-1,72
 1160 248 1160 248 1158 244 c 0,73,74
 1060 114 1060 114 926 36 c 0,75,76
 850 -8 850 -8 789 -8 c 128,-1,77
 728 -8 728 -8 710 29 c 128,-1,78
 692 66 692 66 692 146 c 128,-1,79
 692 226 692 226 702 296 c 1,80,81
 612 286 612 286 576 286 c 128,-1,82
 540 286 540 286 474 297 c 128,-1,83
 408 308 408 308 393 308 c 128,-1,84
 378 308 378 308 372 306 c 1,85,86
 180 86 180 86 102 22 c 1,87,88
 72 0 72 0 16 -6 c 1,31,-1
EndSplineSet
EndChar

StartChar: Adieresis
Encoding: 196 196 133
Width: 980
VWidth: 2000
GlyphClass: 2
Flags: W
AnchorPoint: "Anchor-5" 1022 1200 basechar 0
LayerCount: 2
Fore
SplineSet
856 1054 m 0,0,1
 856 1076 856 1076 876 1100 c 128,-1,2
 896 1124 896 1124 913 1124 c 128,-1,3
 930 1124 930 1124 939 1113 c 128,-1,4
 948 1102 948 1102 948 1083 c 128,-1,5
 948 1064 948 1064 930 1041 c 128,-1,6
 912 1018 912 1018 888 1018 c 0,7,8
 856 1018 856 1018 856 1054 c 0,0,1
1008 1054 m 0,9,10
 1008 1076 1008 1076 1028 1100 c 128,-1,11
 1048 1124 1048 1124 1065 1124 c 128,-1,12
 1082 1124 1082 1124 1091 1113 c 128,-1,13
 1100 1102 1100 1102 1100 1083 c 128,-1,14
 1100 1064 1100 1064 1082 1041 c 128,-1,15
 1064 1018 1064 1018 1040 1018 c 0,16,17
 1008 1018 1008 1018 1008 1054 c 0,9,10
404 342 m 1,18,-1
 438 342 l 2,19,20
 478 342 478 342 555 330 c 128,-1,21
 632 318 632 318 661 318 c 128,-1,22
 690 318 690 318 706 320 c 1,23,24
 734 524 734 524 798 772 c 1,25,-1
 806 802 l 2,26,27
 806 808 806 808 804 808 c 0,28,29
 796 808 796 808 776 780 c 1,30,-1
 404 342 l 1,18,-1
16 -6 m 1,31,-1
 -38 -14 l 2,32,33
 -50 -14 -50 -14 -50 -5 c 128,-1,34
 -50 4 -50 4 -23 12 c 128,-1,35
 4 20 4 20 30 44 c 0,36,37
 350 322 350 322 746 784 c 1,38,-1
 772 816 l 2,39,40
 784 828 784 828 795 837 c 128,-1,41
 806 846 806 846 810 851 c 128,-1,42
 814 856 814 856 825 862 c 128,-1,43
 836 868 836 868 839 869 c 128,-1,44
 842 870 842 870 856 876 c 128,-1,45
 870 882 870 882 875 884 c 128,-1,46
 880 886 880 886 897 894 c 128,-1,47
 914 902 914 902 921 902 c 128,-1,48
 928 902 928 902 928 894 c 2,49,-1
 928 892 l 2,50,51
 928 882 928 882 917 857 c 128,-1,52
 906 832 906 832 906 830 c 0,53,54
 832 634 832 634 792 332 c 1,55,56
 858 350 858 350 896 379 c 128,-1,57
 934 408 934 408 938 408 c 128,-1,58
 942 408 942 408 942 402 c 128,-1,59
 942 396 942 396 920 380 c 0,60,61
 858 330 858 330 790 314 c 1,62,63
 780 228 780 228 780 178 c 0,64,65
 780 26 780 26 844 26 c 0,66,67
 916 26 916 26 1050 142 c 0,68,69
 1116 200 1116 200 1134 227 c 128,-1,70
 1152 254 1152 254 1156 254 c 128,-1,71
 1160 254 1160 254 1160 251 c 128,-1,72
 1160 248 1160 248 1158 244 c 0,73,74
 1060 114 1060 114 926 36 c 0,75,76
 850 -8 850 -8 789 -8 c 128,-1,77
 728 -8 728 -8 710 29 c 128,-1,78
 692 66 692 66 692 146 c 128,-1,79
 692 226 692 226 702 296 c 1,80,81
 612 286 612 286 576 286 c 128,-1,82
 540 286 540 286 474 297 c 128,-1,83
 408 308 408 308 393 308 c 128,-1,84
 378 308 378 308 372 306 c 1,85,86
 180 86 180 86 102 22 c 1,87,88
 72 0 72 0 16 -6 c 1,31,-1
EndSplineSet
EndChar

StartChar: Aring
Encoding: 197 197 134
Width: 980
VWidth: 2000
GlyphClass: 2
Flags: W
AnchorPoint: "Anchor-5" 1022 1200 basechar 0
LayerCount: 2
Fore
SplineSet
404 342 m 1,0,-1
 438 342 l 2,1,2
 478 342 478 342 555 330 c 128,-1,3
 632 318 632 318 661 318 c 128,-1,4
 690 318 690 318 706 320 c 1,5,6
 734 524 734 524 798 772 c 1,7,-1
 806 802 l 2,8,9
 806 808 806 808 804 808 c 0,10,11
 796 808 796 808 776 780 c 1,12,-1
 404 342 l 1,0,-1
16 -6 m 1,13,-1
 -38 -14 l 2,14,15
 -50 -14 -50 -14 -50 -5 c 128,-1,16
 -50 4 -50 4 -23 12 c 128,-1,17
 4 20 4 20 30 44 c 0,18,19
 350 322 350 322 746 784 c 1,20,-1
 834 884 l 1,21,22
 808 904 808 904 808 943 c 128,-1,23
 808 982 808 982 844 1016 c 128,-1,24
 880 1050 880 1050 920 1050 c 128,-1,25
 960 1050 960 1050 981 1031 c 128,-1,26
 1002 1012 1002 1012 1002 978 c 128,-1,27
 1002 944 1002 944 975 912 c 128,-1,28
 948 880 948 880 908 870 c 0,29,30
 908 868 908 868 859 669 c 128,-1,31
 810 470 810 470 792 332 c 1,32,33
 858 350 858 350 896 379 c 128,-1,34
 934 408 934 408 938 408 c 128,-1,35
 942 408 942 408 942 402 c 128,-1,36
 942 396 942 396 920 380 c 0,37,38
 858 330 858 330 790 314 c 1,39,40
 780 228 780 228 780 178 c 0,41,42
 780 26 780 26 844 26 c 0,43,44
 916 26 916 26 1050 142 c 0,45,46
 1116 200 1116 200 1134 227 c 128,-1,47
 1152 254 1152 254 1156 254 c 128,-1,48
 1160 254 1160 254 1160 251 c 128,-1,49
 1160 248 1160 248 1158 244 c 0,50,51
 1060 114 1060 114 926 36 c 0,52,53
 850 -8 850 -8 789 -8 c 128,-1,54
 728 -8 728 -8 710 29 c 128,-1,55
 692 66 692 66 692 146 c 128,-1,56
 692 226 692 226 702 296 c 1,57,58
 612 286 612 286 576 286 c 128,-1,59
 540 286 540 286 474 297 c 128,-1,60
 408 308 408 308 393 308 c 128,-1,61
 378 308 378 308 372 306 c 1,62,63
 180 86 180 86 102 22 c 1,64,65
 72 0 72 0 16 -6 c 1,13,-1
950 1006 m 128,-1,67
 934 1026 934 1026 907 1026 c 128,-1,68
 880 1026 880 1026 861 1003 c 128,-1,69
 842 980 842 980 842 953 c 128,-1,70
 842 926 842 926 859 908 c 128,-1,71
 876 890 876 890 901 890 c 128,-1,72
 926 890 926 890 946 911 c 128,-1,73
 966 932 966 932 966 959 c 128,-1,66
 966 986 966 986 950 1006 c 128,-1,67
EndSplineSet
EndChar

StartChar: AE
Encoding: 198 198 135
Width: 1360
VWidth: 2000
GlyphClass: 2
Flags: W
AnchorPoint: "Anchor-5" 1102 1000 basechar 0
LayerCount: 2
Fore
SplineSet
16 -6 m 1,0,-1
 -38 -14 l 2,1,2
 -50 -14 -50 -14 -50 -5 c 128,-1,3
 -50 4 -50 4 -23 12 c 128,-1,4
 4 20 4 20 30 44 c 0,5,6
 350 322 350 322 746 784 c 1,7,-1
 772 816 l 2,8,9
 784 828 784 828 795 837 c 128,-1,10
 806 846 806 846 810 851 c 128,-1,11
 814 856 814 856 825 862 c 128,-1,12
 836 868 836 868 839 869 c 128,-1,13
 842 870 842 870 856 876 c 128,-1,14
 870 882 870 882 875 884 c 128,-1,15
 880 886 880 886 897 894 c 128,-1,16
 914 902 914 902 921 902 c 128,-1,17
 928 902 928 902 928 894 c 2,18,-1
 928 892 l 2,19,20
 928 882 928 882 917 857 c 128,-1,21
 906 832 906 832 906 830 c 0,22,23
 852 686 852 686 806 426 c 1,24,25
 896 498 896 498 1040 538 c 0,26,27
 1082 550 1082 550 1082 554 c 0,28,29
 1082 562 1082 562 1070 570 c 0,30,31
 1010 610 1010 610 1010 682 c 128,-1,32
 1010 754 1010 754 1090 820 c 128,-1,33
 1170 886 1170 886 1308 886 c 0,34,35
 1366 886 1366 886 1443 866 c 128,-1,36
 1520 846 1520 846 1520 806 c 0,37,38
 1520 796 1520 796 1509 778 c 128,-1,39
 1498 760 1498 760 1491 745 c 128,-1,40
 1484 730 1484 730 1480 730 c 128,-1,41
 1476 730 1476 730 1472 742 c 0,42,43
 1460 782 1460 782 1411 822 c 128,-1,44
 1362 862 1362 862 1292 862 c 128,-1,45
 1222 862 1222 862 1177 849 c 128,-1,46
 1132 836 1132 836 1112 814 c 0,47,48
 1078 774 1078 774 1078 736 c 128,-1,49
 1078 698 1078 698 1099 658 c 128,-1,50
 1120 618 1120 618 1154 600 c 1,51,52
 1194 582 1194 582 1194 576 c 0,53,54
 1194 540 1194 540 1152 536 c 0,55,56
 934 512 934 512 852 404 c 0,57,58
 784 314 784 314 784 212 c 128,-1,59
 784 110 784 110 852 64 c 128,-1,60
 920 18 920 18 1000 18 c 0,61,62
 1138 18 1138 18 1221 89 c 128,-1,63
 1304 160 1304 160 1304 250 c 1,64,-1
 1300 276 l 2,65,66
 1300 282 1300 282 1304 282 c 1,67,-1
 1328 266 l 2,68,69
 1344 254 1344 254 1344 244 c 0,70,71
 1344 170 1344 170 1233 73 c 128,-1,72
 1122 -24 1122 -24 970 -24 c 128,-1,73
 818 -24 818 -24 757 35 c 128,-1,74
 696 94 696 94 696 208 c 0,75,76
 696 248 696 248 702 296 c 1,77,78
 612 286 612 286 576 286 c 128,-1,79
 540 286 540 286 474 297 c 128,-1,80
 408 308 408 308 393 308 c 128,-1,81
 378 308 378 308 372 306 c 1,82,83
 180 86 180 86 102 22 c 1,84,85
 72 0 72 0 16 -6 c 1,0,-1
404 342 m 1,86,-1
 438 342 l 2,87,88
 478 342 478 342 555 330 c 128,-1,89
 632 318 632 318 661 318 c 128,-1,90
 690 318 690 318 706 320 c 1,91,92
 734 524 734 524 798 772 c 1,93,-1
 806 802 l 2,94,95
 806 808 806 808 804 808 c 0,96,97
 796 808 796 808 776 780 c 1,98,-1
 404 342 l 1,86,-1
EndSplineSet
EndChar

StartChar: Ccedilla
Encoding: 199 199 136
Width: 860
VWidth: 2000
GlyphClass: 2
Flags: W
AnchorPoint: "Anchor-5" 850 1000 basechar 0
LayerCount: 2
Fore
SplineSet
426 0 m 2,0,-1
 372 -94 l 1,1,2
 434 -94 434 -94 461 -121 c 128,-1,3
 488 -148 488 -148 488 -186 c 128,-1,4
 488 -224 488 -224 454 -257 c 128,-1,5
 420 -290 420 -290 375 -290 c 128,-1,6
 330 -290 330 -290 303 -268 c 128,-1,7
 276 -246 276 -246 276 -228 c 0,8,9
 276 -226 276 -226 286 -221 c 128,-1,10
 296 -216 296 -216 302 -216 c 0,11,12
 304 -216 304 -216 312 -232 c 0,13,14
 336 -280 336 -280 372 -280 c 128,-1,15
 408 -280 408 -280 429 -258 c 128,-1,16
 450 -236 450 -236 450 -206 c 0,17,18
 450 -146 450 -146 346 -146 c 0,19,20
 336 -146 336 -146 332 -150 c 128,-1,21
 328 -154 328 -154 321 -154 c 128,-1,22
 314 -154 314 -154 314 -150 c 1,23,-1
 366 -68 l 2,24,25
 390 -30 390 -30 406 0 c 0,26,27
 408 2 408 2 417 2 c 128,-1,28
 426 2 426 2 426 0 c 2,0,-1
971 777 m 128,-1,30
 950 756 950 756 944 746 c 128,-1,31
 938 736 938 736 933 736 c 128,-1,32
 928 736 928 736 928 744 c 0,33,34
 928 778 928 778 882 810 c 128,-1,35
 836 842 836 842 784 842 c 0,36,37
 684 842 684 842 592 788 c 1,38,39
 452 696 452 696 354 545 c 128,-1,40
 256 394 256 394 256 228 c 0,41,42
 256 136 256 136 313 72 c 128,-1,43
 370 8 370 8 456 8 c 0,44,45
 724 8 724 8 790 216 c 0,46,47
 796 240 796 240 802 240 c 0,48,49
 812 240 812 240 823 223 c 128,-1,50
 834 206 834 206 834 187 c 128,-1,51
 834 168 834 168 791 120 c 128,-1,52
 748 72 748 72 647 24 c 128,-1,53
 546 -24 546 -24 428 -24 c 128,-1,54
 310 -24 310 -24 235 50 c 128,-1,55
 160 124 160 124 160 234 c 0,56,57
 160 390 160 390 281 551 c 128,-1,58
 402 712 402 712 578 810 c 1,59,60
 710 886 710 886 848 886 c 0,61,62
 894 886 894 886 930 868 c 128,-1,63
 966 850 966 850 979 833 c 128,-1,64
 992 816 992 816 992 807 c 128,-1,29
 992 798 992 798 971 777 c 128,-1,30
EndSplineSet
EndChar

StartChar: Egrave
Encoding: 200 200 137
Width: 834
VWidth: 2000
GlyphClass: 2
Flags: W
LayerCount: 2
Fore
SplineSet
850 1024 m 1,0,-1
 860 1002 l 2,1,2
 860 1000 860 1000 854 1000 c 128,-1,3
 848 1000 848 1000 844 1008 c 2,4,-1
 732 1192 l 2,5,6
 730 1194 730 1194 730 1204 c 0,7,8
 730 1242 730 1242 750 1242 c 0,9,10
 760 1242 760 1242 764 1232 c 2,11,-1
 850 1024 l 1,0,-1
778 250 m 1,12,-1
 774 276 l 2,13,14
 774 282 774 282 778 282 c 1,15,-1
 802 266 l 2,16,17
 818 254 818 254 818 244 c 0,18,19
 818 170 818 170 707 73 c 128,-1,20
 596 -24 596 -24 430 -24 c 0,21,22
 330 -24 330 -24 244 36 c 128,-1,23
 158 96 158 96 158 184 c 128,-1,24
 158 272 158 272 199 337 c 128,-1,25
 240 402 240 402 299 439 c 128,-1,26
 358 476 358 476 416 501 c 128,-1,27
 474 526 474 526 515 538 c 128,-1,28
 556 550 556 550 556 554 c 0,29,30
 556 562 556 562 544 570 c 0,31,32
 484 610 484 610 484 682 c 128,-1,33
 484 754 484 754 564 820 c 128,-1,34
 644 886 644 886 782 886 c 0,35,36
 840 886 840 886 917 866 c 128,-1,37
 994 846 994 846 994 806 c 0,38,39
 994 796 994 796 983 778 c 128,-1,40
 972 760 972 760 965 745 c 128,-1,41
 958 730 958 730 954 730 c 128,-1,42
 950 730 950 730 946 742 c 0,43,44
 934 782 934 782 885 822 c 128,-1,45
 836 862 836 862 766 862 c 128,-1,46
 696 862 696 862 651 849 c 128,-1,47
 606 836 606 836 588 814 c 0,48,49
 552 774 552 774 552 736 c 128,-1,50
 552 698 552 698 573 658 c 128,-1,51
 594 618 594 618 628 600 c 1,52,53
 668 582 668 582 668 576 c 0,54,55
 668 540 668 540 626 536 c 0,56,57
 408 512 408 512 328 404 c 1,58,59
 258 314 258 314 258 212 c 128,-1,60
 258 110 258 110 326 64 c 128,-1,61
 394 18 394 18 474 18 c 0,62,63
 612 18 612 18 695 89 c 128,-1,64
 778 160 778 160 778 250 c 1,12,-1
EndSplineSet
EndChar

StartChar: Eacute
Encoding: 201 201 138
Width: 834
VWidth: 2000
GlyphClass: 2
Flags: W
LayerCount: 2
Fore
SplineSet
724 1016 m 2,0,-1
 962 1154 l 2,1,2
 972 1160 972 1160 977 1160 c 128,-1,3
 982 1160 982 1160 982 1142 c 128,-1,4
 982 1124 982 1124 955 1113 c 128,-1,5
 928 1102 928 1102 864 1072 c 2,6,-1
 756 1020 l 2,7,8
 712 1000 712 1000 707 1000 c 128,-1,9
 702 1000 702 1000 702 1002 c 128,-1,10
 702 1004 702 1004 724 1016 c 2,0,-1
778 250 m 1,11,-1
 774 276 l 2,12,13
 774 282 774 282 778 282 c 1,14,-1
 802 266 l 2,15,16
 818 254 818 254 818 244 c 0,17,18
 818 170 818 170 707 73 c 128,-1,19
 596 -24 596 -24 430 -24 c 0,20,21
 330 -24 330 -24 244 36 c 128,-1,22
 158 96 158 96 158 184 c 128,-1,23
 158 272 158 272 199 337 c 128,-1,24
 240 402 240 402 299 439 c 128,-1,25
 358 476 358 476 416 501 c 128,-1,26
 474 526 474 526 515 538 c 128,-1,27
 556 550 556 550 556 554 c 0,28,29
 556 562 556 562 544 570 c 0,30,31
 484 610 484 610 484 682 c 128,-1,32
 484 754 484 754 564 820 c 128,-1,33
 644 886 644 886 782 886 c 0,34,35
 840 886 840 886 917 866 c 128,-1,36
 994 846 994 846 994 806 c 0,37,38
 994 796 994 796 983 778 c 128,-1,39
 972 760 972 760 965 745 c 128,-1,40
 958 730 958 730 954 730 c 128,-1,41
 950 730 950 730 946 742 c 0,42,43
 934 782 934 782 885 822 c 128,-1,44
 836 862 836 862 766 862 c 128,-1,45
 696 862 696 862 651 849 c 128,-1,46
 606 836 606 836 588 814 c 0,47,48
 552 774 552 774 552 736 c 128,-1,49
 552 698 552 698 573 658 c 128,-1,50
 594 618 594 618 628 600 c 1,51,52
 668 582 668 582 668 576 c 0,53,54
 668 540 668 540 626 536 c 0,55,56
 408 512 408 512 328 404 c 1,57,58
 258 314 258 314 258 212 c 128,-1,59
 258 110 258 110 326 64 c 128,-1,60
 394 18 394 18 474 18 c 0,61,62
 612 18 612 18 695 89 c 128,-1,63
 778 160 778 160 778 250 c 1,11,-1
EndSplineSet
EndChar

StartChar: Ecircumflex
Encoding: 202 202 139
Width: 834
VWidth: 2000
GlyphClass: 2
Flags: W
AnchorPoint: "Anchor-5" 972 1200 basechar 0
LayerCount: 2
Fore
SplineSet
1004 1028 m 1,0,-1
 962 1000 l 1,1,-1
 960 1000 l 1,2,3
 938 1056 938 1056 908 1118 c 1,4,-1
 716 1012 l 2,5,6
 698 1002 698 1002 686 1002 c 1,7,-1
 684 1004 l 2,8,9
 684 1006 684 1006 704 1018 c 0,10,11
 846 1106 846 1106 889 1136 c 128,-1,12
 932 1166 932 1166 941 1166 c 128,-1,13
 950 1166 950 1166 952 1158 c 0,14,15
 984 1068 984 1068 1004 1028 c 1,0,-1
778 250 m 1,16,-1
 774 276 l 2,17,18
 774 282 774 282 778 282 c 1,19,-1
 802 266 l 2,20,21
 818 254 818 254 818 244 c 0,22,23
 818 170 818 170 707 73 c 128,-1,24
 596 -24 596 -24 430 -24 c 0,25,26
 330 -24 330 -24 244 36 c 128,-1,27
 158 96 158 96 158 184 c 128,-1,28
 158 272 158 272 199 337 c 128,-1,29
 240 402 240 402 299 439 c 128,-1,30
 358 476 358 476 416 501 c 128,-1,31
 474 526 474 526 515 538 c 128,-1,32
 556 550 556 550 556 554 c 0,33,34
 556 562 556 562 544 570 c 0,35,36
 484 610 484 610 484 682 c 128,-1,37
 484 754 484 754 564 820 c 128,-1,38
 644 886 644 886 782 886 c 0,39,40
 840 886 840 886 917 866 c 128,-1,41
 994 846 994 846 994 806 c 0,42,43
 994 796 994 796 983 778 c 128,-1,44
 972 760 972 760 965 745 c 128,-1,45
 958 730 958 730 954 730 c 128,-1,46
 950 730 950 730 946 742 c 0,47,48
 934 782 934 782 885 822 c 128,-1,49
 836 862 836 862 766 862 c 128,-1,50
 696 862 696 862 651 849 c 128,-1,51
 606 836 606 836 588 814 c 0,52,53
 552 774 552 774 552 736 c 128,-1,54
 552 698 552 698 573 658 c 128,-1,55
 594 618 594 618 628 600 c 1,56,57
 668 582 668 582 668 576 c 0,58,59
 668 540 668 540 626 536 c 0,60,61
 408 512 408 512 328 404 c 1,62,63
 258 314 258 314 258 212 c 128,-1,64
 258 110 258 110 326 64 c 128,-1,65
 394 18 394 18 474 18 c 0,66,67
 612 18 612 18 695 89 c 128,-1,68
 778 160 778 160 778 250 c 1,16,-1
EndSplineSet
EndChar

StartChar: Edieresis
Encoding: 203 203 140
Width: 834
VWidth: 2000
GlyphClass: 2
Flags: W
LayerCount: 2
Fore
SplineSet
760 1054 m 0,0,1
 760 1076 760 1076 780 1100 c 128,-1,2
 800 1124 800 1124 817 1124 c 128,-1,3
 834 1124 834 1124 843 1113 c 128,-1,4
 852 1102 852 1102 852 1083 c 128,-1,5
 852 1064 852 1064 834 1041 c 128,-1,6
 816 1018 816 1018 792 1018 c 0,7,8
 760 1018 760 1018 760 1054 c 0,0,1
912 1054 m 0,9,10
 912 1076 912 1076 932 1100 c 128,-1,11
 952 1124 952 1124 969 1124 c 128,-1,12
 986 1124 986 1124 995 1113 c 128,-1,13
 1004 1102 1004 1102 1004 1083 c 128,-1,14
 1004 1064 1004 1064 986 1041 c 128,-1,15
 968 1018 968 1018 944 1018 c 0,16,17
 912 1018 912 1018 912 1054 c 0,9,10
778 250 m 1,18,-1
 774 276 l 2,19,20
 774 282 774 282 778 282 c 1,21,-1
 802 266 l 2,22,23
 818 254 818 254 818 244 c 0,24,25
 818 170 818 170 707 73 c 128,-1,26
 596 -24 596 -24 430 -24 c 0,27,28
 330 -24 330 -24 244 36 c 128,-1,29
 158 96 158 96 158 184 c 128,-1,30
 158 272 158 272 199 337 c 128,-1,31
 240 402 240 402 299 439 c 128,-1,32
 358 476 358 476 416 501 c 128,-1,33
 474 526 474 526 515 538 c 128,-1,34
 556 550 556 550 556 554 c 0,35,36
 556 562 556 562 544 570 c 0,37,38
 484 610 484 610 484 682 c 128,-1,39
 484 754 484 754 564 820 c 128,-1,40
 644 886 644 886 782 886 c 0,41,42
 840 886 840 886 917 866 c 128,-1,43
 994 846 994 846 994 806 c 0,44,45
 994 796 994 796 983 778 c 128,-1,46
 972 760 972 760 965 745 c 128,-1,47
 958 730 958 730 954 730 c 128,-1,48
 950 730 950 730 946 742 c 0,49,50
 934 782 934 782 885 822 c 128,-1,51
 836 862 836 862 766 862 c 128,-1,52
 696 862 696 862 651 849 c 128,-1,53
 606 836 606 836 588 814 c 0,54,55
 552 774 552 774 552 736 c 128,-1,56
 552 698 552 698 573 658 c 128,-1,57
 594 618 594 618 628 600 c 1,58,59
 668 582 668 582 668 576 c 0,60,61
 668 540 668 540 626 536 c 0,62,63
 408 512 408 512 328 404 c 1,64,65
 258 314 258 314 258 212 c 128,-1,66
 258 110 258 110 326 64 c 128,-1,67
 394 18 394 18 474 18 c 0,68,69
 612 18 612 18 695 89 c 128,-1,70
 778 160 778 160 778 250 c 1,18,-1
EndSplineSet
EndChar

StartChar: Igrave
Encoding: 204 204 141
Width: 690
VWidth: 2000
GlyphClass: 2
Flags: W
LayerCount: 2
Fore
SplineSet
812 1024 m 1,0,-1
 822 1002 l 2,1,2
 822 1000 822 1000 816 1000 c 128,-1,3
 810 1000 810 1000 806 1008 c 2,4,-1
 694 1192 l 2,5,6
 692 1194 692 1194 692 1204 c 0,7,8
 692 1242 692 1242 712 1242 c 0,9,10
 720 1242 720 1242 726 1232 c 2,11,-1
 812 1024 l 1,0,-1
564 796 m 1,12,13
 602 850 602 850 602 882 c 128,-1,14
 602 914 602 914 580 932 c 128,-1,15
 558 950 558 950 517 950 c 128,-1,16
 476 950 476 950 436 926 c 128,-1,17
 396 902 396 902 396 859 c 128,-1,18
 396 816 396 816 439 806 c 128,-1,19
 482 796 482 796 564 796 c 1,12,13
166 230 m 1,20,21
 146 206 146 206 146 156 c 128,-1,22
 146 106 146 106 188 56 c 128,-1,23
 230 6 230 6 283 6 c 128,-1,24
 336 6 336 6 379 56 c 128,-1,25
 422 106 422 106 470 208 c 0,26,27
 630 546 630 546 820 810 c 1,28,29
 726 782 726 782 576 776 c 1,30,31
 512 696 512 696 370 574 c 0,32,33
 354 558 354 558 348 558 c 128,-1,34
 342 558 342 558 342 564 c 128,-1,35
 342 570 342 570 365 588 c 128,-1,36
 388 606 388 606 453 672 c 128,-1,37
 518 738 518 738 548 776 c 1,38,39
 340 776 340 776 340 844 c 0,40,41
 340 898 340 898 421 936 c 128,-1,42
 502 974 502 974 575 974 c 128,-1,43
 648 974 648 974 648 918 c 0,44,45
 648 884 648 884 592 798 c 1,46,47
 728 806 728 806 796 831 c 128,-1,48
 864 856 864 856 938 856 c 0,49,50
 946 856 946 856 946 852 c 128,-1,51
 946 848 946 848 941 844 c 128,-1,52
 936 840 936 840 929 836 c 128,-1,53
 922 832 922 832 918 826 c 0,54,55
 734 562 734 562 568 224 c 0,56,57
 452 -12 452 -12 242 -12 c 0,58,59
 178 -12 178 -12 127 29 c 128,-1,60
 76 70 76 70 76 136 c 0,61,62
 76 142 76 142 95 161 c 128,-1,63
 114 180 114 180 128 196 c 2,64,-1
 150 224 l 2,65,66
 158 234 158 234 162 234 c 128,-1,67
 166 234 166 234 166 230 c 1,20,21
EndSplineSet
EndChar

StartChar: Iacute
Encoding: 205 205 142
Width: 690
VWidth: 2000
GlyphClass: 2
Flags: W
LayerCount: 2
Fore
SplineSet
720 1016 m 2,0,-1
 958 1154 l 2,1,2
 968 1160 968 1160 973 1160 c 128,-1,3
 978 1160 978 1160 978 1142 c 128,-1,4
 978 1124 978 1124 951 1113 c 128,-1,5
 924 1102 924 1102 860 1072 c 2,6,-1
 752 1020 l 2,7,8
 708 1000 708 1000 703 1000 c 128,-1,9
 698 1000 698 1000 698 1002 c 128,-1,10
 698 1004 698 1004 720 1016 c 2,0,-1
564 796 m 1,11,12
 602 850 602 850 602 882 c 128,-1,13
 602 914 602 914 580 932 c 128,-1,14
 558 950 558 950 517 950 c 128,-1,15
 476 950 476 950 436 926 c 128,-1,16
 396 902 396 902 396 859 c 128,-1,17
 396 816 396 816 439 806 c 128,-1,18
 482 796 482 796 564 796 c 1,11,12
166 230 m 1,19,20
 146 206 146 206 146 156 c 128,-1,21
 146 106 146 106 188 56 c 128,-1,22
 230 6 230 6 283 6 c 128,-1,23
 336 6 336 6 379 56 c 128,-1,24
 422 106 422 106 470 208 c 0,25,26
 630 546 630 546 820 810 c 1,27,28
 726 782 726 782 576 776 c 1,29,30
 512 696 512 696 370 574 c 0,31,32
 354 558 354 558 348 558 c 128,-1,33
 342 558 342 558 342 564 c 128,-1,34
 342 570 342 570 365 588 c 128,-1,35
 388 606 388 606 453 672 c 128,-1,36
 518 738 518 738 548 776 c 1,37,38
 340 776 340 776 340 844 c 0,39,40
 340 898 340 898 421 936 c 128,-1,41
 502 974 502 974 575 974 c 128,-1,42
 648 974 648 974 648 918 c 0,43,44
 648 884 648 884 592 798 c 1,45,46
 728 806 728 806 796 831 c 128,-1,47
 864 856 864 856 938 856 c 0,48,49
 946 856 946 856 946 852 c 128,-1,50
 946 848 946 848 941 844 c 128,-1,51
 936 840 936 840 929 836 c 128,-1,52
 922 832 922 832 918 826 c 0,53,54
 734 562 734 562 568 224 c 0,55,56
 452 -12 452 -12 242 -12 c 0,57,58
 178 -12 178 -12 127 29 c 128,-1,59
 76 70 76 70 76 136 c 0,60,61
 76 142 76 142 95 161 c 128,-1,62
 114 180 114 180 128 196 c 2,63,-1
 150 224 l 2,64,65
 158 234 158 234 162 234 c 128,-1,66
 166 234 166 234 166 230 c 1,19,20
EndSplineSet
EndChar

